<svg width="1428" height="1222" viewBox="0 0 1428 1222" fill="none" xmlns="http://www.w3.org/2000/svg">
<g clip-path="url(#clip0_765_28)">
<path fill-rule="evenodd" clip-rule="evenodd" d="M701.774 220.483C863.137 207.665 989.1 80.4393 1126.95 155.649C1273.63 235.682 1357.49 347.911 1386.39 503.092C1418.09 673.3 1479.36 884.235 1338.36 1001.87C1198.56 1118.51 938.68 1206.94 751.849 1220.3C581.147 1232.5 465.586 1140.92 311.651 1075.29C137.999 1001.26 24.5917 830.475 4.22987 654.806C-16.218 478.393 55.6179 286.688 207.093 173.229C342.082 72.1185 529.535 234.165 701.774 220.483Z" fill="#E0F1DF"/>
<path d="M1244.48 237.808C1252.35 244.97 1266.6 254.15 1277.68 249.247C1284.68 246.144 1286.02 237.044 1278.91 233.776C1275.33 232.131 1264.39 236.513 1266.32 228.429C1268.43 219.626 1281.99 219.354 1288.96 219.983C1312.63 222.12 1323.54 245.314 1321.02 266.411C1318.7 285.868 1303.37 302.397 1283.38 303.174C1273.96 303.539 1262.54 298.601 1259.22 289.322C1257.67 285.375 1259.84 283.282 1265.71 283.04C1266.98 283.694 1268.2 284.453 1269.47 285.109C1270.7 285.739 1272.73 286.545 1274.19 286.184C1277.29 285.417 1279.29 282.996 1279.47 279.76C1279.66 276.289 1273.24 273.874 1270.79 273.116C1262.1 270.437 1253.14 272.733 1244.48 271.226C1233.36 269.289 1243.89 243.597 1245.88 237.688C1246.29 236.474 1244.4 235.881 1243.99 237.089C1241.57 244.304 1229.9 272.638 1245.75 273.44C1249.96 273.653 1281.72 272.186 1276.63 282.333C1274.17 287.24 1268.12 281.699 1265.44 280.697C1263.35 279.912 1261.64 280.349 1259.6 281.189C1255.69 282.797 1256.78 288.351 1257.83 291.275C1260.05 297.48 1266.22 300.887 1271.99 303.127C1286.31 308.683 1303.26 302.412 1312.59 290.76C1333.23 264.959 1323.43 219.618 1286.08 217.802C1280.06 217.508 1273.71 218.617 1268.64 221.963C1266.04 223.679 1262.13 229.51 1264.33 232.748C1266.5 235.951 1270.51 235.5 1273.98 235.386C1281.52 235.14 1282.88 243.585 1276.74 247.499C1270.66 251.379 1260.14 245.995 1254.86 243.087C1251.61 241.295 1248.67 238.95 1245.93 236.46C1244.99 235.606 1243.53 236.946 1244.48 237.808" fill="#3A8435"/>
<path d="M1242.95 243.3C1249.76 252.785 1265.5 258.032 1276.96 256.491C1282.47 255.75 1286.45 253.633 1288.93 248.602C1289.38 247.617 1289.86 246.639 1290.34 245.669C1291.86 242.559 1294.17 244.587 1293.09 247.868C1291.95 251.38 1289.22 254.512 1287.18 257.549C1286.65 258.347 1287.45 259.131 1288.25 259.046C1291.19 258.736 1294.08 258.801 1296.97 259.498C1305.67 261.592 1293.54 266.386 1293.22 266.469C1291.9 266.827 1290.56 267.095 1289.25 267.482C1288.5 267.702 1288.12 268.863 1288.94 269.281C1291.18 270.421 1293.14 271.694 1295.01 273.415C1294.07 276.06 1292.69 276.793 1290.84 275.62C1289.59 275.18 1288.41 274.64 1287.13 274.273C1286.28 274.031 1285.58 274.895 1285.96 275.684C1286.87 277.572 1287.77 279.418 1288.48 281.398C1287.28 282.674 1286.36 282.548 1285.72 281.017C1284.64 279.765 1283.72 278.358 1282.87 276.945C1280.73 273.414 1277.9 269.932 1273.92 268.41C1267.36 265.898 1259.95 264.661 1253.09 263.198C1249.1 262.348 1243.37 261.015 1239.49 262.758C1238.33 263.281 1239.26 265.027 1240.42 264.504C1245.11 262.399 1252.94 265.135 1257.62 266.238C1262.24 267.328 1266.95 268.298 1271.51 269.605C1278.97 271.738 1281.28 279.626 1286.36 284.601C1287.28 285.495 1289.83 286.659 1290.51 284.726C1291.66 281.465 1289.08 277.59 1287.71 274.752C1287.32 275.222 1286.93 275.693 1286.53 276.163C1289.54 277.021 1295.24 280.729 1297.67 276.928C1300.23 272.911 1292.43 268.846 1290.01 267.612C1289.9 268.213 1289.8 268.812 1289.7 269.412C1293.28 268.359 1303.13 267.312 1301.72 261.313C1300.48 255.996 1291.71 256.705 1287.79 257.116C1288.15 257.615 1288.5 258.115 1288.86 258.613C1291.81 254.212 1296.12 249.35 1295.68 243.707C1295.49 241.246 1293.36 239.99 1291.3 240.961C1289.64 241.748 1288.66 244.609 1287.95 246.069C1285.14 251.811 1281.33 254.372 1274.66 254.613C1264.14 254.993 1250.64 250.641 1244.4 241.952C1243.66 240.917 1242.21 242.274 1242.95 243.3" fill="#3A8435"/>
<path d="M1312.57 232.263C1310.7 233.52 1309 235.025 1307.13 236.282C1306.08 236.987 1307 238.743 1308.06 238.031C1309.94 236.773 1311.63 235.266 1313.51 234.009C1314.56 233.306 1313.64 231.55 1312.57 232.263Z" fill="#3A8435"/>
<path d="M1319.46 244.854C1317.27 245.496 1315.08 246.21 1312.79 246.411C1311.54 246.521 1311.45 248.504 1312.72 248.391C1315.2 248.172 1317.53 247.482 1319.92 246.782C1321.13 246.426 1320.69 244.494 1319.46 244.854" fill="#3A8435"/>
<path d="M1321.88 257.601C1319.85 257.757 1317.81 257.706 1315.79 257.894C1314.53 258.013 1314.44 259.992 1315.71 259.874C1317.73 259.685 1319.77 259.737 1321.8 259.58C1323.06 259.483 1323.15 257.502 1321.88 257.601Z" fill="#3A8435"/>
<path d="M1319.12 274.412C1317.59 274.353 1316.1 274.261 1314.65 273.747C1313.44 273.321 1312.84 275.211 1314.05 275.637C1315.66 276.206 1317.34 276.326 1319.04 276.392C1320.31 276.441 1320.39 274.461 1319.12 274.412" fill="#3A8435"/>
<path d="M1310.24 291.391C1308.19 289.961 1306.5 288.134 1304.82 286.313C1303.95 285.374 1302.49 286.722 1303.36 287.659C1305.17 289.605 1306.99 291.536 1309.17 293.06C1310.22 293.795 1311.28 292.12 1310.24 291.391Z" fill="#3A8435"/>
<path d="M1159.39 317.627C1168.74 306.637 1175.1 292.993 1182.42 280.629C1191.27 265.713 1199.65 250.69 1207.66 235.31C1221.64 208.459 1236.43 177.655 1267.19 167.371C1268.2 167.033 1267.77 165.423 1266.75 165.765C1254.91 169.721 1243.62 177.061 1235.47 186.481C1225.53 197.977 1217.98 212.589 1210.77 225.883C1202.57 240.993 1194.93 256.318 1186.14 271.103C1181.49 278.926 1176.78 286.722 1172.24 294.605C1167.89 302.151 1163.89 309.775 1158.21 316.447C1157.52 317.261 1158.69 318.446 1159.39 317.627Z" fill="#3A8435"/>
<path d="M1196.61 255.967C1196.41 242.359 1200.01 229.283 1204.92 216.699C1210.26 202.98 1217.03 189.619 1226.07 177.958C1239.6 160.498 1265.77 149.696 1271.37 126.638C1271.62 125.594 1270.02 125.151 1269.76 126.195C1266.68 138.906 1255.66 148.212 1246.39 156.707C1236.68 165.603 1226.96 173.226 1219.47 184.234C1205.77 204.384 1194.58 231.332 1194.95 255.967C1194.96 257.04 1196.63 257.042 1196.61 255.967Z" fill="#3A8435"/>
<path d="M1270.97 127.996C1272.19 124.104 1274.41 117.536 1271.42 113.978C1268.13 110.074 1263.89 119.018 1263.25 120.568C1262.65 122.01 1255.94 133.754 1255.78 133.506C1254.01 130.8 1253.55 126.942 1252.41 123.938C1251.2 120.726 1248.93 117.799 1245.58 120.363C1239.65 124.911 1239.38 135.355 1237.63 141.904C1237.32 143.027 1233.6 153.164 1231.48 148C1230.84 146.436 1230.51 144.719 1229.97 143.115C1229.4 141.396 1227.68 136.84 1225.37 136.456C1210.79 134.026 1220.47 175.36 1221.17 181.331C1221.29 182.386 1222.96 182.398 1222.84 181.331C1221.44 169.323 1217.6 156.886 1219.71 144.694C1220.32 141.187 1224.52 136.384 1227.24 141.142C1228.53 143.408 1229.08 145.986 1229.88 148.443C1230.24 149.556 1231.41 152.176 1233.09 151.587C1240.65 148.938 1240.79 134.146 1242.81 127.93C1243.63 125.411 1247.16 118.028 1250.05 122.77C1251.12 124.522 1251.64 126.69 1252.25 128.636C1252.96 130.916 1253.5 133.679 1255.21 135.462C1255.51 135.771 1256.1 135.803 1256.39 135.462C1259.77 131.492 1262.39 127.107 1264.33 122.279C1265.02 120.568 1265.79 118.975 1266.69 117.379C1268.09 117.011 1269.49 116.643 1270.9 116.275C1271.12 117.382 1271.17 118.494 1271.06 119.61C1270.94 122.274 1270.16 125.019 1269.36 127.552C1269.04 128.58 1270.64 129.018 1270.97 127.996" fill="#3A8435"/>
<path d="M1267.92 167.041C1274.37 163.262 1282.02 162.442 1289.37 162.851C1291.07 162.997 1292.76 163.267 1294.41 163.666C1294.84 164.741 1295.26 165.814 1295.69 166.887C1293.36 168.843 1290.61 169.842 1287.44 169.883C1283.33 170.339 1279.27 169.702 1275.16 170.414C1274.51 170.525 1274.38 171.394 1274.79 171.807C1276.35 173.413 1278.56 174.401 1280.47 175.497C1282.02 176.383 1283.55 177.311 1285.04 178.293C1286.04 178.946 1286.98 179.678 1287.85 180.486C1290.31 182.63 1288.62 186.858 1285.33 186.289C1278.67 185.133 1273.38 178.969 1266.57 178.526C1266.06 178.493 1265.59 179.089 1265.77 179.581C1266.38 181.245 1267.07 182.875 1267.7 184.531C1268.07 185.519 1268.36 186.526 1268.6 187.554C1267.7 188.785 1266.82 190.017 1265.93 191.247C1264.8 190.487 1263.79 189.602 1262.89 188.589C1258.76 184.33 1255.43 179.466 1250.7 175.802C1249.86 175.153 1248.67 176.323 1249.52 176.981C1253.56 180.11 1256.52 184.083 1259.97 187.799C1261.78 189.75 1263.64 192.487 1266.37 193.239C1271.93 194.767 1270.09 186.451 1269.31 184.087C1268.98 183.105 1267.58 180.315 1267.97 180.401C1269.84 180.807 1271.62 181.879 1273.32 182.735C1276.37 184.277 1279.37 185.901 1282.55 187.175C1285.18 188.233 1292.09 188.989 1291.57 183.987C1291.06 179.051 1285.1 176.25 1281.32 174.058C1280.01 173.302 1278.7 172.563 1277.41 171.773C1275.21 170.462 1276.12 170.375 1280.14 171.514C1281.76 171.523 1283.38 171.55 1285 171.594C1288.56 171.673 1292.91 171.267 1295.81 168.918C1300.18 165.381 1297.57 162.629 1292.95 161.659C1284.59 159.902 1274.46 161.277 1267.08 165.602C1266.15 166.143 1266.99 167.585 1267.92 167.041" fill="#3A8435"/>
<path d="M1205.52 213.1C1204.73 208.979 1202.9 205.202 1202.1 201.063C1201.14 196.106 1201.16 190.94 1201.06 185.912C1201.04 184.839 1199.38 184.836 1199.4 185.912C1199.49 190.47 1199.51 195.087 1200.2 199.603C1200.95 204.45 1203 208.779 1203.91 213.543C1204.11 214.598 1205.72 214.15 1205.52 213.1" fill="#3A8435"/>
<path d="M1202.32 198.172C1207.12 191.33 1212.36 180.358 1208.58 172.052C1208.39 171.64 1207.8 171.538 1207.44 171.752C1206.62 172.243 1202.05 175.602 1202.53 176.319C1201.26 174.435 1201.19 171.868 1199.7 170.096C1197.53 167.519 1194.31 168.616 1193.09 171.558C1189.88 179.326 1190.38 196.227 1200.8 198.432C1201.85 198.655 1202.3 197.048 1201.24 196.826C1194.16 195.326 1192.65 184.948 1193.08 178.918C1193.19 177.292 1193.53 175.73 1193.92 174.155C1194.25 171.995 1195.89 171.235 1198.86 171.878C1199.26 172.707 1199.62 173.558 1199.93 174.427C1200.46 175.846 1200.93 177.299 1202.07 178.348C1202.48 178.727 1203.07 178.636 1203.38 178.179C1204.73 176.163 1207.74 172.002 1208.15 177.055C1208.37 179.788 1207.59 182.586 1206.84 185.186C1205.6 189.507 1203.46 193.656 1200.88 197.331C1200.26 198.214 1201.71 199.044 1202.32 198.172" fill="#3A8435"/>
<path d="M1224.33 929.667C1207.03 929.667 1193 915.639 1193 898.333C1193 881.029 1207.03 867 1224.33 867C1241.64 867 1255.67 881.029 1255.67 898.333C1255.67 915.639 1241.64 929.667 1224.33 929.667Z" fill="#AADE81"/>
<path d="M1124.6 1109.12C1140.56 1094.14 1153.82 1075.89 1164.27 1056.76C1167.03 1051.73 1170.16 1046.96 1174.46 1043.1C1179.83 1038.28 1186.61 1038.57 1193.21 1039.91C1202.29 1041.76 1210.72 1046 1219.85 1047.63C1220.91 1047.82 1221.34 1046.47 1220.34 1046.03C1210.93 1041.94 1198.87 1039.13 1191.79 1031.26C1185.64 1024.42 1201.78 1020.19 1205.66 1019.53C1211.58 1018.52 1217.84 1018.56 1223.79 1019.35C1235.94 1020.99 1244.99 1031.54 1253.96 1038.85C1265.08 1047.91 1278.17 1051.09 1292.32 1051.17C1293.3 1051.17 1293.46 1049.89 1292.6 1049.54C1272.42 1041.31 1255.35 1030.36 1238.09 1017.26C1237.93 1017.77 1237.78 1018.28 1237.61 1018.79C1255.5 1021.42 1269.45 1015.04 1285.39 1007.82C1304.03 999.377 1321.71 988.987 1340.43 980.797C1341.21 980.458 1340.9 979.231 1340.08 979.222C1325.49 979.059 1311.06 990.152 1298.24 995.993C1283.14 1002.87 1268.46 1009.89 1252.06 1012.92C1245.54 1014.12 1237.05 1015.6 1230.82 1012.52C1224.13 1009.23 1233.01 997.386 1235.39 993.585C1238.72 988.284 1242.47 983.236 1245.51 977.759C1246.37 976.204 1249.85 971.62 1249.45 970.051C1249.3 969.492 1248.52 969.125 1248.07 969.613C1238.55 980.065 1228.58 992.163 1223.1 1005.29C1220.27 1012.05 1215.25 1012.57 1208.65 1012.51C1206.99 1012.5 1205.32 1012.44 1203.66 1012.4C1200.6 1012.33 1201.45 1008.5 1201.58 1006.2C1202.05 997.435 1205.46 988.975 1206.89 980.344C1207.03 979.511 1205.75 979.183 1205.36 979.865C1200.15 988.863 1197.63 997.809 1194.28 1007.48C1192.04 1013.96 1187.87 1017.99 1182.47 1021.89C1177.07 1025.79 1173.54 1030.57 1169.63 1035.88C1153.59 1057.64 1136.85 1078.62 1119.36 1099.23C1118.68 1100.04 1119.79 1101.29 1120.48 1100.47C1137.62 1080.26 1154.19 1059.76 1169.86 1038.38C1174 1032.72 1177.88 1027.33 1183.59 1023.13C1188.19 1019.75 1192.06 1016.59 1194.48 1011.3C1196.21 1007.51 1197.2 1003.56 1198.31 999.556C1200.17 992.878 1203.3 986.733 1206.76 980.76C1206.25 980.601 1205.74 980.44 1205.23 980.282C1203.4 991.3 1198.66 1002.08 1200.17 1013.42C1200.21 1013.77 1200.6 1014.08 1200.95 1014.07C1209.47 1013.91 1219.79 1016.81 1223.95 1007.44C1227.02 1000.54 1230.95 995.04 1235.14 988.801C1238.71 983.498 1242.08 976.988 1247.35 973.182C1248.89 972.074 1248.48 969.05 1246.96 971.521C1246.34 972.523 1245.61 973.519 1245.14 974.598C1243.49 978.357 1241.17 981.735 1238.92 985.152C1234.38 992.007 1227.38 1000.24 1226.66 1008.77C1225.49 1022.92 1262.32 1012.49 1267.92 1010.75C1280.43 1006.86 1292.71 1000.65 1304.48 994.949C1315.31 989.703 1327.57 980.748 1340.02 980.888C1339.9 980.364 1339.79 979.838 1339.67 979.314C1322.08 987.012 1305.48 996.8 1288.01 1004.8C1280.71 1008.14 1273.4 1011.51 1265.91 1014.42C1256.6 1018.04 1247.51 1018.57 1237.68 1017.13C1236.78 1017 1236.61 1018.22 1237.2 1018.66C1254.56 1031.85 1271.84 1042.87 1292.11 1051.13C1292.2 1050.59 1292.29 1050.05 1292.38 1049.5C1281.77 1049.45 1271.62 1047.83 1262.27 1042.6C1255.85 1039.01 1250.66 1033.7 1245.08 1029.01C1233.89 1019.61 1223.09 1016.21 1208.61 1017.49C1202.97 1017.99 1184.5 1021.82 1189.89 1031.46C1192.52 1036.18 1199.46 1038.87 1204.04 1041.02C1209.22 1043.46 1214.61 1045.35 1219.85 1047.63C1220.02 1047.1 1220.18 1046.56 1220.34 1046.03C1203.44 1043.03 1182.96 1028.57 1169.29 1046.03C1161.84 1055.55 1157.07 1066.92 1149.96 1076.76C1141.98 1087.77 1133.41 1098.56 1123.48 1107.89C1122.69 1108.62 1123.81 1109.86 1124.6 1109.12" fill="#3A8435"/>
<path d="M1150.58 1061.92C1148.21 1058.91 1145.38 1056.13 1144.14 1052.42C1142.42 1047.32 1147.79 1044.1 1151.22 1041.85C1154.75 1039.53 1153.76 1034.63 1152.81 1031.2C1152.08 1028.52 1150.45 1026.09 1149.56 1023.44C1147.01 1015.81 1155.25 1015.16 1160.1 1015.01C1163.46 1014.91 1167.92 1013.45 1168.52 1009.54C1169.58 1002.71 1163.69 997.164 1167.4 990.337C1169.68 986.145 1176.86 989.361 1180.29 986.445C1183.78 983.46 1183.48 979.414 1182.89 975.213C1182.32 971.165 1181.61 961.202 1188.82 962.531C1191.14 962.96 1193.17 964.454 1195.51 964.936C1198.22 965.49 1201.16 963.833 1202.22 961.311C1203.04 959.382 1203.29 957.467 1203.53 955.408C1204.59 946.651 1215.2 953.998 1218.56 956.777C1221.88 959.535 1225.65 960.175 1229.12 957.336C1231.02 955.781 1232.07 952.41 1233.05 950.284C1234.82 946.459 1238.61 941.9 1244.27 946.983C1245.77 948.333 1246.86 950.306 1248.07 951.91C1250.57 955.227 1254.15 956.266 1257.99 954.803C1265.06 952.108 1266.01 935.372 1276.72 946.749C1279.9 950.136 1283.33 954.258 1288.49 953.892C1294.28 953.48 1299.08 940.465 1306.06 947.476C1309.45 950.879 1310.97 953.966 1316.1 954.792C1320.96 955.575 1339.92 949.597 1338.22 959.541C1337.57 963.364 1338.6 966.662 1341.49 969.311C1343.17 970.846 1345.85 971.358 1347.94 971.946C1353.26 973.44 1361.27 979.604 1354.09 984.44C1342.45 992.285 1362.89 1011.13 1344.56 1014.88C1340.6 1015.69 1335.12 1017.71 1333.8 1022.04C1333.06 1024.43 1333 1026.84 1332.82 1029.32C1332.34 1036.31 1328.13 1041.23 1321.75 1043.52C1317.25 1045.14 1311.55 1045.91 1308.55 1050.01C1307.51 1051.43 1307.31 1053.59 1306.83 1055.23C1305.15 1061.04 1300.39 1065.41 1294.34 1065.7C1289.81 1065.92 1284.64 1065.5 1281.01 1068.7C1279.24 1070.26 1278.18 1072.63 1276.45 1074.3C1271.51 1079.1 1266.88 1076.96 1261.64 1074.7C1257.38 1072.86 1252.29 1071.34 1248.14 1074.16C1245.51 1075.95 1243.97 1078.03 1240.76 1079.18C1235.02 1081.23 1230.11 1074.89 1225.78 1072.35C1221.21 1069.66 1216.61 1071.42 1212.67 1074.14C1208.08 1077.31 1203.12 1079.5 1197.61 1076.91C1194.53 1075.45 1191.65 1073.88 1188.44 1072.67C1185.81 1071.69 1183.88 1072.7 1181.46 1073.72C1173.25 1077.2 1163.84 1074.65 1158.66 1067.41C1158.04 1066.54 1156.81 1067.67 1157.43 1068.53C1160.92 1073.41 1165.68 1075.88 1171.53 1076.82C1177.81 1077.84 1183.6 1072.63 1189.36 1074.8C1194.91 1076.88 1198.74 1080.29 1204.84 1079.62C1207.48 1079.33 1210.06 1077.96 1212.2 1076.48C1218.32 1072.24 1223.08 1071.92 1229.13 1076.71C1233.1 1079.86 1237.82 1082.76 1242.96 1080.15C1245.04 1079.1 1246.58 1077.81 1248.26 1076.22C1252.66 1072.06 1259.13 1075.36 1263.66 1077.46C1268.13 1079.53 1271.71 1079.47 1275.89 1076.86C1277.76 1075.69 1279.2 1073.97 1280.48 1072.22C1283.64 1067.88 1287.69 1067.5 1292.84 1067.4C1297.04 1067.31 1301.2 1066.82 1303.97 1063.23C1305.81 1060.85 1307.39 1058.55 1308.43 1055.72C1308.8 1054.68 1309.01 1053.56 1309.3 1052.49C1310.25 1048.95 1314.1 1047.85 1317.11 1046.77C1321.67 1045.13 1327.47 1044.19 1330.49 1039.92C1332.38 1037.23 1333.57 1034.42 1334.25 1031.2C1335.4 1025.83 1333.89 1021.94 1339.57 1018.34C1343.04 1016.15 1348.97 1017.13 1351.75 1013.78C1355.57 1009.19 1354.7 1002.77 1353.09 997.492C1351.64 992.738 1351.1 988.452 1355.72 985.339C1356.88 984.558 1357.89 983.926 1358.79 982.848C1360.97 980.207 1356.72 974.775 1354.87 973.406C1348.88 968.961 1338.21 969.434 1339.95 959.24C1340.44 956.401 1338.93 954.671 1336.3 953.637C1329.52 950.972 1324.59 952.586 1317.63 953.156C1309.8 953.797 1310.05 945.065 1304.07 944.291C1299.16 943.656 1294.58 946.999 1291.24 950.259C1284.43 956.899 1278.6 944.259 1272.79 941.863C1268.85 940.234 1264.86 943.328 1262.73 946.245C1259.9 950.117 1257.13 958.016 1250.3 951.927C1247.98 949.866 1246.94 946.393 1244.23 944.728C1240.38 942.37 1236.4 943.092 1233.42 946.442C1231.65 948.427 1230.72 951.478 1229.56 953.827C1225.53 961.975 1218.12 953.878 1214.25 951.375C1211.27 949.443 1206.33 948.882 1203.44 951.126C1199.19 954.422 1204.09 966.058 1194.03 962.823C1190.81 961.788 1188.39 959.849 1185.03 961.424C1181.14 963.247 1180.35 968.805 1180.83 972.468C1181.41 976.963 1183.3 982.721 1178.4 985.649C1176.42 986.835 1173.75 986.304 1171.56 986.525C1167.1 986.975 1165.38 989.687 1164.37 993.862C1163.66 996.791 1165.12 1000.17 1166.01 1002.88C1167.25 1006.63 1168.49 1011.13 1162.7 1013.01C1160.49 1013.73 1157.95 1013.25 1155.67 1013.49C1149.14 1014.2 1146.33 1018.99 1148.38 1025.14C1149.87 1029.59 1153.81 1034.46 1151.4 1039.38C1150.81 1040.59 1148.71 1041.37 1147.63 1042.15C1145.9 1043.39 1144.68 1044.76 1143.48 1046.5C1139.36 1052.46 1145.98 1058.79 1149.35 1063.03C1150.02 1063.88 1151.25 1062.75 1150.58 1061.92" fill="#3A8435"/>
<path d="M1183.61 963.003C1179.4 953.862 1177.57 937.033 1185.38 929.298C1190.56 924.168 1197.09 929.091 1201.73 931.861C1204.52 933.53 1207.78 929.539 1209.34 927.943C1210.64 926.613 1211.46 924.777 1212.31 923.146C1215.36 917.276 1221.61 917.492 1226.12 921.768C1229.16 924.643 1230.69 926.621 1235.12 925.566C1240.67 924.246 1242.41 918.111 1246.76 915.185C1255.99 908.982 1260.14 921.532 1266.28 925.054C1269.82 927.085 1273.84 925.569 1277.21 924.038C1284.16 920.877 1291.38 916.989 1299.19 919.274C1305.22 921.037 1308.38 927.761 1314.2 930.239C1321.19 933.21 1329.36 929.755 1336.64 932.009C1343.71 934.201 1343.89 942.832 1348.23 947.787C1352.82 953.036 1361.99 948.568 1364.61 956.777C1366.12 961.514 1362.16 966.567 1363.86 971.659C1364.51 973.627 1366.11 975.294 1367.14 977.062C1371.12 983.956 1357.13 985.265 1354.21 984.883C1353.15 984.744 1353.09 986.41 1354.15 986.549C1361.49 987.51 1373.42 982.962 1367.28 974.197C1362.96 968.033 1367.04 962.912 1366.24 956.416C1365.67 951.845 1360.4 949.897 1356.56 949.306C1350.91 948.439 1348.06 945.714 1345.75 940.428C1344.83 938.333 1344.27 935.697 1342.66 933.974C1338.18 929.181 1331.5 929.02 1325.38 929.397C1320.43 929.702 1316.13 929.747 1311.65 927.116C1308.92 925.517 1307.3 922.502 1304.79 920.63C1299.28 916.517 1293.68 916.152 1287.2 918.074C1280.51 920.061 1272.59 926.757 1265.78 922.849C1260.96 920.085 1260.29 913.068 1253.82 912.56C1248.26 912.122 1244.77 913.771 1241.44 918.163C1238.14 922.519 1233 926.77 1228.21 921.561C1226.41 919.608 1224.61 918.303 1222.12 917.376C1218.3 915.958 1214.59 916.968 1212.16 920.082C1210.24 922.54 1209.47 925.425 1207.22 927.73C1203.1 931.947 1201.38 929.031 1197.72 927.1C1188.64 922.301 1181.6 928.747 1179.53 937.299C1177.52 945.593 1178.56 956.012 1182.13 963.766C1182.58 964.743 1184.06 963.974 1183.61 963.003" fill="#3A8435"/>
<path d="M1351.64 991.262C1358.8 993.144 1364.36 997.086 1367.91 1003.68C1370.5 1008.49 1365.09 1011.72 1362.4 1014.82C1355.8 1022.44 1362.22 1034.53 1351.09 1038.37C1344.05 1040.8 1335.47 1038.92 1334.91 1048.5C1334.44 1056.46 1337.49 1062.75 1328.87 1068.18C1324.9 1070.68 1319.34 1070.97 1315.74 1073.98C1314.24 1075.24 1313.95 1076.61 1313.62 1078.49C1312.1 1086.94 1306.15 1089.97 1298.35 1090.9C1292.73 1091.57 1287.12 1090.61 1281.63 1092.19C1275.56 1093.93 1272.84 1100.17 1266.57 1101.92C1255.81 1104.92 1246.64 1092.95 1235.78 1093C1230.91 1093.02 1226.86 1094.46 1222.27 1092.06C1216.85 1089.22 1208.89 1084.22 1205.68 1079.11C1205.11 1078.2 1203.62 1078.96 1204.19 1079.87C1207.08 1084.47 1211.94 1087.03 1216.32 1090.03C1220.14 1092.65 1223.51 1095.43 1228.33 1095.3C1236.11 1095.09 1241.36 1094.57 1248.5 1098.47C1253.23 1101.06 1257.52 1103.58 1263.01 1103.95C1268.21 1104.31 1272.22 1101.52 1275.75 1098.08C1282.42 1091.56 1290.33 1093.37 1298.71 1092.53C1303.38 1092.06 1309.3 1090.97 1312.13 1086.69C1314.81 1082.66 1314.19 1076.44 1318.75 1074.23C1324.23 1071.57 1329.98 1070.54 1334.21 1065.87C1337.38 1062.37 1337.3 1057.54 1336.9 1053.18C1336.41 1047.8 1336.15 1043.31 1342.92 1041.65C1346.26 1040.82 1349.64 1040.62 1352.91 1039.49C1356.58 1038.23 1359.4 1034.9 1360.08 1031.16C1361.06 1025.85 1359.55 1021.97 1362.85 1016.94C1364.73 1014.07 1368.94 1011.93 1369.95 1008.51C1372.7 999.168 1359.27 991.546 1352.13 989.669C1351.09 989.397 1350.59 990.989 1351.64 991.262" fill="#3A8435"/>
<path d="M1150.33 1081.07C1168.61 1074.29 1185.92 1093.03 1199.94 1101.99C1208.25 1107.31 1217.35 1111.54 1227.08 1113.4C1236.84 1115.26 1245.65 1110.01 1255.26 1113.12C1263.47 1115.77 1269.34 1120.43 1278 1116.24C1280.67 1114.94 1282.36 1111.84 1283.9 1109.49C1288.25 1102.88 1295.32 1104.12 1302.04 1104.15C1317.64 1104.22 1324.92 1087.99 1317.71 1075.46C1317.17 1074.53 1315.69 1075.29 1316.23 1076.22C1322.35 1086.85 1317.96 1099.34 1305.36 1102.2C1298 1103.87 1291.25 1100.56 1284.81 1105.78C1282.21 1107.88 1280.89 1111.41 1278.55 1113.79C1273.16 1119.28 1264.97 1115.58 1259.35 1113.01C1251.28 1109.33 1245.55 1110.28 1237.17 1111.93C1218.49 1115.61 1199.71 1099.93 1185.62 1089.83C1175.3 1082.44 1162.53 1074.78 1149.57 1079.59C1148.56 1079.96 1149.34 1081.44 1150.33 1081.07" fill="#3A8435"/>
<path d="M1144.79 1069.52C1135.9 1058.16 1133.43 1039.8 1134.11 1025.83C1134.98 1008.14 1149.34 994.629 1159.79 981.743C1169.48 969.791 1174.58 957.733 1173.07 942.236C1172.27 934.005 1171.09 925.578 1173.82 917.567C1175.84 911.621 1181.67 908.319 1187.74 908.622C1191.51 908.808 1195.18 910.482 1198.93 910.976C1204.08 911.655 1208.11 909.146 1211.1 905.234C1216.62 898.022 1222.31 889.799 1232.65 892.997C1241.81 895.825 1250.63 906.234 1261.05 902.011C1265.27 900.297 1268.8 897.354 1272.91 895.414C1282.82 890.74 1288.51 900.823 1294.85 906.26C1298.6 909.479 1303.56 908.645 1307.9 907.589C1321.05 904.388 1324 920.36 1320.94 929.568C1320.76 930 1320.58 930.43 1320.4 930.861C1319.98 931.851 1321.57 932.332 1321.99 931.35C1325.32 923.469 1324.69 907.038 1313.36 905.609C1310.82 905.288 1308.65 905.69 1306.17 906.295C1300.09 907.774 1295.85 905.528 1291.93 900.854C1288.17 896.376 1284 892.932 1277.96 892.615C1274.06 892.41 1270.38 894.713 1267.24 896.699C1261.31 900.446 1256.65 902.364 1249.68 899.788C1239.94 896.191 1232.03 887.024 1221.12 892.356C1214.78 895.454 1212.28 901.739 1207.77 906.635C1201.27 913.697 1191.85 905.409 1184.27 907.01C1170.03 910.021 1169.86 925.364 1170.89 937.111C1171.61 945.334 1172.5 952.798 1170.13 960.892C1167.57 969.615 1161.51 977.089 1155.82 983.976C1146.16 995.668 1135.17 1007.28 1132.73 1022.86C1130.42 1037.65 1134.2 1058.68 1143.55 1070.64C1144.22 1071.49 1145.45 1070.36 1144.79 1069.52" fill="#3A8435"/>
<path d="M1229.35 1012.65C1240.43 1010.04 1249.63 1003.78 1257.61 995.817C1267.89 985.546 1272.49 971.087 1282.67 960.683C1283.42 959.918 1282.31 958.678 1281.56 959.447C1273.01 968.18 1268.09 979.405 1261.02 989.241C1253.47 999.767 1241.59 1008.05 1228.99 1011.02C1227.94 1011.27 1228.3 1012.89 1229.35 1012.65" fill="#3A8435"/>
<path d="M1258.81 994.632C1268.2 988.413 1278.68 984.154 1289.54 981.248C1297.17 979.205 1304.78 977.147 1310.74 971.689C1311.53 970.963 1310.41 969.727 1309.62 970.453C1302.45 977.02 1292.7 978.503 1283.68 981.156C1274.67 983.805 1265.86 987.975 1258.05 993.151C1257.16 993.738 1257.92 995.226 1258.81 994.632" fill="#3A8435"/>
<path d="M1276.55 985.352C1283.4 987.654 1290.42 992.209 1297.86 989.867C1298.88 989.546 1298.53 987.917 1297.5 988.239C1290.4 990.473 1283.58 985.955 1277.04 983.759C1276.02 983.415 1275.53 985.009 1276.55 985.352" fill="#3A8435"/>
<path d="M1255.55 997.133C1256.38 988.116 1255.07 979.041 1257.39 970.176C1257.66 969.142 1256.07 968.644 1255.8 969.687C1253.44 978.696 1254.73 987.903 1253.89 997.071C1253.79 998.141 1255.45 998.203 1255.55 997.133Z" fill="#3A8435"/>
<path d="M1239.41 1019.04C1250.62 1024.86 1263.4 1027.12 1275.82 1028.67C1287.34 1030.11 1301.1 1029.66 1311.23 1023.37C1312.14 1022.81 1311.38 1021.32 1310.47 1021.89C1301.03 1027.75 1288.51 1028.28 1277.72 1027.22C1265.1 1025.98 1251.65 1023.52 1240.31 1017.63C1239.36 1017.14 1238.46 1018.54 1239.41 1019.04" fill="#3A8435"/>
<path d="M1274.79 1027.77C1286.1 1021.01 1296.61 1013.99 1309.9 1011.82C1310.96 1011.65 1310.59 1010.02 1309.54 1010.2C1296.14 1012.38 1285.47 1019.45 1274.02 1026.29C1273.1 1026.84 1273.86 1028.32 1274.79 1027.77" fill="#3A8435"/>
<path d="M1289.77 1029.82C1291.76 1035.74 1297.4 1040.49 1303.38 1042.07C1304.41 1042.34 1304.91 1040.75 1303.87 1040.48C1298.51 1039.06 1293.2 1034.81 1291.4 1029.46C1291.06 1028.45 1289.43 1028.8 1289.77 1029.82" fill="#3A8435"/>
<path d="M1336.2 1000.05C1326.81 1001.08 1316.66 1001.46 1308.99 994.994C1308.18 994.31 1306.94 995.421 1307.76 996.111C1315.95 1003.02 1326.44 1002.78 1336.56 1001.68C1337.63 1001.56 1337.26 999.935 1336.2 1000.05Z" fill="#3A8435"/>
<path d="M1192.24 1026.16C1206.2 1027.26 1219.08 1033.7 1229.01 1043.47C1236.73 1051.08 1243.25 1058.9 1254.43 1060.93C1255.47 1061.12 1255.97 1059.53 1254.92 1059.34C1240.97 1056.8 1233.76 1044.47 1223.35 1036.21C1214.72 1029.38 1203.16 1025.35 1192.3 1024.49C1191.23 1024.41 1191.17 1026.07 1192.24 1026.16" fill="#3A8435"/>
<path d="M1220.57 1034.79C1236.93 1036.65 1249.98 1043.45 1261.55 1055.1C1262.31 1055.86 1263.55 1054.74 1262.79 1053.98C1250.9 1042.02 1237.45 1035.03 1220.63 1033.12C1219.57 1033 1219.51 1034.67 1220.57 1034.79Z" fill="#3A8435"/>
<path d="M1219.56 1035.17C1223.12 1047.45 1235.62 1055.08 1234.25 1068.89C1234.14 1069.96 1235.81 1070.02 1235.91 1068.95C1237.32 1054.77 1224.82 1047.37 1221.18 1034.81C1220.88 1033.78 1219.26 1034.13 1219.56 1035.17" fill="#3A8435"/>
<path d="M1229.76 1051.9C1223.79 1054.67 1221.62 1060.69 1218.2 1065.86C1217.6 1066.75 1219.01 1067.65 1219.6 1066.75C1222.84 1061.87 1224.86 1056 1230.52 1053.38C1231.5 1052.92 1230.73 1051.44 1229.76 1051.9" fill="#3A8435"/>
<path d="M1163.39 1059.43C1176.24 1052 1189.97 1058.56 1203.55 1059.58C1204.62 1059.66 1204.68 1058 1203.61 1057.92C1189.66 1056.87 1175.82 1050.32 1162.63 1057.94C1161.7 1058.48 1162.46 1059.97 1163.39 1059.43Z" fill="#3A8435"/>
<path d="M1180.13 1055.51C1184.01 1051.85 1188.63 1049.27 1193.13 1046.47C1194.04 1045.9 1193.28 1044.42 1192.37 1044.99C1187.75 1047.87 1182.99 1050.52 1179.01 1054.27C1178.23 1055.01 1179.34 1056.25 1180.13 1055.51" fill="#3A8435"/>
<path d="M1176.11 1029.86C1176.7 1018.88 1178.17 1007.99 1180.07 997.166C1180.25 996.124 1178.66 995.618 1178.48 996.677C1176.55 1007.65 1175.04 1018.67 1174.44 1029.8C1174.39 1030.88 1176.05 1030.94 1176.11 1029.86Z" fill="#3A8435"/>
<path d="M1175.44 1028.21C1169.5 1026.86 1163.01 1025.69 1158.52 1021.25C1157.75 1020.49 1156.51 1021.61 1157.28 1022.36C1162.03 1027.05 1168.66 1028.38 1174.95 1029.8C1175.99 1030.03 1176.49 1028.44 1175.44 1028.21" fill="#3A8435"/>
<path d="M1203.15 1013.21C1207.18 1006.46 1212.49 1000.23 1214.41 992.454C1216.42 984.318 1213.69 975.968 1216.77 967.939C1217.16 966.934 1215.57 966.449 1215.18 967.449C1212.81 973.613 1213.43 979.996 1213.36 986.474C1213.24 996.646 1206.69 1004.03 1201.74 1012.32C1201.19 1013.24 1202.59 1014.14 1203.15 1013.21Z" fill="#3A8435"/>
<path d="M1214.16 992.286C1222.8 986.926 1228.41 978.347 1233.61 969.841C1234.17 968.927 1232.77 968.029 1232.2 968.946C1227.17 977.173 1221.76 985.613 1213.4 990.804C1212.49 991.366 1213.25 992.851 1214.16 992.286" fill="#3A8435"/>
<path d="M1226.06 957.724C1224.55 948.389 1221.39 939.237 1221.98 929.673C1222.05 928.602 1220.38 928.537 1220.31 929.611C1219.72 939.321 1222.9 948.605 1224.43 958.087C1224.6 959.15 1226.23 958.783 1226.06 957.724Z" fill="#3A8435"/>
<path d="M1224.34 945.268C1228.2 940.319 1232.71 935.961 1236.89 931.291C1237.6 930.498 1236.49 929.255 1235.77 930.054C1231.5 934.835 1226.88 939.306 1222.93 944.373C1222.27 945.221 1223.68 946.107 1224.34 945.268" fill="#3A8435"/>
<path d="M1256.08 954.506C1255.6 946.884 1258.51 938.034 1263.47 932.218C1264.16 931.41 1263.05 930.166 1262.35 930.981C1257.08 937.163 1253.9 946.312 1254.42 954.442C1254.49 955.504 1256.15 955.581 1256.08 954.506" fill="#3A8435"/>
<path d="M1286.93 953.38C1289.9 945.448 1288.58 937.364 1286.65 929.348C1286.4 928.303 1284.77 928.663 1285.03 929.711C1286.89 937.453 1288.21 945.216 1285.33 952.891C1284.96 953.898 1286.55 954.384 1286.93 953.38" fill="#3A8435"/>
<path d="M1288.92 943.982C1293.05 939.672 1297.89 936.193 1302.91 933.001C1303.82 932.429 1303.06 930.943 1302.15 931.519C1297.01 934.784 1292.04 938.334 1287.8 942.746C1287.06 943.518 1288.18 944.758 1288.92 943.982Z" fill="#3A8435"/>
<path d="M1334.18 952.582C1334.35 948.226 1335.28 943.939 1335.25 939.572C1335.25 938.501 1333.58 938.431 1333.59 939.507C1333.61 943.877 1332.68 948.162 1332.51 952.518C1332.47 953.591 1334.13 953.658 1334.18 952.582Z" fill="#3A8435"/>
<path d="M1340.91 966.836C1345.03 965.08 1348.42 962.13 1351.95 959.451C1352.81 958.8 1351.68 957.571 1350.83 958.215C1347.41 960.811 1344.14 963.653 1340.15 965.354C1339.16 965.777 1339.93 967.256 1340.91 966.836Z" fill="#3A8435"/>
<path d="M1199.23 962.63C1193.76 957.765 1193.13 948.796 1194.81 942.091C1195.07 941.054 1193.48 940.556 1193.21 941.602C1191.41 948.825 1192.08 958.494 1197.99 963.747C1198.78 964.454 1200.03 963.341 1199.23 962.63Z" fill="#3A8435"/>
<path d="M1228.76 900.546C1232.93 908.38 1230.61 916.69 1229.75 925.002C1229.64 926.072 1231.31 926.132 1231.42 925.064C1232.31 916.413 1234.57 907.905 1230.24 899.783C1229.74 898.833 1228.25 899.597 1228.76 900.546Z" fill="#3A8435"/>
<path d="M1240.95 905.737C1238.94 909.234 1236.12 912.091 1232.55 914.006C1231.61 914.516 1232.37 915.998 1233.32 915.489C1237.12 913.443 1240.2 910.375 1242.36 906.632C1242.89 905.703 1241.49 904.803 1240.95 905.737Z" fill="#3A8435"/>
<path d="M1278.85 901.896C1276.93 910.652 1270.11 916.704 1266.84 924.859C1266.44 925.856 1268.04 926.34 1268.44 925.348C1271.72 917.166 1278.51 911.183 1280.44 902.385C1280.67 901.345 1279.08 900.845 1278.85 901.896Z" fill="#3A8435"/>
<path d="M1313.32 913.284C1311.79 917.325 1309.72 921.117 1307.93 925.04C1307.48 926.013 1309.08 926.493 1309.52 925.529C1311.31 921.606 1313.38 917.816 1314.91 913.773C1315.29 912.768 1313.69 912.282 1313.32 913.284Z" fill="#3A8435"/>
<path d="M1303.34 1075C1298.76 1075.07 1294.53 1076.22 1290.11 1077.31C1287.23 1078.03 1284.4 1078.78 1281.65 1077.26C1280.03 1076.35 1278.6 1075.33 1276.86 1074.63C1275.86 1074.22 1275.38 1075.82 1276.37 1076.22C1279.68 1077.56 1282.35 1080.55 1286.23 1079.81C1291.93 1078.73 1297.42 1076.76 1303.27 1076.67C1304.34 1076.65 1304.42 1074.99 1303.34 1075" fill="#3A8435"/>
<path d="M1212.39 1076.77C1223.64 1081.15 1235.1 1084.64 1246.21 1089.45C1254.28 1092.94 1262.69 1095.48 1271.38 1092.86C1272.4 1092.55 1272.04 1090.92 1271.01 1091.23C1261.3 1094.17 1252.14 1090.26 1243.31 1086.38C1233.38 1082 1222.98 1079.11 1212.88 1075.18C1211.88 1074.78 1211.39 1076.38 1212.39 1076.77" fill="#3A8435"/>
<path d="M1252.6 1090.52C1254.98 1087.33 1257.87 1084.75 1261.39 1082.88C1262.34 1082.38 1261.58 1080.9 1260.63 1081.4C1256.85 1083.41 1253.75 1086.21 1251.19 1089.63C1250.55 1090.49 1251.96 1091.38 1252.6 1090.52Z" fill="#3A8435"/>
<path d="M1172.64 1076.85C1176.86 1079.35 1181.31 1080.75 1186.02 1082.06C1193.16 1084.05 1197.99 1087.24 1203.47 1092.18C1211.64 1099.53 1221.41 1103.43 1232.24 1104.56C1233.31 1104.67 1233.37 1103 1232.31 1102.89C1218.62 1101.47 1209.62 1095.23 1199.59 1086.38C1192.45 1080.06 1181.58 1080.21 1173.54 1075.44C1172.61 1074.89 1171.72 1076.3 1172.64 1076.85" fill="#3A8435"/>
<path d="M1150.88 1040.77C1137.73 1032.48 1138.98 1009.73 1152.69 1003C1156.41 1001.18 1158.84 999.249 1160.45 995.396C1163.65 987.754 1164.13 982.435 1172.61 978.74C1173.6 978.31 1172.83 976.831 1171.85 977.257C1165.04 980.224 1162.18 984.169 1160.02 991.125C1158.25 996.83 1155.83 999.609 1150.6 1002.17C1147.93 1003.48 1145.92 1005.21 1144.11 1007.55C1136.49 1017.46 1139.58 1035.62 1149.98 1042.18C1150.89 1042.75 1151.79 1041.35 1150.88 1040.77Z" fill="#3A8435"/>
<path d="M107.969 188.692C97.5285 194.634 87.2838 202.526 83.7286 214.491C80.564 225.141 88.1025 234.901 95.6646 241.348C105.099 249.391 117.123 254.715 128.983 258C136.682 260.135 147.847 262.122 154.611 256.447C168.184 245.061 162.116 220.563 158.242 206.022C155.893 197.205 151.78 187.349 142.69 183.615C130.823 178.743 119.336 183.742 108.162 188.11C106.906 188.601 107.454 190.646 108.724 190.148C117.964 186.536 126.97 182.444 137.142 184.06C147.917 185.771 153.158 195.872 155.859 205.337C159.716 218.846 163.78 236.393 157.453 249.7C148.51 268.507 115.733 251.958 104.16 244.863C94.8122 239.133 85.7024 230.804 85.2356 219.13C84.7146 206.083 99.1624 196.136 109.037 190.519C110.222 189.846 109.157 188.019 107.969 188.692" fill="#3A8435"/>
<path d="M108.162 188.11C93.1355 194.064 91.6048 173.509 84.8224 165.229C84.3944 165.784 83.9665 166.339 83.5403 166.892C92.437 173.172 104.95 177.355 106.944 189.472C107.164 190.815 109.202 190.243 108.982 188.91C106.88 176.139 93.9913 171.69 84.6076 165.065C83.5538 164.321 82.6219 165.865 83.3255 166.726C90.749 175.787 92.1545 196.714 108.723 190.148C109.975 189.653 109.43 187.606 108.162 188.11" fill="#3A8435"/>
<path d="M109.279 187.414C107.024 179.65 106.651 171.449 111.495 164.578C110.887 164.578 110.28 164.578 109.67 164.578C113.795 171.349 113.636 182.299 108.175 188.32C107.259 189.327 108.751 190.827 109.668 189.815C115.777 183.082 116.134 171.126 111.495 163.511C111.058 162.792 110.123 162.868 109.67 163.511C104.521 170.809 104.839 179.708 107.241 187.975C107.62 189.281 109.66 188.724 109.279 187.414" fill="#3A8435"/>
<path d="M107.756 188.858C97.9308 197.396 83.9871 195.688 75.7856 185.846C75.63 186.434 75.4743 187.024 75.3187 187.613C80.4453 185.861 86.2654 182.493 91.8047 183.971C93.1239 184.323 93.6821 182.285 92.3662 181.933C86.2992 180.313 80.3794 183.652 74.7572 185.575C73.964 185.846 73.7694 186.715 74.2904 187.342C83.2666 198.115 98.6142 199.596 109.251 190.355C110.283 189.458 108.781 187.97 107.756 188.858" fill="#3A8435"/>
<path d="M90.8475 215.149C91.6441 216.717 93.0124 217.769 94.3723 218.822C95.4379 219.644 96.9466 218.159 95.8692 217.325C94.6548 216.387 93.3812 215.479 92.6708 214.081C92.0534 212.865 90.2301 213.936 90.8475 215.149" fill="#3A8435"/>
<path d="M107.435 203.045C109.03 204.322 110.165 205.985 111.293 207.665C112.049 208.789 113.882 207.732 113.12 206.597C111.898 204.779 110.655 202.932 108.932 201.548C107.878 200.706 106.371 202.191 107.435 203.045Z" fill="#3A8435"/>
<path d="M130.061 192.072C131.448 192.791 132.41 193.934 132.997 195.379C133.503 196.625 135.549 196.082 135.035 194.817C134.245 192.869 133.026 191.23 131.128 190.245C129.919 189.619 128.848 191.444 130.061 192.072Z" fill="#3A8435"/>
<path d="M107.541 219.083C108.734 220.455 109.965 221.798 111.597 222.65C112.803 223.279 113.874 221.454 112.665 220.822C111.188 220.054 110.114 218.828 109.037 217.586C108.142 216.556 106.652 218.06 107.541 219.083Z" fill="#3A8435"/>
<path d="M124.271 209.159C125.531 210.164 126.578 211.407 127.632 212.62C128.53 213.65 130.017 212.148 129.129 211.123C128.075 209.912 127.028 208.669 125.766 207.663C124.713 206.824 123.206 208.309 124.271 209.159" fill="#3A8435"/>
<path d="M108.128 235.061C110.368 236.817 112.426 238.793 114.669 240.55C115.73 241.379 117.237 239.894 116.163 239.053C113.923 237.299 111.865 235.324 109.624 233.566C108.565 232.734 107.054 234.221 108.128 235.061Z" fill="#3A8435"/>
<path d="M125.072 225.302C126.259 226.192 127.6 226.853 128.789 227.745C129.882 228.563 130.934 226.726 129.857 225.918C128.668 225.028 127.328 224.367 126.139 223.476C125.046 222.657 123.994 224.494 125.072 225.302" fill="#3A8435"/>
<path d="M142.122 209.07C143.335 210.861 144.659 212.559 145.728 214.445C146.4 215.63 148.226 214.565 147.553 213.378C146.486 211.492 145.161 209.794 143.947 208.002C143.188 206.881 141.356 207.938 142.122 209.07Z" fill="#3A8435"/>
<path d="M128.486 238.294C130.01 239.493 131.342 240.909 132.865 242.109C133.924 242.943 135.431 241.458 134.361 240.614C132.837 239.415 131.504 237.998 129.98 236.797C128.923 235.965 127.416 237.45 128.486 238.294Z" fill="#3A8435"/>
<path d="M141.854 224.908C143.141 226.388 144.449 227.853 145.815 229.265C146.766 230.245 148.26 228.748 147.311 227.768C145.944 226.358 144.637 224.895 143.346 223.411C142.451 222.38 140.961 223.883 141.854 224.908Z" fill="#3A8435"/>
<path d="M144.843 244.469C145.985 245.78 147.126 247.094 148.266 248.408C149.161 249.438 150.651 247.936 149.761 246.911C148.621 245.599 147.48 244.286 146.338 242.972C145.442 241.942 143.953 243.444 144.843 244.469Z" fill="#3A8435"/>
<path d="M135.202 251.246C136.677 252.016 137.753 253.244 138.829 254.483C139.727 255.513 141.215 254.011 140.324 252.986C139.132 251.616 137.902 250.273 136.27 249.419C135.062 248.79 133.993 250.613 135.202 251.246" fill="#3A8435"/>
<path d="M152.346 230.861C153.344 231.656 153.965 232.614 154.523 233.75C155.122 234.975 156.945 233.903 156.348 232.683C155.722 231.406 154.963 230.261 153.838 229.365C152.784 228.526 151.279 230.011 152.346 230.861" fill="#3A8435"/>
<path d="M142.719 193.663C144.001 195.16 145.127 196.78 146.682 198.02C147.737 198.859 149.244 197.374 148.177 196.523C146.622 195.285 145.496 193.665 144.212 192.166C143.324 191.131 141.838 192.631 142.719 193.663Z" fill="#3A8435"/>
<path d="M94.3052 230.757C95.1407 231.973 96.137 233.094 97.2939 234.014C98.3476 234.853 99.8546 233.367 98.789 232.519C97.7776 231.714 96.8643 230.757 96.1302 229.691C95.364 228.575 93.5305 229.63 94.3052 230.757Z" fill="#3A8435"/>
<path d="M107.213 188.146C104.735 185.757 102.225 183.399 99.9501 180.808C99.0485 179.783 97.5601 181.285 98.4549 182.304C100.731 184.892 103.242 187.252 105.719 189.643C106.7 190.589 108.197 189.097 107.213 188.146Z" fill="#3A8435"/>
<path d="M213.203 225.995C197.486 210.683 184.514 193.07 179.677 171.32C174.822 149.487 178.918 126.502 182.159 104.757C183.933 92.8631 185.452 80.9444 185.578 68.9032C185.639 63.0745 185.44 57.1318 184.523 51.372C184.249 49.6467 182.093 40.035 182.115 47.7585C182.123 50.6476 183.14 53.6539 183.54 56.5302C184.956 66.7128 183.648 77.2462 182.197 87.3522C180.943 96.0769 179.443 106.086 174.102 113.379C173.768 113.836 173.25 113.957 172.792 113.58C161.73 104.504 152.601 93.2234 142.024 83.6032C140.072 81.8294 138.044 80.0524 135.727 78.772C132.333 76.8955 136.419 82.5415 136.865 83.017C144.694 91.3958 153.934 98.5399 162.157 106.534C165.286 109.576 170.817 113.346 171.717 117.78C172.583 122.048 172.485 126.538 172.425 130.867C172.27 142.202 170.717 153.354 171.822 164.693C173.08 177.626 177.853 190.303 184.526 201.363C188.017 207.15 192.33 212.43 196.639 217.614C198.621 219.998 200.64 222.35 202.64 224.719C206.28 229.028 208.612 230.872 212.102 224.7C212.631 223.764 214.095 224.561 213.566 225.496C212.002 228.261 209.791 229.995 207.079 231.586C206.787 231.757 206.307 231.753 206.075 231.469C195.758 218.814 183.88 206.777 177.448 191.503C171.023 176.248 169.017 161.134 170.057 144.686C170.549 136.917 171.098 129.139 170.515 121.36C170.069 115.408 164.987 111.683 161 107.734C157.545 104.315 153.962 101.024 150.372 97.749C145.18 93.0126 139.71 88.501 134.907 83.3595C133.345 81.6889 132.398 80.4003 132.705 78.1853C133.35 73.5331 141.425 80.8626 142.321 81.6392C150.844 89.0217 158.384 97.5454 166.403 105.459C168.136 107.17 169.905 108.846 171.713 110.477C174.134 112.661 174.34 110.118 175.499 107.626C178.7 100.736 179.758 92.6606 180.828 85.2142C181.992 77.1097 182.584 68.9799 182.238 60.7918C181.988 54.884 178.972 48.3565 181.412 42.6417C181.685 42.003 182.528 42.1544 182.862 42.615C186.253 47.3063 186.659 53.3998 186.994 59.0062C187.49 67.2698 187.205 75.5457 186.491 83.7853C185.079 100.09 181.753 116.164 180.114 132.446C178.407 149.409 178.944 166.711 184.764 182.879C190.634 199.186 202.111 212.863 214.36 224.795C215.13 225.545 213.974 226.746 213.203 225.995" fill="#3A8435"/>
<path d="M165.599 105.797C170.798 97.647 170.182 87.7665 167.237 78.9067C163.703 68.2755 155.984 61.13 144.79 59.9579C134.816 58.9142 130.626 53.4738 123.785 46.5866C114.348 37.085 98.8857 37.3934 91.8035 49.2804C85.5758 59.7372 92.2959 69.167 100.202 75.8895C106.091 80.8941 110.169 84.6213 111.304 92.5846C112.897 103.75 116.8 111.025 127.352 116.236C133.444 119.245 140.569 120.036 147.173 118.628C153.123 117.36 157.491 112.075 162.513 108.999C163.428 108.437 164.28 109.871 163.362 110.432C157.963 113.741 153.762 118.227 147.627 120.232C142.749 121.827 137.076 120.984 132.227 119.783C122.215 117.304 113.144 109.968 110.718 99.7571C109.518 94.7013 109.672 89.6649 107.154 84.9501C104.261 79.5302 97.4838 76.1846 93.3836 71.6563C86.6675 64.2453 86.309 55.2493 91.3266 46.8261C96.4548 38.2188 107.027 36.5886 115.833 39.6103C120.762 41.3021 124.488 44.8197 127.978 48.5285C131.35 52.114 134.413 55.8098 139.301 57.4372C142.854 58.6195 146.974 58.4006 150.663 59.1692C169.282 63.0528 176.266 92.1716 167.063 106.594C166.487 107.496 165.02 106.703 165.599 105.797Z" fill="#3A8435"/>
<path d="M157.852 99.2224C160.387 90.0432 156.747 80.4248 153.89 71.7445C153.554 70.7228 155.159 70.2718 155.495 71.2916C158.442 80.2494 162.088 90.1421 159.472 99.617C159.186 100.653 157.566 100.258 157.852 99.2224" fill="#3A8435"/>
<path d="M153.663 100.975C143.931 102.074 132.542 101.993 125.599 94.0163C124.898 93.2116 126.049 92.0061 126.755 92.8163C133.419 100.472 144.325 100.359 153.631 99.3075C154.7 99.1879 154.721 100.854 153.663 100.975Z" fill="#3A8435"/>
<path d="M133.49 78.7841C123.997 68.8997 110.99 63.2271 103 51.8205C102.384 50.9398 103.82 50.0949 104.434 50.97C112.315 62.2202 125.276 67.8267 134.647 77.5841C135.39 78.3578 134.236 79.5606 133.49 78.7841" fill="#3A8435"/>
<path d="M132.106 79.2601C121.911 75.1388 110.175 77.7212 102.671 68.1709C102.01 67.3278 103.451 66.4875 104.106 67.3204C111.203 76.3548 123.251 73.8931 132.903 77.7952C133.899 78.1984 133.089 79.6579 132.106 79.2601" fill="#3A8435"/>
<path d="M133.545 76.4105C135.812 68.5894 129.786 62.2822 124.609 57.2588C123.838 56.5101 124.995 55.3102 125.765 56.0589C131.383 61.5108 137.605 68.383 135.164 76.8042C134.866 77.8356 133.246 77.4429 133.545 76.4105" fill="#3A8435"/>
<path d="M144.114 67.7285C145.371 72.6795 144.948 77.6587 144.73 82.7028C144.684 83.7711 143.017 83.8092 143.064 82.7334C143.276 77.8393 143.73 72.9879 142.509 68.1814C142.246 67.1423 143.849 66.6838 144.114 67.7285Z" fill="#3A8435"/>
<path d="M140.469 89.873C134.653 90.8907 128.813 89.8484 123.054 88.9367C121.99 88.7685 122.395 87.1496 123.448 87.316C128.903 88.1815 134.504 89.2328 140.016 88.2697C141.063 88.0864 141.529 89.6875 140.469 89.873Z" fill="#3A8435"/>
<path d="M152.891 100.681C150.736 106.778 144.415 113.679 137.552 113.844C136.477 113.87 136.447 112.204 137.522 112.177C143.54 112.034 149.372 105.659 151.271 100.287C151.626 99.2824 153.248 99.6684 152.891 100.681" fill="#3A8435"/>
<path d="M137.102 101.171C134.612 105.113 131.043 108.716 126.15 109.024C125.075 109.092 125.049 107.424 126.119 107.357C130.371 107.089 133.491 103.774 135.638 100.375C136.209 99.4697 137.676 100.263 137.102 101.171Z" fill="#3A8435"/>
<path d="M184.737 93.1066C193.729 90.9849 200.154 81.7993 204.313 74.1471C206.595 69.9534 208.372 65.4906 209.327 60.8092C210.927 52.9532 205.782 50.0283 200.337 46.2593C189.196 38.5467 199.753 22.61 193.693 12.4353C187.745 2.44817 173.37 0.456566 163.68 5.21352C154.162 9.88341 154.563 17.929 157.274 26.4819C158.58 30.6023 159.729 35.5119 157.646 39.6078C156.264 42.3216 154.352 44.4105 152.035 46.3832C147.661 50.1062 145.141 52.0922 148.883 58.0123C149.457 58.9211 148.023 59.7697 147.449 58.8627C142.688 51.3291 146.059 49.2926 151.898 44.3225C160.848 36.7012 155.036 28.3448 153.618 19.1335C152.461 11.6158 158.154 6.07219 164.404 3.00501C172.703 -1.0673 182.873 1.07416 190.077 6.27532C196.49 10.9073 198.439 17.8551 197.606 25.4095C197.105 29.9458 196.127 34.4957 197.139 39.0288C198.472 45.0026 205.315 46.5413 209.066 50.579C214.928 56.8892 208.892 68.8786 205.778 74.9425C201.615 83.0559 194.514 92.5103 185.191 94.7107C184.15 94.9571 183.689 93.354 184.737 93.1066" fill="#3A8435"/>
<path d="M175.788 16.8509C167.154 30.9314 169.098 50.1766 182.738 60.3554C183.598 60.9978 182.431 62.1894 181.581 61.5553C167.382 50.9577 165.345 30.6968 174.324 16.0546C174.883 15.14 176.349 15.9344 175.788 16.8509" fill="#3A8435"/>
<path d="M184.435 21.2077C182.712 28.3522 182.254 35.7148 182.977 43.0255C183.083 44.0958 181.416 44.1188 181.311 43.0561C180.573 35.6117 181.06 28.0883 182.816 20.814C183.069 19.7665 184.688 20.164 184.435 21.2077Z" fill="#3A8435"/>
<path d="M197.204 48.9467C196.394 54.5449 192.431 59.9379 187.636 62.8379C186.717 63.3932 185.865 61.9605 186.785 61.4032C191.232 58.7152 194.836 53.7296 195.585 48.5531C195.74 47.4875 197.358 47.8934 197.204 48.9467" fill="#3A8435"/>
<path d="M204.257 60.9622C200.728 68.8074 195.106 77.7255 186.502 80.5417C185.481 80.8754 185.028 79.2722 186.049 78.9375C194.207 76.2681 199.455 67.5833 202.793 60.1659C203.235 59.1827 204.695 59.9895 204.257 60.9622Z" fill="#3A8435"/>
<path d="M159.868 52.6665C162.906 62.4694 171.373 71.5994 181.662 73.6745C182.718 73.8871 182.318 75.505 181.268 75.2952C170.394 73.1006 161.472 63.4708 158.263 53.1193C157.945 52.0926 159.55 51.6398 159.868 52.6665Z" fill="#3A8435"/>
<path d="M169.931 57.3104C171.496 60.7819 171.448 64.3454 171.18 68.0722C171.103 69.1354 169.436 69.1764 169.513 68.1028C169.757 64.7187 169.926 61.3294 168.496 58.1609C168.06 57.1939 169.489 56.3303 169.931 57.3104" fill="#3A8435"/>
<path d="M177.642 32.2187C175.488 35.8 173.608 39.531 171.101 42.8887C170.46 43.7482 169.268 42.581 169.901 41.732C172.314 38.4986 174.104 34.8702 176.178 31.4223C176.731 30.5032 178.196 31.2976 177.642 32.2187Z" fill="#3A8435"/>
<path d="M191.277 29.0027C188.398 31.9891 185.519 34.9765 182.64 37.9629C181.894 38.7366 180.694 37.5799 181.44 36.8062C184.319 33.8198 187.198 30.8324 190.077 27.846C190.823 27.0723 192.023 28.2289 191.277 29.0027Z" fill="#3A8435"/>
<path d="M1130.93 594.668C1124.78 592.357 1116.4 592.014 1110.7 595.72C1106.32 598.562 1107.1 603.256 1111.02 605.926C1117.29 610.192 1134.9 605.675 1131.71 596.002C1131.37 594.992 1129.74 595.339 1130.08 596.36C1132.7 604.305 1119.17 606.554 1113.85 605.377C1111.41 604.836 1108.81 602.661 1109.4 599.897C1109.99 597.125 1113.56 595.985 1115.86 595.331C1120.47 594.022 1126.01 594.599 1130.44 596.261C1131.45 596.64 1131.93 595.045 1130.93 594.668Z" fill="#3A8435"/>
<path d="M1130.49 595.91C1126.95 597.651 1123.07 598.352 1119.23 599.139C1118.18 599.354 1118.54 600.982 1119.59 600.767C1123.57 599.951 1127.58 599.198 1131.25 597.393C1132.22 596.918 1131.45 595.438 1130.49 595.91" fill="#3A8435"/>
<path d="M1134.08 607.518C1131.44 610.697 1117.95 625.74 1124.37 629.721C1129.15 632.689 1135.06 628.595 1137.47 624.53C1140.5 619.402 1140.73 611.651 1135.78 607.69C1134.94 607.019 1134.07 608.44 1134.9 609.103C1139.72 612.965 1138.18 620.593 1135.16 625.057C1133.37 627.702 1130.56 628.812 1127.46 628.864C1125.54 628.899 1124.48 627.995 1124.62 626.083C1124.87 622.672 1127.49 619.192 1129.34 616.457C1131.15 613.782 1133.14 611.229 1135.21 608.745C1135.89 607.931 1134.76 606.693 1134.08 607.518Z" fill="#3A8435"/>
<path d="M1134.75 608.869C1133.84 612.396 1132.33 615.704 1131.02 619.095C1130.64 620.096 1132.23 620.583 1132.62 619.582C1133.92 616.193 1135.44 612.886 1136.34 609.356C1136.61 608.32 1135.02 607.823 1134.75 608.869Z" fill="#3A8435"/>
<path d="M1116.54 612.946C1110.94 613.451 1105.48 614.409 1101.4 618.547C1099.37 620.614 1097.33 623.915 1099.26 626.631C1101.55 629.844 1107.28 627.746 1109.76 626.152C1113.63 623.663 1116.71 618.997 1117.49 614.475C1117.68 613.432 1116.09 612.927 1115.9 613.987C1115.36 617.112 1113.76 619.835 1111.71 622.222C1109.37 624.943 1103.93 628.576 1100.49 625.502C1098.32 623.564 1103.02 619.213 1104.27 618.175C1107.65 615.365 1112.69 614.953 1116.89 614.574C1117.97 614.477 1117.59 612.849 1116.54 612.946" fill="#3A8435"/>
<path d="M1115.42 613.824C1113.11 615.916 1110.63 617.806 1108.33 619.9C1107.53 620.623 1108.66 621.848 1109.45 621.126C1111.76 619.032 1114.24 617.142 1116.55 615.05C1117.34 614.328 1116.21 613.103 1115.42 613.824Z" fill="#3A8435"/>
<path d="M77.5058 838.964C69.3881 843.302 59.2897 840.238 54.9514 832.119C50.6136 824.001 53.6785 813.902 61.7963 809.565C69.914 805.227 80.0129 808.292 84.3507 816.41C88.689 824.528 85.6236 834.626 77.5058 838.964" fill="#AADE81"/>
<path d="M54.8092 670.043C42.8573 674.629 33.3839 682.054 28.2618 693.984C22.569 707.239 22.98 724.225 26.7397 737.85C31.763 756.049 44.9105 770.947 53.8225 787.258C63.3282 804.654 63.8301 823.787 65.2413 843.083C66.282 857.335 67.9469 873.244 76.9652 884.918C83.8332 893.805 95.2327 896.851 105.969 896.97C129.916 897.236 155.283 885.113 170.548 866.89C183.553 851.362 185.004 831.947 171.77 816.127C164.558 807.507 154.22 801.884 144.856 795.982C132.778 788.37 122.784 779.727 117.724 766.007C113.456 754.44 114.147 740.585 112.385 728.495C110.556 715.931 106.754 703.899 100.832 692.672C91.4501 674.885 75.4189 663.46 55.0183 669.965C54.0005 670.289 54.3626 671.917 55.385 671.59C89.3067 660.774 105.824 699.859 110.406 726.608C112.924 741.326 111.849 757.362 118.063 771.187C123.896 784.159 135.312 791.986 146.995 799.293C160.432 807.697 174.836 816.803 179.032 833.162C182.754 847.666 173.883 861.73 164.04 871.506C154.196 881.282 141.888 887.509 128.754 891.563C115.797 895.563 100.806 897.518 88.1153 891.656C69.1274 882.885 67.8366 856.829 66.6023 838.871C65.9183 828.889 65.3757 818.925 63.519 809.073C61.5595 798.67 57.1133 789.345 51.7782 780.28C45.8172 770.155 38.89 760.662 33.4942 750.199C27.5672 738.708 25.4779 726.702 25.979 713.876C26.7691 693.666 36.6004 678.802 55.5947 671.513C56.5965 671.127 55.7986 669.663 54.8092 670.043" fill="#3A8435"/>
<path d="M123.631 893.388C108.106 879.064 96.9372 861.658 91.4649 841.189C86.4147 822.306 90.3436 802.821 81.668 784.86C73.0201 766.956 57.5915 753.444 49.3485 735.206C44.5448 724.581 45.1998 713.028 44.8218 701.657C44.5604 693.775 45.3822 685.516 42.4371 678.05C42.0432 677.052 40.5771 677.848 40.9671 678.835C44.6642 688.207 43.1921 700.839 43.3541 710.844C43.4978 719.643 44.5135 727.801 47.8785 735.991C55.4543 754.435 71.0655 768.085 80.1981 785.645C85.6566 796.141 86.0027 806.529 86.4186 818.064C86.7603 827.524 88.4303 836.894 91.0709 845.971C96.572 864.884 108.06 881.285 122.423 894.536C123.208 895.261 124.424 894.12 123.631 893.388" fill="#3A8435"/>
<path d="M170.237 865.778C168.029 863.853 165.379 863.462 162.707 862.183C158.165 860.006 153.893 857.343 149.804 854.418C140.372 847.666 132.935 838.313 126.496 828.789C114.239 810.662 104.348 790.747 99.5224 769.333C95.0531 749.506 95.0318 729.068 87.3929 709.963C81.1016 694.231 67.4715 680.719 53.3699 671.731C52.463 671.154 51.5889 672.573 52.4951 673.152C69.6365 684.075 83.067 700.102 89.0265 719.612C95.1851 739.78 94.8842 761.267 101.007 781.485C106.623 800.028 116.53 818.046 127.868 833.699C133.486 841.457 139.752 848.488 147.207 854.527C150.558 857.238 154.261 859.495 158.005 861.613C161.201 863.418 166.303 864.55 169.029 866.926C169.83 867.625 171.049 866.486 170.237 865.778" fill="#3A8435"/>
<path d="M56.5023 703.444C56.5573 721.006 62.8256 737.277 70.9178 752.616C71.4202 753.568 72.8895 752.781 72.3878 751.831C64.4308 736.748 58.2232 720.779 58.1689 703.508C58.1648 702.433 56.4994 702.369 56.5023 703.444Z" fill="#3A8435"/>
<path d="M74.5921 724.034C78.6183 731.682 81.4611 739.378 82.4696 747.996C82.5947 749.065 84.2195 748.685 84.0953 747.629C83.0651 738.83 80.1696 731.051 76.0621 723.248C75.5611 722.297 74.0916 723.083 74.5921 724.034Z" fill="#3A8435"/>
<path d="M81.7247 685.029C90.7198 698.27 95.297 712.709 96.8986 728.556C97.0057 729.625 98.6311 729.244 98.5243 728.19C96.9037 712.154 92.2872 697.627 83.1947 684.244C82.5976 683.364 81.122 684.142 81.7247 685.029Z" fill="#3A8435"/>
<path d="M104.639 742.266C108.005 748.161 108.584 754.648 108.629 761.314C108.638 762.387 110.303 762.453 110.296 761.377C110.249 754.439 109.611 747.613 106.109 741.481C105.577 740.55 104.105 741.333 104.639 742.266" fill="#3A8435"/>
<path d="M35.5535 711.705C37.7988 728.497 42.5621 744.043 50.4411 759.045C50.9407 759.997 52.4099 759.21 51.9111 758.26C44.1013 743.39 39.4033 727.96 37.181 711.339C37.0381 710.271 35.4127 710.65 35.5535 711.705Z" fill="#3A8435"/>
<path d="M57.5191 770.605C59.6005 775.207 62.2443 779.504 64.6451 783.941C65.1574 784.885 66.6281 784.101 66.1151 783.155C63.7143 778.719 61.0705 774.422 58.9891 769.819C58.5455 768.839 57.0788 769.631 57.5191 770.605Z" fill="#3A8435"/>
<path d="M73.7244 810.22C77.1789 818.963 74.2771 829.158 75.7893 838.356C77.3366 847.778 80.22 856.731 86.352 864.183C87.0341 865.013 88.2409 863.862 87.5604 863.036C80.5267 854.487 77.4343 842.996 76.6283 832.078C76.0559 824.338 78.1423 816.895 75.1944 809.435C74.7999 808.436 73.3344 809.233 73.7244 810.22" fill="#3A8435"/>
<path d="M97.4761 809.008C100.214 821.646 102.601 834.131 108.865 845.585C114.561 856 124.453 863.067 133.173 870.746C133.971 871.451 135.189 870.31 134.381 869.597C125.592 861.858 116.491 854.976 110.335 844.799C103.746 833.904 101.754 820.884 99.1018 808.642C98.8754 807.59 97.2497 807.96 97.4761 809.008" fill="#3A8435"/>
<path d="M111.637 829.666C114.328 833.939 116.753 838.369 119.466 842.626C120.04 843.527 121.514 842.749 120.936 841.841C118.223 837.584 115.798 833.153 113.107 828.881C112.54 827.978 111.065 828.757 111.637 829.666" fill="#3A8435"/>
<path d="M89.1701 775.798C90.4872 779.098 91.7692 782.399 92.7517 785.817C93.048 786.846 94.6737 786.483 94.3773 785.45C93.3551 781.89 92.0111 778.45 90.6401 775.013C90.2413 774.015 88.776 774.812 89.1701 775.798" fill="#3A8435"/>
<path d="M116.477 791.436C121.804 802.649 127.8 813.377 136.628 822.226C145.414 831.029 162.793 836.507 162.516 851.18C162.495 852.256 164.163 852.318 164.182 851.243C164.381 840.703 155.622 834.213 147.711 828.772C133.607 819.068 125.187 805.89 117.946 790.651C117.485 789.68 116.017 790.468 116.477 791.436" fill="#3A8435"/>
<path d="M140.462 811.322C149.237 815.198 154.485 821.328 158.99 829.627C159.503 830.572 160.973 829.787 160.46 828.841C155.712 820.094 150.176 813.804 140.947 809.726C139.964 809.293 139.492 810.893 140.462 811.322" fill="#3A8435"/>
<path d="M81.8499 755.346C83.2691 758.118 84.0281 761.058 84.3321 764.148C84.4368 765.218 86.062 764.836 85.9575 763.78C85.6396 760.546 84.8025 757.457 83.3199 754.561C82.8292 753.603 81.3605 754.391 81.8499 755.346Z" fill="#3A8435"/>
<path d="M62.1539 693.935C66.1527 697.978 69.6589 702.463 71.0617 708.073C71.3227 709.116 72.9488 708.747 72.6875 707.706C71.2111 701.809 67.5739 697.045 63.3623 692.787C62.6085 692.024 61.3971 693.169 62.1539 693.935Z" fill="#3A8435"/>
<path d="M65.4875 672.977C67.6703 674.524 69.8055 676.101 71.6915 678.009C72.4441 678.773 73.6568 677.628 72.9 676.862C70.9146 674.852 68.6594 673.187 66.3616 671.557C65.484 670.936 64.6141 672.358 65.4875 672.977Z" fill="#3A8435"/>
<path d="M51.8229 681.356C52.7469 683.909 53.5794 686.474 54.1696 689.126C54.4039 690.176 56.0295 689.806 55.7953 688.759C55.2062 686.107 54.3744 683.543 53.4486 680.99C53.0875 679.991 51.4574 680.35 51.8229 681.356Z" fill="#3A8435"/>
<path d="M36.892 694.331C36.464 696.653 36.0864 698.985 35.6566 701.307C35.4637 702.352 37.0543 702.848 37.2517 701.791C37.6815 699.469 38.0597 697.139 38.4888 694.816C38.6812 693.769 37.0876 693.274 36.892 694.331" fill="#3A8435"/>
<path d="M31.3781 728.374C32.219 730.847 33.1118 733.307 34.3186 735.628C34.8152 736.583 36.2846 735.796 35.7886 734.842C34.6503 732.653 33.7978 730.342 33.0038 728.007C32.6616 726.999 31.0334 727.358 31.3781 728.374" fill="#3A8435"/>
<path d="M110.633 772.902C112.127 775.587 114.155 777.916 115.648 780.6C116.171 781.539 117.641 780.754 117.118 779.814C115.625 777.13 113.597 774.802 112.103 772.117C111.581 771.179 110.11 771.962 110.633 772.902Z" fill="#3A8435"/>
<path d="M95.6216 832.558C97.316 838.273 98.676 844.079 100.715 849.689C101.076 850.687 102.705 850.33 102.34 849.322C100.302 843.714 98.9417 837.906 97.2473 832.191C96.9437 831.165 95.3163 831.528 95.6216 832.558" fill="#3A8435"/>
<path d="M130.607 795.867C132.123 797.791 133.872 799.51 135.388 801.434C136.051 802.278 137.256 801.125 136.596 800.286C135.082 798.362 133.331 796.643 131.816 794.72C131.152 793.875 129.947 795.029 130.607 795.867Z" fill="#3A8435"/>
<path d="M73.1468 788.873C75.4015 793.098 77.5044 797.305 78.4155 802.049C78.6189 803.106 80.2433 802.734 80.0412 801.682C79.1021 796.793 76.9432 792.447 74.6168 788.088C74.1102 787.139 72.6402 787.925 73.1468 788.873" fill="#3A8435"/>
<path d="M68.9561 827.406C69.9404 832.507 70.775 837.603 70.9614 842.804C71.0006 843.873 72.666 843.94 72.6291 842.866C72.4354 837.525 71.5937 832.283 70.5818 827.039C70.3778 825.981 68.7529 826.355 68.9561 827.406Z" fill="#3A8435"/>
<path d="M1128.98 676.403C1146.22 650.959 1165.26 626.654 1183.77 602.126C1192.89 590.028 1201.82 577.778 1209.35 564.599C1212.49 559.089 1215.34 553.363 1217.61 547.437C1219.06 543.682 1220.05 539.747 1221.38 535.951C1223.06 531.175 1226.92 535.051 1229.86 536.533C1233.86 538.551 1233.23 539.828 1231.89 543.827C1230.87 546.878 1229.39 549.787 1227.96 552.657C1225.16 558.245 1221.89 563.58 1219.18 569.215C1212.63 582.877 1204.24 595.404 1194.87 607.285C1185.17 619.605 1175.6 632.034 1165.65 644.163C1160.93 649.929 1156.07 655.589 1151.11 661.156C1148.52 664.068 1134.37 683.001 1130.19 676.416C1129.62 675.508 1128.32 676.557 1128.89 677.456C1130.41 679.846 1132.61 682.049 1135.39 679.758C1141.63 674.606 1147.05 668.148 1152.45 662.153C1165.19 648.019 1176.89 632.972 1188.6 617.992C1199.12 604.536 1209.5 591.209 1217.59 576.104C1221.01 569.72 1224.18 563.209 1227.63 556.837C1230.9 550.806 1234.09 544.541 1235.13 537.695C1235.18 537.333 1234.95 536.958 1234.61 536.829C1230.43 535.199 1226.77 532.625 1222.79 530.572C1222.37 530.354 1221.89 530.655 1221.71 531.035C1218.96 536.843 1217.49 543.097 1215.2 549.084C1212.43 556.291 1208.38 563.149 1204.41 569.73C1196.98 582.034 1188.2 593.495 1179.55 604.95C1161.98 628.196 1143.99 651.281 1127.65 675.406C1127.04 676.294 1128.38 677.293 1128.98 676.403" fill="#3A8435"/>
<path d="M1223.7 531.93C1224.26 524.727 1226.93 518.197 1230.75 512.129C1230.31 512.136 1229.87 512.142 1229.43 512.15C1233.23 518.368 1229.66 528.483 1228.82 535.191C1228.68 536.259 1230.34 536.445 1230.47 535.378C1231.4 528.043 1234.92 517.964 1230.73 511.11C1230.46 510.667 1229.68 510.71 1229.41 511.131C1225.44 517.439 1222.62 524.259 1222.05 531.742C1221.97 532.812 1223.62 533.003 1223.7 531.93" fill="#3A8435"/>
<path d="M1230.42 535.595C1233.08 529.379 1237.57 521.117 1244.44 518.897C1244.06 518.686 1243.67 518.475 1243.28 518.264C1243.86 523.903 1239.81 535.891 1233.91 537.837C1232.89 538.174 1233.57 539.696 1234.58 539.363C1238.14 538.189 1240.16 534.15 1241.71 531.022C1243.6 527.203 1245.38 522.343 1244.93 518.005C1244.87 517.425 1244.25 517.217 1243.77 517.372C1236.44 519.74 1231.71 528.339 1228.87 534.975C1228.44 535.965 1229.99 536.582 1230.42 535.595" fill="#3A8435"/>
<path d="M1232.61 515.47C1233.73 513.923 1234.85 512.378 1236.08 510.908C1237.06 509.736 1239.35 506.812 1241.2 507.421C1243.78 508.268 1240.25 517.544 1239.99 519.458C1239.84 520.525 1241.5 520.709 1241.64 519.646C1242.05 516.704 1243.08 513.872 1243.56 510.938C1243.89 508.903 1243.8 506.95 1241.82 505.873C1237.97 503.781 1232.93 512.185 1231.27 514.472C1230.64 515.342 1231.97 516.339 1232.61 515.47" fill="#3A8435"/>
<path d="M1231.4 511.33C1232.21 505.904 1235.71 501.115 1239.86 497.674C1239.46 497.629 1239.07 497.585 1238.68 497.541C1240.54 499.655 1240.57 502.071 1240.31 504.735C1240.2 505.804 1241.86 505.993 1241.96 504.922C1242.27 501.815 1242.12 498.939 1239.99 496.501C1239.69 496.166 1239.18 496.069 1238.82 496.369C1234.32 500.103 1230.62 505.27 1229.74 511.143C1229.58 512.208 1231.24 512.391 1231.4 511.33" fill="#3A8435"/>
<path d="M1242.09 506.703C1244.67 503.908 1247.39 501.416 1250.66 499.473C1250.28 499.261 1249.89 499.051 1249.5 498.84C1250.1 504.769 1248.43 512.775 1244.08 517.091C1243.32 517.84 1244.35 519.152 1245.12 518.396C1249.93 513.621 1251.82 505.157 1251.15 498.58C1251.1 498.086 1250.44 497.678 1249.99 497.947C1246.47 500.037 1243.52 502.702 1240.76 505.705C1240.03 506.498 1241.38 507.484 1242.09 506.703" fill="#3A8435"/>
<path d="M1241.72 498.161C1244.12 495.162 1246.64 492.372 1250.29 490.932C1249.9 490.647 1249.51 490.362 1249.12 490.076C1248.69 493.59 1247.86 496.982 1246.65 500.309C1246.29 501.318 1247.83 501.938 1248.2 500.929C1249.46 497.465 1250.33 493.924 1250.78 490.263C1250.86 489.616 1250.19 489.18 1249.61 489.407C1245.71 490.95 1242.96 493.95 1240.39 497.163C1239.71 498.005 1241.05 498.996 1241.72 498.161" fill="#3A8435"/>
<path d="M1223.16 532.54C1221.94 528.332 1222.9 523.231 1223.62 519.012C1224.04 516.597 1224.62 514.196 1225.51 511.913C1226.8 508.634 1227.9 510.22 1228.78 512.8C1229.12 513.816 1230.65 513.136 1230.3 512.125C1228.46 506.699 1225.34 507.419 1223.55 512.388C1221.48 518.175 1219.75 526.742 1221.51 532.799C1221.81 533.818 1223.46 533.572 1223.16 532.54Z" fill="#3A8435"/>
<path d="M1234.77 539.357C1243.29 537.379 1250.9 529.539 1252.24 520.844C1252.29 520.507 1252.07 520.074 1251.72 519.977C1249.05 519.22 1246.41 518.538 1243.66 518.14C1242.59 517.986 1242.41 519.642 1243.47 519.796C1244.53 519.921 1245.59 520.102 1246.63 520.339C1249.59 520.929 1250.8 520.707 1249.92 523.559C1249.26 525.682 1248.01 527.579 1246.71 529.353C1243.79 533.329 1239.34 536.59 1234.51 537.711C1233.47 537.952 1233.72 539.601 1234.77 539.357Z" fill="#3A8435"/>
<path d="M1230.02 511.4C1229.71 506.362 1230.88 501.027 1232.69 496.351C1233.29 494.802 1234.36 491.929 1236.22 491.493C1238.43 490.97 1239.88 496.695 1240.29 497.999C1240.61 499.023 1242.13 498.34 1241.81 497.325C1241.04 494.83 1240 490.986 1237.22 489.948C1235.36 489.25 1233.75 491.01 1232.83 492.371C1229.31 497.551 1228 505.523 1228.37 511.659C1228.44 512.731 1230.08 512.464 1230.02 511.4" fill="#3A8435"/>
<path d="M1245.67 519.93C1252.76 516.134 1256.86 508.886 1260.17 501.836C1260.4 501.355 1260.01 500.737 1259.49 500.698C1256.34 500.465 1253.33 500.841 1250.24 501.471C1249.19 501.684 1249.44 503.332 1250.5 503.117C1253.44 502.519 1256.29 502.131 1259.31 502.354C1259.08 501.975 1258.85 501.596 1258.63 501.216C1255.52 507.83 1251.67 514.835 1244.99 518.405C1244.05 518.909 1244.72 520.439 1245.67 519.93" fill="#3A8435"/>
<path d="M1241.64 495.939C1241.8 491.59 1244.31 487.116 1247.49 484.223C1247.85 483.893 1249.75 482.205 1250.23 483.057C1250.63 483.75 1250.48 484.741 1250.4 485.488C1250.2 487.282 1249.64 489.036 1249.08 490.744C1248.74 491.76 1250.29 492.384 1250.62 491.364C1251.47 488.79 1252.86 485.239 1251.82 482.52C1251.15 480.756 1249.16 481.08 1247.87 481.864C1243.48 484.524 1240.17 490.695 1239.98 495.752C1239.94 496.82 1241.6 497.015 1241.64 495.939" fill="#3A8435"/>
<path d="M1249.75 491.766C1252.59 490.237 1255.21 488.404 1258.29 487.365C1257.91 487.08 1257.52 486.795 1257.13 486.509C1256.91 491.521 1255.5 496.407 1253.46 500.965C1253.01 501.948 1254.56 502.563 1255 501.586C1257.11 496.908 1258.56 491.839 1258.79 486.696C1258.82 486.033 1258.24 485.632 1257.62 485.84C1254.54 486.88 1251.92 488.713 1249.07 490.241C1248.13 490.746 1248.8 492.276 1249.75 491.766" fill="#3A8435"/>
<path d="M1251.62 481.836C1252.68 480.444 1255.04 476.377 1256.85 476.581C1256.61 476.275 1256.36 475.967 1256.12 475.66C1256.18 479.217 1255.76 482.779 1255.36 486.309C1255.24 487.377 1256.9 487.564 1257.02 486.496C1257.42 482.967 1257.84 479.404 1257.77 475.847C1257.77 475.393 1257.54 474.981 1257.04 474.925C1254.18 474.602 1251.82 478.835 1250.28 480.838C1249.62 481.692 1250.96 482.686 1251.62 481.836" fill="#3A8435"/>
<path d="M1218.89 541.614C1220.36 542.552 1222.08 543.312 1223.24 544.659C1223.34 544.231 1223.45 543.803 1223.55 543.376C1221.27 544.391 1219.03 545.499 1216.81 546.639C1215.86 547.129 1216.52 548.657 1217.48 548.164C1219.7 547.024 1221.94 545.917 1224.23 544.901C1224.7 544.689 1224.89 544.029 1224.54 543.619C1223.27 542.144 1221.5 541.306 1219.88 540.277C1218.98 539.704 1217.98 541.038 1218.89 541.614" fill="#3A8435"/>
<path d="M1223.14 563.088C1222.83 562.171 1222.41 561.293 1222.05 560.396C1221.76 559.675 1221.02 558.149 1221.48 557.377C1221.74 556.947 1223.68 557.388 1224.08 557.445C1224.9 557.562 1225.71 557.748 1226.53 557.856C1227.6 557.996 1227.78 556.34 1226.72 556.2C1224.84 555.952 1221.65 554.714 1220.15 556.38C1218.53 558.183 1221.02 561.992 1221.62 563.763C1221.96 564.779 1223.48 564.099 1223.14 563.088Z" fill="#3A8435"/>
<path d="M1203.02 573.701C1205.34 575.086 1208.07 575.243 1210.71 575.158C1211.16 575.143 1211.47 574.61 1211.4 574.205C1210.99 571.828 1209.41 569.93 1208.7 567.661C1208.38 566.637 1206.86 567.319 1207.18 568.336C1207.84 570.457 1209.37 572.249 1209.76 574.464C1209.99 574.147 1210.22 573.829 1210.45 573.512C1208.31 573.58 1205.9 573.491 1204.01 572.364C1203.1 571.818 1202.09 573.15 1203.02 573.701" fill="#3A8435"/>
<path d="M1211.17 585.887C1210.73 584.682 1210.14 583.33 1210.22 582.019C1210.29 580.681 1212.3 581.055 1213.16 581.168C1214.23 581.31 1214.41 579.653 1213.35 579.512C1211.67 579.289 1209.47 579.229 1208.72 581.09C1208.05 582.764 1209.08 585.005 1209.65 586.562C1210.01 587.57 1211.54 586.895 1211.17 585.887" fill="#3A8435"/>
<path d="M1188.9 595C1191.06 596.202 1193.29 597.01 1195.72 597.478C1196.05 597.543 1196.49 597.292 1196.59 596.96C1197.45 594.033 1195.4 590.534 1194.16 587.989C1193.69 587.027 1192.16 587.694 1192.64 588.664C1193.18 589.774 1193.7 590.892 1194.17 592.037C1194.67 593.259 1195.44 594.998 1195.04 596.34C1195.33 596.167 1195.62 595.996 1195.91 595.822C1193.62 595.382 1191.55 594.58 1189.52 593.453C1188.58 592.931 1187.97 594.486 1188.9 595" fill="#3A8435"/>
<path d="M1194.35 609.344C1193.91 607.726 1192.67 605.542 1193.13 603.844C1193.44 602.732 1197.38 603.814 1198.1 604.091C1199.11 604.478 1199.72 602.929 1198.72 602.545C1196.95 601.864 1193.62 601.059 1192.04 602.507C1190.28 604.116 1192.22 607.813 1192.7 609.604C1192.98 610.63 1194.63 610.383 1194.35 609.344" fill="#3A8435"/>
<path d="M1170.92 618.714C1172.77 619.944 1175.99 621.101 1178 619.648C1180.29 617.995 1177.39 613.949 1176.93 612.072C1176.68 611.037 1175.03 611.285 1175.28 612.332C1175.52 613.298 1175.93 614.203 1176.31 615.117C1176.65 615.931 1177.4 617.28 1177.09 618.183C1176.82 618.942 1175.14 618.579 1174.62 618.479C1173.68 618.302 1172.71 617.906 1171.92 617.377C1171.03 616.784 1170.03 618.117 1170.92 618.714Z" fill="#3A8435"/>
<path d="M1171.2 638.561C1170.62 637.796 1170.19 636.916 1169.8 636.041C1169.54 635.449 1168.77 633.925 1169.16 633.267C1169.08 633.407 1168.95 633.361 1169.26 633.332C1169.46 633.312 1169.69 633.361 1169.89 633.384C1170.43 633.445 1170.97 633.568 1171.49 633.691C1172.35 633.889 1173.2 634.146 1174.04 634.414C1175.06 634.739 1175.69 633.192 1174.66 632.867C1173.5 632.495 1172.32 632.169 1171.13 631.91C1170.07 631.679 1168.64 631.349 1167.83 632.272C1167 633.206 1167.61 634.925 1167.96 635.916C1168.41 637.203 1169.07 638.513 1169.9 639.602C1170.55 640.456 1171.86 639.416 1171.2 638.561" fill="#3A8435"/>
<path d="M1134.09 694.452C1156.32 670.311 1180.39 647.819 1203.71 624.74C1213.66 614.892 1223.31 604.737 1231.81 593.596C1235.94 588.184 1239.64 582.505 1242.66 576.406C1243.37 574.961 1247.22 565.43 1248.96 566.676C1251.57 568.544 1253.88 570.781 1256.54 572.6C1260.91 575.585 1241.68 598.096 1239.14 601.83C1230.18 615.047 1219.37 626.564 1207.78 637.496C1196.66 647.974 1185.64 658.549 1174.29 668.78C1168.3 674.182 1162.18 679.439 1155.94 684.555C1152.83 687.116 1149.65 689.6 1146.45 692.059C1143.91 694.006 1137.83 700.675 1135.24 694.819C1134.8 693.837 1133.28 694.509 1133.72 695.493C1135.05 698.518 1136.43 700.151 1139.76 698.854C1146.6 696.195 1153.25 688.923 1158.85 684.323C1173.17 672.566 1186.64 659.796 1200.09 647.06C1212.41 635.39 1224.71 623.909 1235.07 610.4C1239.94 604.051 1244.41 597.388 1249.23 590.992C1253.35 585.531 1257.46 579.791 1259.5 573.192C1259.65 572.714 1259.46 572.345 1259.04 572.108C1255.17 569.935 1252.05 566.838 1248.47 564.275C1248.11 564.021 1247.56 564.062 1247.3 564.444C1243.69 569.77 1241.36 575.754 1238.19 581.329C1234.81 587.249 1230.48 592.724 1226.23 598.019C1217.04 609.447 1206.48 619.727 1196.03 629.975C1174.72 650.868 1152.97 671.497 1132.75 693.455C1132.02 694.247 1133.37 695.235 1134.09 694.452Z" fill="#3A8435"/>
<path d="M1249.11 565.581C1250.74 558.554 1254.41 552.5 1259.07 547.07C1258.59 547.017 1258.12 546.963 1257.64 546.909C1260.5 553.737 1255.56 562.974 1253.69 569.59C1253.4 570.615 1254.95 571.243 1255.24 570.21C1257.23 563.155 1262.24 553.577 1259.16 546.234C1258.91 545.626 1258.13 545.615 1257.73 546.073C1252.86 551.754 1249.15 558.054 1247.46 565.393C1247.21 566.44 1248.87 566.615 1249.11 565.581" fill="#3A8435"/>
<path d="M1255.13 570.4C1258.68 564.643 1264.31 557.064 1271.44 555.905C1271.12 555.599 1270.8 555.294 1270.48 554.987C1270.32 558.634 1268.3 562.236 1266.46 565.285C1264.73 568.164 1261.98 572.432 1258.39 573.037C1257.34 573.216 1257.59 574.863 1258.65 574.683C1262.51 574.033 1265.25 570.118 1267.27 567.112C1269.57 563.695 1271.95 559.382 1272.14 555.175C1272.16 554.642 1271.74 554.167 1271.18 554.259C1263.58 555.492 1257.58 563.273 1253.8 569.402C1253.24 570.311 1254.57 571.312 1255.13 570.4" fill="#3A8435"/>
<path d="M1260.27 550.803C1261.56 549.486 1262.85 548.169 1264.23 546.936C1265.58 545.721 1267.54 543.864 1269.49 543.889C1272.61 543.929 1267.51 554.193 1267.07 555.687C1266.77 556.71 1268.31 557.337 1268.62 556.307C1269.45 553.458 1270.9 550.813 1271.81 547.979C1272.41 546.077 1272.73 544.062 1270.98 542.69C1267.43 539.912 1261.26 547.437 1259.23 549.498C1258.48 550.255 1259.51 551.567 1260.27 550.803" fill="#3A8435"/>
<path d="M1259.72 546.566C1261.31 541.328 1265.44 537.04 1270.06 534.257C1269.73 534.175 1269.4 534.095 1269.07 534.015C1270.57 536.358 1270.15 538.853 1269.52 541.391C1269.26 542.431 1270.92 542.605 1271.17 541.578C1271.94 538.49 1272.14 535.727 1270.37 532.975C1270.19 532.692 1269.68 532.555 1269.38 532.731C1264.41 535.731 1259.89 540.278 1258.17 545.945C1257.86 546.968 1259.41 547.593 1259.72 546.566" fill="#3A8435"/>
<path d="M1270.95 543.538C1273.95 541.116 1277.09 539.017 1280.68 537.557C1280.29 537.27 1279.9 536.985 1279.51 536.701C1279.23 542.741 1276.36 550.454 1271.33 554.117C1270.46 554.752 1271.51 556.052 1272.37 555.421C1277.76 551.491 1280.87 543.369 1281.17 536.888C1281.2 536.254 1280.61 535.783 1280 536.032C1276.28 537.549 1273.03 539.717 1269.91 542.233C1269.07 542.91 1270.11 544.212 1270.95 543.538" fill="#3A8435"/>
<path d="M1271.84 535.036C1274.64 532.443 1277.56 529.995 1281.36 529.116C1281.06 528.738 1280.76 528.361 1280.46 527.983C1279.49 531.465 1278.14 534.77 1276.41 537.943C1275.9 538.887 1277.46 539.496 1277.96 538.563C1279.69 535.39 1281.04 532.085 1282 528.603C1282.16 528.048 1281.79 527.311 1281.1 527.47C1276.99 528.419 1273.84 530.919 1270.8 533.731C1270.02 534.458 1271.05 535.766 1271.84 535.036" fill="#3A8435"/>
<path d="M1248.45 566.101C1247.85 561.709 1249.66 556.668 1251.04 552.583C1251.8 550.344 1252.69 548.11 1253.9 546.074C1255.62 543.173 1256.44 544.787 1256.92 547.445C1257.11 548.499 1258.76 548.246 1258.57 547.185C1258.28 545.577 1257.85 542.635 1255.72 542.498C1253.87 542.379 1252.62 544.94 1251.9 546.24C1248.92 551.638 1245.95 560.093 1246.8 566.361C1246.94 567.425 1248.59 567.167 1248.45 566.101" fill="#3A8435"/>
<path d="M1259.06 574.677C1267.65 574.008 1276.37 567.335 1278.92 559.063C1279.06 558.613 1278.9 558.177 1278.46 557.979C1276 556.865 1273.55 555.82 1270.96 555.053C1269.94 554.75 1269.31 556.296 1270.34 556.599C1272.93 557.366 1275.38 558.411 1277.84 559.525C1277.68 559.165 1277.53 558.802 1277.37 558.443C1274.98 566.205 1266.86 572.402 1258.8 573.031C1257.73 573.114 1257.99 574.762 1259.06 574.677" fill="#3A8435"/>
<path d="M1258.37 546.434C1258.82 541.285 1260.79 535.991 1263.41 531.56C1264.18 530.253 1265.7 527.595 1267.47 527.562C1269.77 527.519 1270.29 533.102 1270.5 534.513C1270.66 535.574 1272.31 535.318 1272.15 534.254C1271.76 531.716 1271.31 527.726 1268.81 526.263C1266.99 525.201 1265.17 526.663 1263.96 527.947C1259.73 532.46 1257.24 540.192 1256.72 546.247C1256.62 547.317 1258.28 547.507 1258.37 546.434" fill="#3A8435"/>
<path d="M1272.7 557.048C1280.18 554.404 1285.31 547.801 1289.56 541.423C1289.94 540.858 1289.61 540.239 1288.99 540.095C1285.91 539.385 1282.86 539.354 1279.72 539.521C1278.65 539.578 1278.92 541.224 1279.98 541.167C1282.98 541.008 1285.86 541.072 1288.8 541.751C1288.61 541.31 1288.42 540.867 1288.23 540.425C1284.13 546.585 1279.25 552.967 1272.03 555.522C1271.02 555.881 1271.69 557.405 1272.7 557.048" fill="#3A8435"/>
<path d="M1272.18 532.646C1272.98 528.381 1276.2 524.398 1279.73 522.009C1280.2 521.697 1282.33 520.323 1282.61 521.441C1283.19 523.715 1281.19 526.944 1280.23 528.842C1279.74 529.804 1281.3 530.413 1281.78 529.462C1282.92 527.197 1285.08 523.508 1284.16 520.813C1283.56 519.092 1281.72 519.224 1280.32 519.796C1275.55 521.75 1271.45 527.517 1270.53 532.458C1270.33 533.515 1271.98 533.694 1272.18 532.646Z" fill="#3A8435"/>
<path d="M1280.91 529.8C1283.88 528.734 1286.68 527.334 1289.81 526.774C1289.49 526.468 1289.17 526.164 1288.85 525.858C1287.92 530.689 1285.8 535.288 1283.15 539.411C1282.57 540.31 1283.9 541.312 1284.49 540.409C1287.31 536.022 1289.52 531.183 1290.51 526.045C1290.61 525.513 1290.06 525.038 1289.55 525.128C1286.28 525.712 1283.34 527.16 1280.24 528.275C1279.23 528.638 1279.9 530.161 1280.91 529.8" fill="#3A8435"/>
<path d="M1284.05 520.357C1285.16 519.282 1286.28 518.224 1287.47 517.231C1288.29 516.54 1289.01 515.587 1289.98 515.847C1289.8 515.557 1289.63 515.269 1289.46 514.979C1289 518.434 1288.09 521.821 1287.19 525.182C1286.91 526.208 1288.46 526.838 1288.74 525.802C1289.67 522.3 1290.64 518.766 1291.12 515.166C1291.16 514.833 1290.95 514.393 1290.6 514.3C1289.55 514.017 1289.25 513.985 1288.27 514.585C1286.31 515.781 1284.65 517.469 1283.01 519.054C1282.24 519.795 1283.27 521.104 1284.05 520.357" fill="#3A8435"/>
<path d="M1242.98 574.647C1244.32 575.804 1245.85 576.806 1246.81 578.323C1246.99 577.876 1247.16 577.427 1247.33 576.98C1244.86 577.666 1242.41 578.448 1239.97 579.269C1238.96 579.613 1239.64 581.136 1240.65 580.796C1242.95 580.019 1245.25 579.274 1247.59 578.626C1248.23 578.451 1248.47 577.847 1248.12 577.283C1247.08 575.653 1245.42 574.558 1243.98 573.311C1243.17 572.606 1242.18 573.948 1242.98 574.647" fill="#3A8435"/>
<path d="M1243.94 596.523C1243.62 594.77 1242.5 592.579 1243 590.789C1243.27 589.811 1247.2 591.514 1247.95 591.73C1248.97 592.024 1249.6 590.478 1248.57 590.183C1246.82 589.681 1243.7 587.919 1242.02 589.29C1240.08 590.88 1241.94 594.864 1242.29 596.782C1242.48 597.837 1244.12 597.583 1243.94 596.523" fill="#3A8435"/>
<path d="M1222.53 604.028C1224.53 605.675 1227.22 606.228 1229.73 606.521C1230.32 606.591 1230.66 606.094 1230.65 605.564C1230.59 603.231 1229.33 601.18 1228.98 598.907C1228.82 597.846 1227.17 598.103 1227.33 599.167C1227.68 601.439 1228.95 603.496 1229 605.823C1229.31 605.505 1229.61 605.185 1229.92 604.865C1227.68 604.605 1225.31 604.159 1223.53 602.691C1222.7 602.007 1221.71 603.348 1222.53 604.028" fill="#3A8435"/>
<path d="M1228.72 617.299C1228.46 616.022 1228.12 614.665 1228.3 613.357C1228.49 611.957 1230.4 612.552 1231.27 612.804C1232.29 613.101 1232.92 611.556 1231.89 611.257C1230.33 610.806 1228.12 610.319 1227.07 611.966C1226.07 613.534 1226.73 615.892 1227.07 617.559C1227.29 618.606 1228.93 618.354 1228.72 617.299" fill="#3A8435"/>
<path d="M1205.25 622.867C1207.2 624.371 1209.28 625.527 1211.6 626.349C1212.05 626.507 1212.49 626.311 1212.69 625.887C1213.96 623.149 1212.36 619.314 1211.52 616.648C1211.2 615.625 1209.68 616.308 1210 617.322C1210.69 619.506 1212.18 623.025 1211.14 625.265C1211.5 625.111 1211.86 624.956 1212.22 624.802C1210.03 624.027 1208.09 622.951 1206.24 621.531C1205.39 620.873 1204.4 622.213 1205.25 622.867Z" fill="#3A8435"/>
<path d="M1208.57 637.79C1208.38 636.088 1207.63 634.051 1208.17 632.365C1208.54 631.238 1212.33 632.841 1213 633.223C1213.92 633.745 1214.93 632.413 1214 631.886C1212.23 630.889 1209.1 629.608 1207.22 630.879C1206.28 631.511 1206.35 633.127 1206.39 634.09C1206.44 635.424 1206.78 636.727 1206.93 638.049C1207.05 639.116 1208.7 638.855 1208.57 637.79" fill="#3A8435"/>
<path d="M1184.12 643.79C1185.63 645.157 1188.97 646.999 1190.97 645.627C1193.31 644.015 1191.14 640.055 1190.95 637.907C1190.85 636.836 1189.2 637.099 1189.3 638.167C1189.38 639.081 1189.65 639.97 1189.87 640.859C1190.1 641.788 1190.55 643.052 1190.26 644.007C1189.77 645.603 1185.7 642.978 1185.12 642.452C1184.32 641.731 1183.33 643.076 1184.12 643.79" fill="#3A8435"/>
<path d="M1181.41 663.459C1180.64 662.058 1179.53 659.45 1180.12 657.858C1180.14 657.817 1182.06 658.483 1182.42 658.63C1183.26 658.967 1184.09 659.352 1184.9 659.752C1185.87 660.227 1186.48 658.674 1185.52 658.205C1184.44 657.675 1183.35 657.182 1182.22 656.765C1181.29 656.42 1179.89 655.86 1179.02 656.604C1178.06 657.425 1178.33 659.094 1178.53 660.171C1178.78 661.515 1179.22 662.931 1179.89 664.134C1180.4 665.067 1181.93 664.403 1181.41 663.459" fill="#3A8435"/>
<path d="M120.955 296.228C104.805 298.188 86.8508 306.571 81.0388 322.84C80.8855 323.271 81.2081 323.749 81.6215 323.865C90.9095 326.477 102.481 323.169 110.699 318.805C115.088 316.473 118.333 313.268 121.156 309.221C123.093 306.447 127.565 300.291 127.565 296.84C127.565 296.379 127.187 296.016 126.732 296.007C124.787 295.965 122.896 296.121 120.955 296.228C119.885 296.287 119.88 297.953 120.955 297.895C121.133 297.885 125.744 297.184 125.224 298.235C124.385 299.932 123.546 301.625 122.68 303.308C120.636 307.275 118.177 310.93 114.925 314.004C107.857 320.687 96.2041 322.872 86.8215 323.001C82.4508 323.063 83.0588 321.78 84.6082 318.771C85.6255 316.792 87.0801 315.013 88.5121 313.339C91.1855 310.212 94.6068 307.78 98.0695 305.615C104.911 301.335 112.981 298.863 120.955 297.895C122.008 297.768 122.02 296.1 120.955 296.228" fill="#3A8435"/>
<path d="M124.587 297.361C118.199 302.518 111.396 306.966 104.279 311.043C97.3897 314.99 90.3617 320.372 82.511 322.037C81.4604 322.26 81.9057 323.866 82.9537 323.643C90.4444 322.054 96.5377 317.184 103.146 313.585C111.123 309.239 118.698 304.245 125.766 298.541C126.602 297.865 125.415 296.693 124.587 297.361" fill="#3A8435"/>
<path d="M86.4322 319.651C93.2629 313.493 100.079 307.278 108.486 303.337C109.459 302.881 108.612 301.444 107.646 301.897C99.1082 305.899 92.1896 312.22 85.2536 318.472C84.4536 319.193 85.6362 320.369 86.4322 319.651" fill="#3A8435"/>
<path d="M101.152 318.67C105.988 316.506 110.096 313.385 114.211 310.097C115.05 309.425 113.863 308.254 113.032 308.917C109.023 312.122 105.02 315.123 100.312 317.23C99.3322 317.669 100.18 319.106 101.152 318.67Z" fill="#3A8435"/>
<path d="M111.819 304.226C113.892 303.326 116.044 302.631 118.041 301.56C118.988 301.051 118.148 299.611 117.201 300.119C115.205 301.191 113.049 301.886 110.979 302.786C109.995 303.215 110.844 304.65 111.819 304.226" fill="#3A8435"/>
<path d="M141.213 302.028C127.763 311.045 115.545 326.523 117.616 343.592C117.684 344.153 118.093 344.508 118.671 344.394C127.629 342.639 136.115 335.065 141.452 327.977C144.408 324.052 146.537 319.599 147.136 314.688C147.599 310.896 149.184 303.025 147.411 299.524C147.193 299.096 146.659 299.038 146.269 299.224C144.515 300.065 142.899 301.056 141.213 302.028C140.283 302.564 141.123 304.005 142.055 303.468C146.196 301.08 145.988 301.488 146.003 306.187C146.021 311.67 145.519 317.063 143.183 322.094C139.448 330.142 131.928 336.035 124.483 340.448C119.907 343.163 118.88 342.896 119.015 337.847C119.149 332.748 121.232 327.748 123.535 323.306C127.709 315.251 134.583 308.477 142.055 303.468C142.943 302.873 142.109 301.428 141.213 302.028" fill="#3A8435"/>
<path d="M145.083 301.217C141.384 309.394 136.884 317.057 131.876 324.497C127.757 330.618 124.422 337.741 118.554 342.402C117.712 343.072 118.902 344.242 119.734 343.582C125.131 339.292 128.237 333.05 131.921 327.362C137.264 319.109 142.458 311.048 146.523 302.057C146.962 301.086 145.526 300.238 145.083 301.217Z" fill="#3A8435"/>
<path d="M121.02 338.44C124.313 329.93 127.56 321.369 133.225 314.108C133.877 313.272 132.707 312.082 132.045 312.929C126.193 320.433 122.815 329.202 119.413 337.996C119.025 338.999 120.637 339.43 121.02 338.44" fill="#3A8435"/>
<path d="M136.6 313.399C138.087 311.603 139.748 309.964 141.083 308.044C141.698 307.159 140.252 306.327 139.643 307.203C138.392 309.003 136.815 310.536 135.422 312.218C134.742 313.041 135.915 314.227 136.6 313.399Z" fill="#3A8435"/>
<path d="M1251.5 337C1246.25 337 1242 332.747 1242 327.5C1242 322.254 1246.25 318 1251.5 318C1256.75 318 1261 322.254 1261 327.5C1261 332.747 1256.75 337 1251.5 337Z" fill="#AADE81"/>
<path d="M118.5 421C113.254 421 109 416.747 109 411.5C109 406.254 113.254 402 118.5 402C123.746 402 128 406.254 128 411.5C128 416.747 123.746 421 118.5 421Z" fill="#AADE81"/>
<path d="M54.5 284C49.2538 284 45 279.747 45 274.5C45 269.254 49.2538 265 54.5 265C59.7462 265 64 269.254 64 274.5C64 279.747 59.7462 284 54.5 284Z" fill="#AADE81"/>
</g>
<defs>
<clipPath id="clip0_765_28">
<rect width="1428" height="1222" fill="white"/>
</clipPath>
</defs>
</svg>
