<svg width="146" height="132" viewBox="0 0 146 132" fill="none" xmlns="http://www.w3.org/2000/svg">
<path d="M21.6635 27.6064C30.9535 40.9643 41.3673 54.9861 56.7461 61.637C64.7901 65.1146 73.9627 65.7436 82.3442 68.0739C90.7814 70.418 101.502 79.7704 103.726 88.706C103.986 89.7432 105.633 89.4839 105.373 88.4401C104.08 83.2485 98.6151 76.6814 94.697 73.2562C88.0678 67.4586 80.4447 65.6883 72.0101 63.9789C61.2676 61.802 52.4458 58.6234 43.9269 51.5322C35.5804 44.585 29.1163 35.41 22.963 26.561C22.3468 25.6762 21.0544 26.73 21.6635 27.6064Z" fill="#3A8435"/>
<path d="M46.7363 52.7343C44.7814 42.6223 62.4567 26.1158 72.3613 32.3454C74.2428 33.5295 76.288 38.8179 72.315 39.6795C70.8131 40.007 68.9211 39.754 67.3753 39.716C65.5541 39.6702 63.8642 39.8505 62.1601 40.5039C58.2224 42.0141 57.2496 46.9493 58.3244 50.458C59.3936 53.9495 63.9532 55.092 67.0567 54.6817C72.0705 54.0181 76.6923 49.2385 80.3473 46.1849C82.8814 44.0702 85.4722 41.7516 88.7387 40.9032C92.4797 39.9301 102.733 45.5482 96.4056 46.4266C91.5342 47.1025 87.3549 47.1332 84.5947 51.6541C83.0887 54.1188 84.6602 56.4601 86.6926 57.8566C91.0977 60.8867 96.3319 58.5542 101.083 58.4345C105.2 58.329 108.858 64.8985 104.314 65.6493C103.569 65.7729 102.787 65.7716 102.035 65.8294C101.298 65.886 100.28 66.0528 99.7589 66.6521C97.7738 68.9423 101.034 72.3088 102.785 73.5695C106.794 76.4593 115.108 73.5398 119.508 73.5449C125.584 73.5517 129.304 78.0424 130.845 83.4029C131.407 85.3578 131.48 87.3813 131.355 89.4005C130.757 99.0724 123.943 92.382 122.219 90.7867C120.405 89.1092 117.005 86.4176 114.575 88.8698C111.494 91.9794 113.028 95.3917 114.47 99.0912C116.101 103.279 116.624 106.233 113.914 110.221C109.59 116.587 100.297 116.07 98.25 108.053C96.949 102.966 98.8497 98.299 96.1024 93.4643C93.6249 89.1037 90.0563 87.5694 86.6504 91.7183C84.4288 94.4231 83.0397 97.8746 81.2884 100.882C79.3996 104.126 73.039 110.116 71.4516 102.921C70.6503 99.2904 74.1454 94.3543 75.7161 91.3166C77.4382 87.9868 79.0486 84.5931 79.4909 80.8337C80.3162 73.8031 71.9085 68.7416 65.7118 71.7182C62.0894 73.4591 60.0525 76.0127 60.2671 80.1307C60.3941 82.5581 61.9604 85.1094 62.4969 87.436C64.1098 94.4296 56.881 96.8839 52.9205 92.4007C48.525 87.4263 50.5195 81.9884 52.8576 76.7786C53.686 74.9299 54.8306 71.2907 52.6272 69.7939C50.2603 68.1842 48.0656 68.3737 45.7122 69.9939C43.7842 71.3226 39.5538 74.9098 38.0834 68.6486C37.5816 66.5131 39.1124 63.5764 40.076 61.7841C41.3562 59.3999 43.1814 57.172 45.1352 55.3195C45.9112 54.5853 44.8708 53.2811 44.0909 54.0207C40.7215 57.2163 31.0347 70.0689 39.5321 73.4148C40.6593 73.8577 41.8089 74.1623 42.9914 73.6144C44.632 72.8528 52.0244 67.1056 52.2124 73.057C52.364 77.8232 48.1338 81.4238 48.6315 86.6106C49.1948 92.461 56.1732 100.619 61.774 94.8856C64.754 91.8333 64.4818 87.6606 63.229 83.9678C61.7724 79.6709 59.2745 75.2199 67.8543 72.839C71.0534 71.9519 74.5193 73.4713 76.5739 75.8881C78.8722 78.5892 77.6695 82.6074 76.5927 85.5164C74.5181 91.1201 66.9793 99.4231 70.797 105.6C74.8634 112.18 81.0453 104.598 83.1446 100.991C85.0264 97.757 86.4726 93.7862 89.356 91.2807C92.6047 88.4601 95.6802 96.1927 96.1059 97.9939C96.8867 101.286 96.1481 104.943 96.6038 108.321C98.1552 119.838 111.309 117.021 116.133 109.918C118.704 106.136 117.495 102.336 115.994 98.4164C115.357 96.7536 114.756 95.1948 114.384 93.4366C112.558 84.8089 120.559 91.5227 121.244 92.1385C122.661 93.4055 124.382 95.4581 126.409 95.7465C136.86 97.2313 132.469 80.3623 128.998 76.0739C125.776 72.0937 120.628 71.7169 115.91 71.9991C111.033 72.2891 104.343 75.0619 101.17 69.2324C99.9877 67.062 105.046 67.2526 105.994 66.974C108.495 66.2362 108.267 63.659 107.714 61.636C106.481 57.129 102.029 56.5229 98.1088 56.9949C94.6361 57.4135 91.9325 58.1583 88.4671 56.8956C84.3003 55.3771 86.061 50.9064 89.2064 49.4052C90.618 48.7333 92.5079 48.6018 94.0511 48.388C96.2091 48.0898 101.086 48.4637 101.619 45.5484C102.133 42.7401 95.3172 39.7702 93.3506 39.4222C87.926 38.458 84.5268 40.6622 80.4353 43.9519C75.3292 48.0535 67.2063 57.2487 60.5074 50.8501C54.6648 45.2679 64.0583 41.3959 67.2163 41.3751C68.5385 41.3652 69.8612 41.4411 71.186 41.4299C72.898 41.415 74.2989 41.0772 75.5396 39.9105C77.5133 38.051 75.878 34.2549 74.735 32.4C73.0203 29.6168 69.2504 29.3921 66.3853 29.7179C56.4681 30.8419 42.9884 42.1201 45.0898 53.0002C45.2942 54.0549 46.941 53.7909 46.7363 52.7343Z" fill="#3A8435"/>
</svg>
