<svg width="76" height="76" viewBox="0 0 76 76" fill="none" xmlns="http://www.w3.org/2000/svg">
<path d="M38 76C17.0151 76 0 58.9894 0 38C0 17.0151 17.0151 -5.36442e-07 38 -5.36442e-07C58.9849 -5.36442e-07 76 17.0151 76 38C76 58.9894 58.9849 76 38 76Z" fill="#AADE81"/>
<circle cx="37.9997" cy="38" r="30.444" stroke="#22501F" stroke-width="1.5"/>
<path d="M52.3063 20.4203C51.9042 20.4379 51.5129 20.5494 51.1599 20.6903C50.8106 20.8301 48.7994 21.6855 45.8295 22.9509C42.8595 24.2162 38.9988 25.8639 35.1717 27.4978C27.5176 30.7656 19.9962 33.9808 19.9962 33.9808L20.051 33.96C20.051 33.96 19.597 34.1112 19.1368 34.4307C18.9066 34.5905 18.6591 34.7968 18.4564 35.0975C18.2536 35.3982 18.1054 35.8244 18.1613 36.2752C18.3575 37.8586 20.0042 38.3077 20.0042 38.3077L20.0107 38.3109L27.3598 40.8173C27.5472 41.4402 29.5889 48.2306 30.038 49.6686C30.286 50.4637 30.5182 50.9223 30.7603 51.2352C30.8815 51.3917 31.0085 51.5129 31.1489 51.6015C31.2047 51.6367 31.2633 51.6631 31.3214 51.6866H31.3246C31.3318 51.6898 31.3385 51.6901 31.3456 51.6931L31.3262 51.6883C31.3397 51.6937 31.353 51.7028 31.3666 51.7075C31.3928 51.7167 31.4088 51.7164 31.4423 51.7236C32.284 52.0164 32.9805 51.473 32.9805 51.473L33.0096 51.4505L37.5242 47.2779L44.8508 52.9704L44.9427 53.0122C46.2251 53.5796 47.3848 53.263 48.0271 52.7423C48.6694 52.2215 48.922 51.5501 48.922 51.5501L48.9494 51.4794L54.3331 23.518C54.4708 22.8925 54.4904 22.3518 54.3605 21.8631C54.2306 21.3745 53.9149 20.9498 53.5188 20.7144C53.1227 20.4789 52.7084 20.4028 52.3063 20.4203ZM52.3499 22.0929C52.5131 22.0854 52.6342 22.104 52.6723 22.1266C52.7105 22.1493 52.7276 22.1463 52.7642 22.2841C52.8009 22.4219 52.8207 22.712 52.7207 23.1662L52.7175 23.1758L47.3644 50.9749C47.3518 51.0029 47.2402 51.26 46.9855 51.4665C46.7257 51.6772 46.4367 51.8416 45.6698 51.5212L37.658 45.2952L37.4323 45.1185L37.4274 45.1233L35.0315 43.3318L48.4963 27.546C48.5998 27.425 48.6658 27.2768 48.6865 27.1192C48.7072 26.9616 48.6817 26.8014 48.613 26.6579C48.5442 26.5145 48.4353 26.3939 48.2992 26.3109C48.1632 26.2279 48.006 26.1859 47.8465 26.19C47.6907 26.194 47.5392 26.2419 47.4096 26.3282L27.9258 39.2717L20.5653 36.7604C20.5653 36.7604 19.8344 36.3551 19.7995 36.0728C19.7975 36.0571 19.7889 36.0713 19.8269 36.0149C19.8648 35.9586 19.9603 35.8635 20.08 35.7804C20.3194 35.6141 20.5927 35.5136 20.5927 35.5136L20.6201 35.504L20.6476 35.4928C20.6476 35.4928 28.1694 32.2773 35.8231 29.0097C39.65 27.3759 43.51 25.7294 46.4792 24.4644C49.4477 23.1997 51.5926 22.2894 51.7742 22.2166C51.981 22.1341 52.1866 22.1004 52.3499 22.0929ZM43.4206 30.9554L33.2095 42.9269L33.2046 42.9318C33.1887 42.9509 33.1736 42.9707 33.1595 42.9912C33.1433 43.0135 33.1282 43.0365 33.1144 43.0603C33.057 43.1573 33.0202 43.2651 33.0063 43.3768V43.3832L31.6761 49.3441C31.654 49.2797 31.6385 49.2561 31.6149 49.1802V49.1786C31.1924 47.8258 29.2661 41.4219 28.9996 40.5362L43.4206 30.9554ZM34.3623 44.8887L36.1972 46.2608L33.5013 48.7512L34.3623 44.8887Z" fill="#22501F"/>
</svg>
