<svg width="76" height="76" viewBox="0 0 76 76" fill="none" xmlns="http://www.w3.org/2000/svg">
<path d="M38 76C17.0151 76 0 58.9894 0 38C0 17.0151 17.0151 -4.76837e-07 38 -4.76837e-07C58.9849 -4.76837e-07 76 17.0151 76 38C76 58.9894 58.9849 76 38 76Z" fill="#AADE81"/>
<path d="M22.835 29.0399C23.2554 26.9523 24.937 24.8647 26.5135 23.8209H29.6664C30.4033 23.8209 33.3449 30.8935 33.3449 31.1275C33.3449 32.0662 30.7174 34.2589 30.7174 35.3027C30.7174 36.3465 32.8192 38.956 34.9212 41.0436C37.0231 43.1312 41.2272 45.2188 41.7527 45.2188C42.2782 45.2188 44.9059 41.0436 45.4312 41.0436C45.9565 41.0436 53.3136 43.6531 53.3134 44.6968C53.3132 45.7406 52.7877 48.3501 52.2624 48.872C51.7371 49.3939 50.1604 51.4815 48.0585 52.0034C44.4536 52.8985 36.0288 50.3859 30.1919 44.175C22.8348 36.3465 22.3095 31.6494 22.835 29.0399Z" stroke="#22501F" stroke-width="1.5"/>
<path d="M38.5668 68.0597C54.855 68.0597 68.0593 54.8554 68.0593 38.5672C68.0593 22.2789 54.855 9.07462 38.5668 9.07462C22.2785 9.07462 9.07422 22.2789 9.07422 38.5672C9.07422 44.8209 11.0206 50.62 14.3407 55.3917L10.7757 66.3582L21.7422 62.7932C26.514 66.1133 32.313 68.0597 38.5668 68.0597Z" stroke="#22501F" stroke-width="1.5"/>
</svg>
