<svg width="990" height="740" viewBox="0 0 990 740" fill="none" xmlns="http://www.w3.org/2000/svg">
<g clip-path="url(#clip0_793_27)">
<path d="M933.38 591.727C930.757 596.271 924.947 597.828 920.403 595.205C915.859 592.581 914.302 586.771 916.925 582.227C919.549 577.684 925.359 576.127 929.903 578.75C934.447 581.374 936.003 587.184 933.38 591.727Z" fill="#AADE81"/>
<path fill-rule="evenodd" clip-rule="evenodd" d="M443.004 129.651C538.632 87.2186 593.03 -7.81163 689.605 1.44332C792.373 11.2917 862.61 52.0286 906.943 127.596C955.569 210.481 1029.16 308.342 963.985 401.633C899.369 494.128 757.068 598.264 646.092 646.611C544.697 690.785 458.806 667.959 354.129 667.319C236.046 666.597 137.778 601.467 95.0838 513.192C52.2087 424.543 62.6478 307.422 134.893 214.024C199.275 130.791 340.931 174.943 443.004 129.651Z" fill="#E0F1DF"/>
<path d="M882.071 699.351C896.502 699.569 911.273 697.832 925.532 695.627C931.522 694.7 960.202 688.948 951.358 678.674C948.712 675.6 943.178 673.171 943.296 668.501C943.425 663.402 951.93 661.739 955.477 660.741C959.661 659.565 964.049 658.482 967.447 655.63C974.626 649.608 965.641 642.652 960.259 640.388C954.317 637.888 947.196 636.253 947.147 628.603C947.12 624.283 949.435 619.793 950.979 615.877C953.41 609.72 954.714 604.147 953.07 597.552C950.268 586.299 939.851 594.68 935.515 599.68C931.208 604.649 927.781 610.322 923.67 615.446C923.28 615.932 922.578 615.988 922.231 615.408C917.63 607.726 901.497 593.1 900.124 611.05C899.481 619.468 903.733 628.925 898.663 636.575C898.406 636.962 897.916 637.077 897.515 636.844C892.351 633.846 885.784 627.967 879.457 628.71C872.828 629.49 876.385 642.751 877.328 646.22C878.177 649.337 881.168 654.562 880.635 657.799C880.432 659.034 880.149 661.578 878.563 661.97C876.22 662.551 871.085 663.195 871.772 667.206C873.652 678.169 878.741 688.895 881.981 699.517C882.294 700.548 880.674 700.941 880.362 699.917C877.604 690.874 874.432 681.978 871.542 672.978C870.695 670.339 868.373 665.29 871.431 663.18C872.739 662.277 874.649 660.41 876.256 660.273C880.715 659.89 877.738 653.164 876.969 650.7C875.185 644.977 872.019 636.524 875.015 630.624C879.262 622.265 890.366 630.481 895.432 633.643C899.654 636.278 899.392 630.599 899.48 627.168C899.574 623.542 898.958 619.865 898.63 616.262C898.155 611.064 898.171 604.941 902.588 601.378C909.304 595.962 919.38 608.351 922.53 612.76C923.783 614.515 926.116 609.454 927.253 607.87C929.173 605.195 931.074 602.491 933.162 599.944C936.21 596.222 941.334 589.638 946.947 589.96C957.575 590.568 956.166 606.175 953.819 613.077C951.649 619.458 944.828 629.959 952.266 635.061C956.826 638.189 962.871 638.644 967.205 642.21C975.427 648.973 970.243 657.295 962.092 660.452C957.237 662.332 947.472 662.707 945.075 668.118C943.642 671.355 951.34 676.101 953.107 678.153C959.951 686.106 945.259 692.14 939.833 694.021C931.583 696.882 922.661 697.857 914.023 698.759C903.37 699.871 892.759 701.179 882.027 701.017C880.951 701.001 880.996 699.335 882.071 699.351Z" fill="#3A8435"/>
<path d="M880.143 699.545C893.849 685.622 903.579 667.788 913.875 651.321C924.675 634.047 934.376 616.082 947.084 600.1C947.744 599.27 949.171 600.136 948.502 600.979C935.295 617.587 925.218 636.323 913.996 654.272C904.029 670.214 894.562 687.271 881.29 700.755C880.535 701.522 879.39 700.311 880.143 699.545Z" fill="#3A8435"/>
<path d="M944.525 622.515C938.567 625.317 932.423 628.241 927.103 632.155C926.446 632.638 925.518 632.173 925.731 631.307C927.14 625.603 927.796 619.743 929.295 614.061C929.569 613.022 931.164 613.507 930.891 614.545C929.392 620.228 928.734 626.087 927.327 631.791C926.87 631.51 926.412 631.227 925.955 630.944C931.401 626.94 937.622 623.923 943.723 621.053C944.691 620.598 945.499 622.057 944.525 622.515Z" fill="#3A8435"/>
<path d="M949.786 643.218C937.236 642.773 926.198 647.102 914.854 651.97C914.413 652.16 913.718 652.021 913.644 651.44C912.523 642.644 911.073 633.897 909.888 625.109C909.747 624.055 911.365 623.647 911.507 624.709C912.254 630.257 913.106 635.79 913.929 641.325C914.288 643.75 914.623 646.177 914.952 648.606C915.269 650.959 921.686 647.302 922.698 646.894C931.449 643.373 940.369 641.218 949.83 641.552C950.904 641.591 950.862 643.257 949.786 643.218Z" fill="#3A8435"/>
<path d="M935.42 665.516C924.101 665.056 913.253 668.355 902.578 671.739C902.044 671.91 901.549 671.42 901.545 670.908C901.487 662.181 898.74 653.77 898.667 645.046C898.658 643.971 900.325 644.019 900.333 645.09C900.374 650.088 901.285 654.936 902.135 659.841C902.761 663.451 901.559 670.303 906.39 668.797C915.834 665.851 925.509 663.445 935.464 663.85C936.538 663.895 936.496 665.561 935.42 665.516Z" fill="#3A8435"/>
<path d="M923.192 682.506C912.713 684.832 902.035 685.971 891.484 687.898C891.059 687.975 890.56 687.757 890.474 687.289C888.994 679.238 884.614 672.135 883.527 663.988C883.387 662.933 885.005 662.525 885.146 663.588C885.48 666.093 890.582 686.371 893.469 685.844C903.23 684.063 913.094 683.04 922.791 680.888C923.841 680.654 924.241 682.271 923.192 682.506Z" fill="#3A8435"/>
<path d="M126.539 611.208C110.011 616.336 92.4564 607.095 87.3283 590.567C82.2006 574.04 91.4413 556.484 107.969 551.356C124.496 546.228 142.053 555.47 147.18 571.997C152.308 588.525 143.066 606.08 126.539 611.208Z" fill="#AADE81"/>
<path d="M276.806 683.273C253.416 680.939 229.286 683.099 206.427 688.149C200.409 689.479 194.339 690.308 188.184 689.559C180.487 688.622 175.931 682.928 172.36 676.647C167.443 667.993 164.921 658.174 159.784 649.639C159.191 648.65 157.796 649.256 158.149 650.368C161.486 660.876 167.729 672.611 166.363 683.901C165.174 693.708 150.352 683.629 147.079 680.961C142.082 676.889 137.685 671.794 134.135 666.423C126.871 655.438 129.018 640.663 128.597 628.243C128.077 612.852 121.403 600.009 111.474 588.51C110.784 587.712 109.636 588.495 109.96 589.438C117.558 611.572 120.751 633.114 122.334 656.328C122.861 656.096 123.387 655.862 123.915 655.631C113.407 639.308 98.3985 632.529 81.2914 624.728C61.3043 615.613 40.4088 608.643 20.5639 599.283C19.7434 598.897 18.9685 600.012 19.536 600.678C29.7139 612.604 48.8783 616.443 62.6572 622.69C78.8865 630.044 94.9265 636.968 108.963 648.096C114.543 652.519 121.726 658.341 123.64 665.558C125.696 673.296 109.848 674.475 105.09 675.231C98.4549 676.287 91.7164 676.811 85.1408 678.222C83.2761 678.624 77.1133 679.05 76.1258 680.482C75.7744 680.991 76.0339 681.888 76.7409 681.902C91.9234 682.226 108.75 681.746 123.244 676.911C130.71 674.42 134.673 678.12 139.291 683.501C140.453 684.856 141.574 686.244 142.718 687.614C144.822 690.14 141.124 692.157 139.182 693.677C131.752 699.488 122.498 702.702 114.505 707.639C113.732 708.115 114.371 709.381 115.201 709.219C126.161 707.08 135.173 702.796 145.365 698.676C152.193 695.919 158.392 696.441 165.367 698.054C172.335 699.669 178.697 699.15 185.748 698.567C214.679 696.173 243.471 694.903 272.5 694.489C273.638 694.472 273.861 692.694 272.711 692.712C244.254 693.117 215.968 694.195 187.609 696.618C180.102 697.258 173.006 697.928 165.578 696.277C159.593 694.945 154.304 694.037 148.313 695.818C144.025 697.095 140.128 699.088 136.107 701.013C129.395 704.228 122.208 706.03 114.932 707.449C115.166 707.976 115.396 708.502 115.629 709.029C125.836 702.728 137.904 698.948 146.016 689.721C146.266 689.434 146.244 688.904 145.991 688.627C139.841 681.848 134.897 671.454 124.38 674.701C116.629 677.092 109.407 677.801 101.395 678.811C94.5881 679.672 86.9385 681.539 80.1387 679.965C78.1585 679.506 76.0003 681.972 79.0717 681.455C80.3174 681.246 81.6383 681.133 82.8462 680.754C87.0515 679.434 91.422 678.925 95.7798 678.337C104.526 677.162 116.133 677.017 123.54 671.567C135.822 662.527 101.362 640.095 96.0073 636.798C84.0223 629.423 70.3291 623.866 57.402 618.374C45.5135 613.322 29.6099 609.726 20.9291 599.552C20.587 600.017 20.245 600.483 19.9028 600.948C38.5525 609.742 58.1945 616.259 77.0032 624.747C84.8631 628.295 92.7564 631.824 100.397 635.828C109.898 640.81 116.745 647.782 122.522 656.757C123.051 657.578 124.157 656.852 124.104 656.059C122.508 632.705 119.228 610.942 111.596 588.709C111.091 589.017 110.586 589.327 110.082 589.635C117.53 598.261 123.389 607.617 125.759 618.871C127.386 626.601 126.763 634.548 126.908 642.382C127.2 658.067 132.081 669.209 143.348 680.018C147.733 684.225 163.873 696.468 167.868 685.3C169.824 679.831 167.102 672.321 165.611 667.094C163.927 661.185 161.641 655.486 159.784 649.639C159.24 649.881 158.694 650.123 158.149 650.368C167.653 666.159 170.426 692.941 194.198 691.674C207.165 690.98 219.73 686.799 232.712 685.614C247.255 684.284 262.036 683.599 276.595 685.051C277.743 685.166 277.952 683.387 276.806 683.273Z" fill="#3A8435"/>
<path d="M220.262 695.585C219.509 699.631 219.254 703.879 217.135 707.507C214.217 712.502 207.819 710.427 203.584 709.241C199.21 708.018 195.943 712.291 193.839 715.473C192.189 717.965 191.372 720.999 189.856 723.583C185.487 731.031 179.14 724.828 175.596 721.013C173.136 718.365 168.806 715.789 165.223 718.059C158.951 722.033 158.619 730.708 150.476 732.528C145.476 733.645 143.006 725.564 138.23 724.856C133.344 724.132 130.288 727.239 127.307 730.683C124.431 734 116.87 741.606 112.859 734.841C111.564 732.658 111.342 729.963 110.077 727.728C108.614 725.147 105.197 723.938 102.405 724.859C100.27 725.562 98.5431 726.711 96.7033 727.967C88.8756 733.299 87.3217 719.521 87.201 714.846C87.083 710.206 84.9377 706.704 80.1904 705.902C77.5923 705.464 74.1263 706.998 71.7106 707.704C67.3658 708.972 61.0061 709.131 61.121 700.963C61.1521 698.793 61.9764 696.516 62.4205 694.405C63.3391 690.041 61.6527 686.413 57.7577 684.339C50.5858 680.525 36.3716 691.57 38.0157 674.876C38.5047 669.905 39.4168 664.219 35.4801 660.307C31.0589 655.914 17.1391 661.222 17.8814 650.624C18.2412 645.478 19.6638 642.067 16.7121 637.337C13.912 632.851 -4.31804 621.728 4.9275 616.082C8.48185 613.91 10.4214 610.746 10.5221 606.537C10.582 604.099 9.09918 601.564 8.10028 599.459C5.55287 594.101 4.88207 583.267 13.8641 585.659C28.4335 589.539 29.2391 559.696 45.2268 571.875C48.6761 574.504 54.178 577.516 58.6135 575.53C61.0657 574.434 63.0604 572.787 65.1927 571.171C71.1914 566.632 78.141 566.558 84.5039 570.102C88.9892 572.602 93.6316 576.667 99.0713 576.198C100.959 576.034 102.843 574.678 104.51 573.904C110.403 571.162 117.294 571.924 121.806 576.613C125.181 580.121 128.488 584.598 133.638 585.279C136.152 585.611 138.822 584.795 141.392 585.01C148.765 585.627 150.304 590.871 152.178 596.709C153.701 601.46 156.058 606.653 161.27 608.014C164.583 608.878 167.348 608.65 170.549 610.442C176.256 613.636 174.598 622.084 175.599 627.388C176.656 632.981 181.32 635.454 186.311 636.725C192.112 638.202 197.39 640.662 199.179 646.952C200.179 650.472 200.941 653.915 202.232 657.364C203.291 660.186 205.472 661.035 208.005 662.267C216.614 666.456 221.204 675.87 219.003 685.166C218.737 686.29 220.519 686.486 220.78 685.377C222.266 679.106 220.898 673.518 217.53 668.111C213.918 662.31 205.618 661.306 203.298 655.116C201.068 649.161 201.119 643.655 196.273 639.191C194.171 637.254 191.241 636.135 188.529 635.453C180.778 633.502 177.158 629.872 176.766 621.593C176.51 616.156 175.513 610.291 169.776 607.975C167.458 607.038 165.328 606.694 162.852 606.46C156.377 605.843 154.483 598.281 152.982 593.124C151.505 588.048 148.917 585.197 143.861 583.659C141.6 582.973 139.188 583.018 136.865 583.223C131.126 583.733 127.952 580.724 124.234 576.63C121.199 573.291 117.859 570.276 113.007 570.565C109.775 570.756 106.802 571.101 103.78 572.268C102.673 572.697 101.617 573.316 100.552 573.837C97.0113 575.568 93.4101 573.234 90.4042 571.561C85.8532 569.029 81.0079 565.001 75.4181 565.579C71.9018 565.942 68.7948 566.966 65.6996 568.69C60.5557 571.552 58.4693 575.523 51.5479 573.464C47.3206 572.205 43.9265 566.718 39.2556 566.831C32.8385 566.984 28.2641 572.224 25.1307 577.253C22.3079 581.782 19.2223 585.247 13.4416 583.707C11.9912 583.321 10.7643 582.948 9.26113 582.987C5.5811 583.082 4.18961 590.36 4.38508 592.82C5.02345 600.808 12.9398 609.105 3.46266 614.895C0.822511 616.507 0.49156 618.953 1.51209 621.81C4.14284 629.176 8.92694 632.021 14.3085 637.254C20.3528 643.133 13.112 649.096 16.7074 654.479C19.6665 658.906 25.6007 660.245 30.5989 660.647C40.7803 661.468 34.6728 675.112 36.8318 681.499C38.3011 685.842 43.6227 686.886 47.4877 686.549C52.6161 686.102 60.9642 682.766 60.8636 692.593C60.8303 695.921 58.7539 699.214 59.324 702.586C60.1337 707.364 63.5289 710.075 68.3458 710.122C71.1984 710.148 74.3219 708.744 77.0427 708.025C86.4787 705.53 85.1662 717.249 85.8692 722.142C86.4102 725.916 89.4488 730.312 93.3058 731.068C98.9734 732.178 104.927 719.996 109.41 730.415C110.848 733.752 110.987 737.078 114.638 738.687C118.858 740.546 123.916 737.263 126.542 734.289C129.763 730.64 133.086 725.045 138.917 726.941C141.278 727.711 142.731 730.242 144.459 731.861C147.971 735.148 151.378 734.623 155.469 732.491C158.338 730.995 160.047 727.429 161.604 724.802C163.77 721.149 166.528 716.966 172.143 720.323C174.279 721.601 175.693 723.999 177.494 725.663C182.678 730.451 188.539 729.345 192.064 723.337C194.611 718.996 195.775 712.368 201.455 710.834C202.849 710.457 204.965 711.61 206.351 711.934C208.583 712.453 210.558 712.479 212.812 712.223C220.538 711.35 220.978 701.519 222.039 695.796C222.25 694.658 220.47 694.456 220.262 695.585Z" fill="#3A8435"/>
<path d="M124.777 666.657C114.844 659.54 103.281 656.514 91.2067 655.683C75.6333 654.614 60.6896 661.106 45.081 660.215C43.9327 660.149 43.7175 661.927 44.8701 661.992C57.9719 662.741 70.5249 658.791 83.4738 657.561C97.3281 656.243 112.418 660.002 123.714 668.1C124.655 668.771 125.715 667.331 124.777 666.657Z" fill="#3A8435"/>
<path d="M89.4004 655.547C77.7357 652.341 66.8868 646.868 56.871 640.138C49.8295 635.409 42.7906 630.705 34.1689 629.741C33.0212 629.612 32.8119 631.391 33.958 631.518C44.3314 632.678 52.4196 639.522 60.9314 644.941C69.4375 650.359 79.035 654.545 88.739 657.209C89.8407 657.512 90.5111 655.85 89.4004 655.547Z" fill="#3A8435"/>
<path d="M69.3639 647.75C66.3895 640.583 65.1166 631.687 57.9631 627.317C56.9846 626.72 55.9151 628.155 56.9018 628.758C63.7265 632.928 64.8902 641.64 67.7291 648.479C68.1707 649.546 69.8064 648.816 69.3639 647.75Z" fill="#3A8435"/>
<path d="M93.7244 656.417C85.8434 662.114 79.4285 669.585 70.6179 673.967C69.5891 674.479 70.3117 676.118 71.347 675.602C80.3013 671.148 86.8381 663.601 94.8493 657.807C95.7853 657.132 94.6586 655.741 93.7244 656.417Z" fill="#3A8435"/>
<path d="M122.84 654.005C119.636 640.827 112.439 628.892 104.924 617.744C97.958 607.412 87.8744 596.594 75.6315 592.84C74.533 592.503 73.8657 594.165 74.97 594.505C86.3825 598.002 95.6412 607.758 102.406 617.239C110.313 628.322 117.829 640.935 121.07 654.274C121.34 655.385 123.111 655.127 122.84 654.005Z" fill="#3A8435"/>
<path d="M104.927 619.22C91.4648 614.841 78.3654 611.295 67.2303 602.076C66.3384 601.337 65.2823 602.783 66.1682 603.516C77.3996 612.813 90.6539 616.455 104.266 620.885C105.36 621.24 106.025 619.578 104.927 619.22Z" fill="#3A8435"/>
<path d="M96.0047 605.652C99.3886 599.857 99.2495 591.943 96.305 585.991C95.795 584.962 94.1565 585.683 94.6704 586.72C97.3085 592.054 97.6191 599.356 94.562 604.589C93.9863 605.577 95.4218 606.648 96.0047 605.652Z" fill="#3A8435"/>
<path d="M39.1265 589.109C46.5954 595.985 54.0722 603.925 54.2519 614.691C54.2715 615.831 56.049 616.053 56.0293 614.903C55.8374 603.399 48.2324 595.073 40.1891 587.666C39.339 586.884 38.286 588.333 39.1265 589.109Z" fill="#3A8435"/>
<path d="M161.918 687.142C152.949 675.061 149.063 660.094 149.959 645.167C150.656 633.55 152.377 622.751 146.132 612.275C145.549 611.297 143.905 612.012 144.495 613.004C152.292 626.077 147.404 640.618 148.081 654.87C148.643 666.678 153.55 678.872 160.525 688.267C161.213 689.195 162.605 688.067 161.918 687.142Z" fill="#3A8435"/>
<path d="M148.892 658.125C138.838 643.573 135.133 628.214 136.38 610.627C136.462 609.478 134.684 609.264 134.603 610.417C133.32 628.48 137.167 644.293 147.499 659.249C148.156 660.199 149.545 659.068 148.892 658.125Z" fill="#3A8435"/>
<path d="M149.914 658.678C157.338 647.121 154.682 631.618 166.819 622.981C167.759 622.313 166.632 620.92 165.694 621.588C153.226 630.462 156.065 645.801 148.472 657.617C147.851 658.584 149.287 659.651 149.914 658.678Z" fill="#3A8435"/>
<path d="M156.245 638.612C162.7 641.485 169.102 638.982 175.703 638.104C176.849 637.952 176.577 636.181 175.434 636.335C169.201 637.164 163.024 639.671 156.906 636.947C155.848 636.478 155.193 638.145 156.245 638.612Z" fill="#3A8435"/>
<path d="M209.206 686.985C194.122 681.838 189.733 666.087 180.973 654.386C180.28 653.463 178.889 654.588 179.579 655.511C188.583 667.535 193.058 683.362 208.545 688.648C209.636 689.021 210.299 687.358 209.206 686.985Z" fill="#3A8435"/>
<path d="M194.219 676.21C188.518 675.654 183.162 673.731 177.717 672.072C176.618 671.737 175.951 673.398 177.056 673.735C182.649 675.44 188.151 677.417 194.008 677.987C195.155 678.098 195.366 676.321 194.219 676.21Z" fill="#3A8435"/>
<path d="M176.307 697.573C167.007 704.855 157.161 711.351 147.057 717.459C146.085 718.049 146.799 719.693 147.786 719.094C158.022 712.906 168.009 706.342 177.431 698.963C178.341 698.251 177.216 696.858 176.307 697.573Z" fill="#3A8435"/>
<path d="M175.439 699.286C178.545 705.04 182.177 711.116 181.76 717.89C181.69 719.039 183.466 719.253 183.537 718.101C183.978 710.949 180.362 704.647 177.073 698.557C176.528 697.548 174.888 698.266 175.439 699.286Z" fill="#3A8435"/>
<path d="M143.742 687.458C135.428 688.965 126.639 689.068 118.993 693.005C110.992 697.126 106.163 705.229 97.4902 708.406C96.4048 708.803 97.1382 710.435 98.2194 710.04C104.878 707.603 109.608 702.599 114.9 698.082C123.207 690.988 133.806 691.077 144.011 689.227C145.146 689.023 144.88 687.253 143.742 687.458Z" fill="#3A8435"/>
<path d="M119.034 693.327C108.597 690.124 97.6955 691.645 87.1394 693.442C86.0042 693.633 86.2703 695.405 87.4082 695.212C97.6198 693.474 108.265 691.887 118.372 694.988C119.469 695.327 120.136 693.666 119.034 693.327Z" fill="#3A8435"/>
<path d="M689.341 406.554C689.225 384.611 685.547 363.049 673.244 344.471C660.895 325.823 641.504 312.821 623.599 300.063C613.804 293.086 604.169 285.907 595.412 277.642C591.173 273.641 587.033 269.373 583.523 264.715C582.471 263.321 577.047 255.098 582.592 260.474C584.667 262.485 586.125 265.303 587.919 267.587C594.267 275.674 602.759 282.042 611.041 288.011C618.193 293.163 626.44 299.03 635.397 300.246C635.959 300.322 636.405 300.034 636.452 299.442C637.595 285.179 635.808 270.778 636.223 256.486C636.3 253.85 636.428 251.157 637.115 248.599C638.119 244.854 639.348 251.714 639.381 252.365C639.98 263.817 638.711 275.427 638.76 286.895C638.779 291.259 637.653 297.858 640.221 301.583C642.693 305.169 645.995 308.214 649.152 311.175C657.421 318.93 666.528 325.551 673.925 334.217C682.363 344.098 688.177 356.333 691.509 368.813C693.253 375.342 694.061 382.111 694.803 388.811C695.144 391.893 695.436 394.979 695.753 398.063C696.329 403.674 696.039 406.633 689.173 404.862C688.132 404.594 687.691 406.201 688.731 406.469C691.807 407.262 694.589 406.873 697.617 406.025C697.943 405.933 698.273 405.585 698.229 405.221C696.279 389.01 695.856 372.105 689.323 356.874C682.799 341.661 673.309 329.727 660.745 319.061C654.811 314.023 648.829 309.021 643.633 303.202C639.657 298.75 640.503 292.506 640.427 286.895C640.363 282.035 640.48 277.171 640.613 272.314C640.807 265.289 641.355 258.219 640.987 251.193C640.868 248.909 640.597 247.333 638.789 246.017C634.992 243.253 634.665 254.153 634.603 255.337C634.003 266.597 634.907 277.941 635.039 289.206C635.068 291.642 635.047 294.078 634.967 296.511C634.859 299.77 632.885 298.154 630.287 297.259C623.104 294.782 616.556 289.939 610.452 285.542C603.809 280.755 597.545 275.539 591.891 269.607C587.811 265.327 585.204 258.626 579.396 256.417C578.747 256.17 578.271 256.882 578.371 257.442C579.395 263.139 583.5 267.661 587.304 271.793C592.909 277.885 599.065 283.423 605.493 288.627C618.212 298.926 632.093 307.687 644.953 317.807C658.351 328.35 670.435 340.745 678.036 356.155C685.703 371.699 687.585 389.454 687.675 406.554C687.68 407.629 689.347 407.63 689.341 406.554Z" fill="#3A8435"/>
<path d="M635.841 288.862C626.365 286.948 619.678 279.648 615.343 271.379C610.142 261.456 610.354 250.94 617.279 242.067C623.45 234.162 622.441 227.37 622.23 217.664C621.938 204.276 632.891 193.358 646.365 196.508C658.215 199.282 660.341 210.664 659.694 221.022C659.21 228.735 659.063 234.258 664.009 240.602C670.942 249.498 673.471 257.356 669.899 268.57C667.838 275.044 663.463 280.723 657.866 284.5C652.823 287.904 645.987 287.382 640.287 288.862C639.247 289.131 639.689 290.739 640.73 290.468C646.859 288.878 653.005 288.966 658.706 285.94C663.239 283.535 666.57 278.866 669.07 274.542C674.234 265.612 675.247 253.991 669.579 245.158C666.773 240.784 663.039 237.4 661.393 232.315C659.498 226.471 661.793 219.27 661.378 213.175C660.703 203.196 654.475 196.695 644.929 194.462C635.173 192.18 626.662 198.66 622.726 207.098C620.523 211.82 620.47 216.944 620.718 222.031C620.959 226.947 621.494 231.718 619.274 236.366C617.659 239.744 614.642 242.559 612.635 245.748C602.51 261.848 618.627 287.086 635.398 290.468C636.447 290.68 636.894 289.074 635.841 288.862Z" fill="#3A8435"/>
<path d="M636.483 278.722C628.115 274.176 623.716 264.88 619.45 256.799C618.947 255.848 617.508 256.691 618.01 257.64C622.414 265.979 627.006 275.47 635.643 280.162C636.587 280.675 637.427 279.235 636.483 278.722Z" fill="#3A8435"/>
<path d="M640.652 276.922C648.197 270.678 656.043 262.422 655.119 251.887C655.025 250.824 653.359 250.816 653.452 251.887C654.339 261.998 646.69 269.771 639.474 275.742C638.646 276.428 639.831 277.599 640.652 276.922Z" fill="#3A8435"/>
<path d="M638.675 246.998C638.147 233.303 643.09 220.002 640.423 206.332C640.216 205.278 638.611 205.726 638.815 206.775C641.446 220.256 636.487 233.479 637.008 246.998C637.05 248.07 638.716 248.074 638.675 246.998Z" fill="#3A8435"/>
<path d="M639.979 246.331C644.087 236.131 654.091 229.474 652.423 217.443C652.275 216.382 650.67 216.836 650.815 217.886C652.394 229.266 642.261 236.231 638.371 245.888C637.97 246.886 639.583 247.315 639.979 246.331Z" fill="#3A8435"/>
<path d="M636.928 245.39C629.724 241.594 629.365 232.878 629.341 225.665C629.337 224.59 627.671 224.59 627.675 225.665C627.701 233.493 628.331 242.742 636.088 246.829C637.037 247.33 637.879 245.891 636.928 245.39Z" fill="#3A8435"/>
<path d="M623.343 246.974C626.035 251.315 629.914 254.466 633.696 257.81C634.498 258.518 635.682 257.344 634.875 256.631C631.204 253.387 627.396 250.347 624.783 246.132C624.218 245.222 622.775 246.058 623.343 246.974Z" fill="#3A8435"/>
<path d="M641.816 259.718C646.585 256.237 649.888 251.309 653.228 246.53C653.845 245.647 652.399 244.815 651.788 245.689C648.625 250.217 645.494 254.979 640.976 258.279C640.117 258.906 640.947 260.353 641.816 259.718Z" fill="#3A8435"/>
<path d="M640.976 276.162C646.862 278.842 656.216 279.081 661.098 274.254C661.863 273.498 660.684 272.321 659.919 273.075C655.639 277.309 647.002 277.083 641.816 274.722C640.847 274.281 639.999 275.717 640.976 276.162Z" fill="#3A8435"/>
<path d="M652.287 265.135C656.854 266.078 661.924 266.009 665.542 262.699C666.336 261.973 665.154 260.797 664.363 261.521C661.219 264.395 656.667 264.342 652.73 263.529C651.682 263.311 651.235 264.918 652.287 265.135Z" fill="#3A8435"/>
<path d="M613.421 293.834C605.653 298.835 594.581 297.086 586.185 294.77C581.583 293.502 577.136 291.684 573.103 289.123C566.336 284.823 567.801 279.088 568.867 272.552C571.045 259.179 552.245 255.719 549.125 244.295C546.063 233.082 554.605 221.35 564.755 217.675C574.723 214.063 580.237 219.935 584.513 227.823C586.573 231.623 589.311 235.858 593.705 237.2C596.619 238.088 599.449 238.162 602.477 237.863C608.193 237.298 611.372 236.862 613.037 243.664C613.293 244.708 614.9 244.264 614.645 243.222C612.525 234.566 608.72 235.579 601.089 236.334C589.391 237.488 587.408 227.504 581.76 220.091C577.151 214.04 569.208 214.292 562.663 216.663C553.971 219.812 548.455 228.62 547.2 237.416C546.084 245.248 549.733 251.474 555.751 256.116C559.364 258.904 563.319 261.358 565.88 265.232C569.256 270.338 565.615 276.332 565.919 281.835C566.393 290.435 579.215 294.41 585.741 296.376C594.472 299.01 606.207 300.459 614.261 295.274C615.161 294.695 614.327 293.251 613.421 293.834Z" fill="#3A8435"/>
<path d="M564.731 234.468C580.86 238.024 593.367 252.78 591.229 269.664C591.095 270.73 592.763 270.716 592.896 269.664C595.12 252.087 581.947 236.559 565.173 232.862C564.127 232.63 563.681 234.236 564.731 234.468Z" fill="#3A8435"/>
<path d="M561.866 243.718C568.206 247.435 573.825 252.215 578.586 257.81C579.283 258.628 580.457 257.444 579.765 256.631C574.917 250.934 569.162 246.063 562.706 242.279C561.777 241.734 560.939 243.175 561.866 243.718Z" fill="#3A8435"/>
<path d="M572.976 272.162C577.568 275.465 584.201 276.354 589.617 274.914C590.655 274.638 590.215 273.03 589.175 273.306C584.153 274.642 578.063 273.777 573.816 270.723C572.941 270.095 572.111 271.542 572.976 272.162Z" fill="#3A8435"/>
<path d="M576.731 285.579C584.829 288.483 595.151 290.624 603.15 286.384C604.099 285.88 603.259 284.442 602.31 284.944C594.726 288.966 584.831 286.716 577.174 283.972C576.159 283.608 575.727 285.219 576.731 285.579Z" fill="#3A8435"/>
<path d="M601.566 247.863C606.515 256.854 607.212 269.286 601.566 278.134C600.986 279.042 602.428 279.876 603.006 278.975C608.972 269.623 608.231 256.516 603.006 247.022C602.487 246.08 601.047 246.922 601.566 247.863Z" fill="#3A8435"/>
<path d="M597.925 258.331C599.338 261.867 601.937 264.306 604.807 266.699C605.625 267.382 606.812 266.21 605.985 265.52C603.38 263.347 600.822 261.116 599.533 257.888C599.14 256.903 597.526 257.332 597.925 258.331Z" fill="#3A8435"/>
<path d="M574.508 246.469C578.581 247.403 582.572 248.639 586.73 249.165C587.794 249.299 587.78 247.631 586.73 247.498C582.727 246.991 578.872 245.762 574.951 244.862C573.905 244.622 573.46 246.229 574.508 246.469Z" fill="#3A8435"/>
<path d="M562.73 254.054C566.878 254.054 571.027 254.054 575.175 254.054C576.25 254.054 576.25 252.387 575.175 252.387C571.027 252.387 566.878 252.387 562.73 252.387C561.655 252.387 561.655 254.054 562.73 254.054Z" fill="#3A8435"/>
</g>
<defs>
<clipPath id="clip0_793_27">
<rect width="990" height="740" fill="white"/>
</clipPath>
</defs>
</svg>
