<svg width="253" height="150" viewBox="0 0 253 150" fill="none" xmlns="http://www.w3.org/2000/svg">
<g clip-path="url(#clip0_636_90)">
<path d="M247.649 -145.874C238.05 -131.563 230.304 -115.66 227.846 -98.44C225.411 -81.3797 229.809 -63.9161 231.007 -46.9238C232.388 -27.3602 229.621 -5.47857 223.517 13.1136C216.885 33.3218 202.291 49.2292 188.467 64.8241C188.903 65.1617 189.337 65.5002 189.772 65.839C200.599 49.4426 212.104 33.461 220.06 15.4008C227.327 -1.09928 229.289 -19.7607 229.566 -37.6066C229.858 -56.3685 224.374 -74.658 223.032 -93.2892C222.285 -103.688 223.911 -113.569 228.623 -122.863C232.958 -131.417 237.806 -139.709 242.696 -147.954C243.246 -148.879 241.806 -149.72 241.258 -148.797C232.54 -134.102 222.54 -119.561 221.354 -102.101C220.101 -83.6641 226.009 -65.2104 227.574 -46.9466C229.269 -27.166 226.468 -6.00609 219.442 12.5425C212.252 31.5268 199.43 48.1949 188.335 64.9956C187.816 65.7802 189.012 66.7163 189.641 66.0095C202.129 51.9177 214.273 38.0646 222.261 20.8385C230.316 3.47437 231.788 -17.0118 232.843 -35.8721C233.848 -53.82 228.94 -71.5861 228.921 -89.5263C228.904 -109.563 238.156 -128.736 249.086 -145.03C249.687 -145.924 248.244 -146.762 247.649 -145.874Z" fill="#3A8435"/>
<path d="M230.747 -55.3936C238.703 -51.2118 270.198 -23.6326 251.754 -17.5784C232.438 -11.2379 236.82 -45.7575 232.68 -55.5506C232.262 -56.539 230.823 -55.6934 231.235 -54.7161C235.854 -43.7997 231.839 -4.85712 255.435 -17.3238C271.283 -25.6943 238.898 -52.9927 231.591 -56.831C230.641 -57.3314 229.796 -55.8927 230.747 -55.3936" fill="#3A8435"/>
<path d="M230.342 -18.3358C237.401 -14.564 258.512 4.85754 247.162 12.6343C238.28 18.7201 231.465 -10.716 232.165 -16.0914C232.302 -17.1423 230.693 -17.586 230.556 -16.5227C229.712 -10.0566 236.174 20.329 247.371 14.4074C262.206 6.56529 238.918 -15.6414 231.185 -19.7731C230.238 -20.2791 229.394 -18.8426 230.342 -18.3358" fill="#3A8435"/>
<path d="M231.113 -17.5796C232.008 -10.0946 235.995 -3.55971 238.286 3.5169C238.616 4.53549 240.227 4.10339 239.894 3.07668C237.654 -3.84004 233.654 -10.2827 232.78 -17.5929C232.654 -18.6464 230.986 -18.649 231.113 -17.5796" fill="#3A8435"/>
<path d="M226.676 -17.8357C225.182 -11.5342 222.648 -5.68828 218.994 -0.349497C217.262 2.17889 215.173 4.37993 212.933 6.45092C209.551 9.57545 199.894 12.3587 203.531 3.89991C207.567 -5.49106 219.876 -11.3978 227.897 -16.8966C228.778 -17.5029 227.952 -18.9497 227.063 -18.3419C220.092 -13.5618 212.892 -9.11941 206.807 -3.19401C204.294 -0.746214 198.31 6.38694 201.495 10.2535C204.795 14.2585 211.183 10.0089 214.105 7.63567C221.579 1.56914 226.118 -8.25212 228.286 -17.4043C228.533 -18.448 226.923 -18.8819 226.676 -17.8357Z" fill="#3A8435"/>
<path d="M226.13 -16.3217C222.558 -11.1581 218.657 -6.38106 213.994 -2.16428C213.195 -1.44107 214.373 -0.261193 215.167 -0.979035C219.934 -5.29227 223.918 -10.2001 227.567 -15.4783C228.181 -16.363 226.738 -17.1994 226.13 -16.3217" fill="#3A8435"/>
<path d="M227.116 5.78989C231.21 10.8265 235.26 15.8515 238.542 21.4737C240.571 24.9507 242.29 28.8224 242.266 32.9111C242.243 37.0089 237.068 40.9808 233.256 38.8041C228.305 35.9756 228.325 25.3798 228.049 20.6143C227.752 15.4616 227.929 10.302 228.101 5.14841C228.136 4.074 226.469 4.08729 226.434 5.16016C226.185 12.5848 223.301 41.7409 236.03 41.0947C243.965 40.6919 244.706 32.1818 242.738 26.4448C239.915 18.2193 233.701 11.262 228.301 4.61554C227.621 3.7802 226.444 4.96388 227.116 5.78989" fill="#3A8435"/>
<path d="M226.798 7.38568C230.267 13.8438 233.449 20.7755 233.341 28.2533C233.325 29.3269 234.991 29.3167 235.008 28.2416C235.121 20.4836 231.842 13.2555 228.243 6.55259C227.732 5.60425 226.291 6.43993 226.798 7.38568Z" fill="#3A8435"/>
<path d="M222.082 4.69934C218.152 11.2549 215.259 17.2144 209.494 22.3311C206.522 24.9705 195.311 34.9559 191.321 29.6849C183.642 19.5453 215.576 8.92071 221.506 7.55249C222.553 7.31021 222.112 5.7026 221.066 5.94368C213.492 7.6926 180.741 18.4519 190.35 31.1447C193.992 35.9551 202.548 29.7324 205.676 27.5088C208.821 25.2734 211.738 22.687 214.453 19.9495C218.522 15.843 220.591 10.4284 223.52 5.54277C224.073 4.61971 222.634 3.77993 222.082 4.69934" fill="#3A8435"/>
<path d="M220.651 6.59625C215.938 11.9106 210.288 16.1887 204.577 20.3666C203.718 20.995 204.543 22.4458 205.411 21.8116C211.231 17.5512 217.017 13.2005 221.826 7.78184C222.536 6.98101 221.366 5.79401 220.651 6.59625" fill="#3A8435"/>
<path d="M217.888 27.8854C222.037 35.1064 227.518 51.0883 223.171 58.8573C220.707 63.2629 214.187 58.711 213.01 55.8117C211.621 52.3875 212.782 48.0453 213.646 44.6451C215.037 39.1719 217.746 34.052 218.88 28.5211C218.334 28.4521 217.789 28.3805 217.243 28.3114C217.866 35.3458 218.323 42.3495 218.102 49.413C218.069 50.4875 219.737 50.4748 219.769 49.4012C219.99 42.3378 219.533 35.3328 218.909 28.2997C218.83 27.4145 217.471 27.1138 217.27 28.0897C215.609 36.185 211.212 43.3787 210.805 51.8059C210.543 57.2211 214.999 63.6828 221.223 62.0319C232.492 59.0441 222.878 33.2269 219.333 27.0523C218.798 26.1192 217.354 26.9527 217.888 27.8854" fill="#3A8435"/>
<path d="M211.612 27.2665C208.661 33.5172 203.759 39.6646 198.339 44.0043C195.61 46.1897 183.617 54.9123 181.6 48.7232C179.465 42.1771 191.163 37.4875 195.472 35.7129C200.447 33.6656 205.693 32.171 210.941 31.0015C211.989 30.7662 211.549 29.1601 210.501 29.3928C203.297 30.999 173.559 38.2134 180.708 50.8199C183.482 55.7141 192.647 49.8186 195.443 48.0706C202.856 43.4325 209.333 35.983 213.049 28.1099C213.505 27.1444 212.071 26.2949 211.612 27.2665Z" fill="#3A8435"/>
<path d="M211.159 28.3749C206.203 34.6447 199.361 38.6377 192.386 42.3012C191.433 42.8023 192.269 44.244 193.219 43.7461C200.315 40.017 207.291 35.9382 212.333 29.559C212.992 28.7253 211.824 27.5329 211.159 28.3749Z" fill="#3A8435"/>
<path d="M201.662 51.3294C204.55 54.6336 205.709 59.6235 206.746 63.7734C207.773 67.8914 209.766 75.7622 206.531 79.398C204.058 82.1793 200.16 77.3458 199.415 75.4525C198.38 72.8202 198.569 69.7321 198.778 66.9706C199.18 61.6357 200.726 56.0163 202.973 51.1645C203.422 50.1969 201.987 49.3474 201.536 50.3211C198.515 56.84 196.712 64.4099 197.021 71.6071C197.199 75.749 200.226 83.132 205.802 81.5715C215.48 78.8639 206.99 54.8981 202.847 50.1562C202.137 49.3447 200.958 50.5239 201.662 51.3294Z" fill="#3A8435"/>
<path d="M200.82 52.6842C202.451 58.3819 203.432 64.1952 202.916 70.1304C202.821 71.1997 204.49 71.1819 204.582 70.1187C205.112 64.0449 204.096 58.0716 202.428 52.2442C202.132 51.211 200.523 51.6468 200.82 52.6842Z" fill="#3A8435"/>
<path d="M196.126 51.7897C194.131 54.187 192.12 56.5498 189.82 58.6638C187.248 61.0294 182.205 64.1973 178.588 62.4608C176.393 61.4073 178.921 58.1383 179.741 57.1779C181.165 55.5136 183.458 54.6553 185.47 54.0045C189.079 52.8387 193.007 52.7124 196.768 52.7734C196.489 52.4983 196.208 52.2216 195.928 51.9465C195.902 52.1795 192.023 53.8016 191.393 54.1284C189.04 55.3476 186.727 56.6424 184.443 57.985C183.516 58.5303 184.349 59.9751 185.277 59.4299C188.207 57.7055 191.194 56.0905 194.224 54.546C195.59 53.8477 197.411 53.6109 197.595 51.9347C197.645 51.4747 197.169 51.1138 196.756 51.1069C191.549 51.0203 186.266 51.4776 181.533 53.804C178.702 55.1947 175.096 58.9508 176.418 62.4107C177.753 65.9061 183.256 64.2913 185.663 63.3806C190.517 61.5463 194.097 56.8198 197.299 52.9751C197.981 52.1557 196.814 50.9649 196.126 51.7897" fill="#3A8435"/>
<path d="M193.507 59.5552C189.631 63.551 188.934 69.8865 187.996 75.1096C186.8 81.7614 186.177 94.1462 178.405 96.5499C165.807 100.443 174.822 82.809 177.27 79.1553C180.686 74.0496 185.657 67.2443 191.431 64.5619C192.407 64.1083 191.565 62.6695 190.597 63.1183C184.302 66.0432 161.969 90.0144 171.737 96.929C177.301 100.867 183.535 96.7429 185.783 91.2744C187.848 86.2524 188.667 80.8591 189.606 75.5409C190.464 70.6719 191.075 64.4556 194.68 60.7406C195.428 59.9679 194.254 58.7838 193.507 59.5552Z" fill="#3A8435"/>
<path d="M189.324 63.5296C186.716 70.1315 183.459 76.4462 180.597 82.9375C180.168 83.9115 181.602 84.7623 182.034 83.7822C184.955 77.1522 188.272 70.7029 190.934 63.9609C191.329 62.9624 189.715 62.5423 189.324 63.5296Z" fill="#3A8435"/>
<path d="M207.314 -9.07258C185.504 -6.65529 164.447 -0.734851 147.262 13.4488C130.013 27.6863 119.116 48.334 108.308 67.4789C102.396 77.9515 96.268 88.2861 88.9669 97.8622C85.4323 102.497 81.6222 107.062 77.3589 111.042C76.0823 112.235 68.474 118.491 73.2386 112.413C75.0205 110.138 77.6706 108.392 79.7538 106.369C87.1299 99.2077 92.5719 90.0945 97.6394 81.2313C102.013 73.5783 106.982 64.7617 107.251 55.7262C107.268 55.16 106.935 54.746 106.341 54.7617C92.0374 55.1216 77.903 58.4092 63.6464 59.4961C61.0168 59.6958 58.3249 59.851 55.7096 59.4364C51.8796 58.8309 58.5728 56.8887 59.2164 56.7873C70.5424 54.9905 82.2221 55.0348 93.6217 53.7826C97.9597 53.3063 104.64 53.7331 108.075 50.7885C111.382 47.954 114.064 44.3514 116.678 40.9008C123.522 31.8636 129.151 22.1126 136.993 13.847C145.935 4.41965 157.492 -2.64641 169.553 -7.26927C175.864 -9.68861 182.511 -11.2023 189.096 -12.6424C192.125 -13.3052 195.164 -13.9193 198.197 -14.5585C203.717 -15.7199 206.689 -15.7412 205.649 -8.72804C205.491 -7.66433 207.136 -7.39394 207.293 -8.45632C207.759 -11.5986 207.08 -14.325 205.919 -17.2474C205.794 -17.5612 205.413 -17.8536 205.055 -17.7717C189.139 -14.1312 172.371 -11.9373 157.91 -3.84223C143.465 4.24175 132.593 14.9306 123.303 28.5443C118.916 34.9747 114.569 41.4478 109.327 47.2255C105.317 51.6466 99.0186 51.461 93.4468 52.1252C88.6204 52.6987 83.7709 53.0923 78.9264 53.4692C71.9196 54.014 64.8317 54.2106 57.8824 55.3137C55.6235 55.6714 54.0846 56.1059 52.9655 58.0419C50.6152 62.1083 61.4893 61.2897 62.6733 61.2278C73.9341 60.6432 85.1207 58.5541 96.31 57.2411C98.7295 56.9563 101.154 56.722 103.583 56.5463C106.835 56.3118 105.435 58.4438 104.817 61.122C103.107 68.5249 98.9783 75.5448 95.2455 82.0764C91.1821 89.1846 86.6521 95.9612 81.346 102.207C77.5177 106.713 71.1268 110.009 69.5389 116.016C69.3617 116.688 70.1197 117.087 70.6661 116.929C76.2246 115.313 80.2903 110.756 84.0004 106.539C89.4708 100.326 94.3331 93.6225 98.834 86.684C107.742 72.9552 114.998 58.2313 123.713 44.3806C132.792 29.9512 143.851 16.6336 158.379 7.45754C173.033 -1.7975 190.492 -5.53236 207.489 -7.41511C208.557 -7.53315 208.383 -9.19076 207.314 -9.07258" fill="#3A8435"/>
<path d="M95.8837 56.4798C94.975 66.1042 88.4168 73.5198 80.6479 78.6981C71.3256 84.9117 60.8454 85.8041 51.2945 79.8478C42.7854 74.5405 36.1368 76.2568 26.5071 77.4844C13.2236 79.1793 1.21613 69.4319 2.93597 55.7024C4.45079 43.6261 15.5477 40.3184 25.9157 39.8749C33.6372 39.5471 39.1448 39.1136 44.935 33.53C53.0546 25.7017 60.6045 22.3619 72.1307 24.7378C78.7859 26.1085 84.8922 29.8633 89.2359 35.0335C93.1501 39.6912 93.3474 46.5444 95.4172 52.0577C95.7942 53.0637 97.347 52.4561 96.9686 51.4489C94.7437 45.5202 94.1865 39.3996 90.5798 34.0471C87.7122 29.7911 82.7192 26.9687 78.1568 24.9361C68.735 20.7373 57.0714 20.9488 48.8815 27.5122C44.8267 30.7621 41.853 34.8299 36.9685 37.0009C31.3555 39.4982 23.9532 37.9717 17.9357 39.0234C8.08284 40.7412 2.27073 47.6169 1.05123 57.3451C-0.194045 67.2866 7.14303 75.0706 15.9467 78.0997C20.8744 79.7948 25.9757 79.3103 31.0083 78.53C35.8719 77.7743 40.5601 76.7421 45.4153 78.4622C48.9448 79.7135 52.0605 82.4189 55.4427 84.0799C72.5161 92.4604 95.9233 73.7845 97.528 56.7515C97.6287 55.6857 95.984 55.41 95.8837 56.4798Z" fill="#3A8435"/>
<path d="M85.7324 56.9046C82.09 65.7032 73.3067 71.0528 65.7176 76.1437C64.8249 76.7434 65.8139 78.0857 66.7054 77.4876C74.536 72.2331 83.4926 66.6708 87.2526 57.5889C87.664 56.5962 86.1438 55.9119 85.7324 56.9046" fill="#3A8435"/>
<path d="M83.5045 52.9474C76.5034 46.0987 67.4699 39.1628 57.0903 41.1868C56.0433 41.3911 56.2102 43.0494 57.2652 42.8443C67.227 40.9018 75.7599 47.6935 82.4547 54.2433C83.2244 54.9947 84.2643 53.6931 83.5045 52.9474Z" fill="#3A8435"/>
<path d="M53.9536 58.0527C40.3899 60.0144 26.6435 56.4945 13.3293 60.5804C12.3021 60.8966 12.9161 62.4461 13.9382 62.1331C27.0692 58.1027 40.7391 61.6468 54.1285 59.7102C55.1902 59.5566 55.0194 57.8987 53.9536 58.0527" fill="#3A8435"/>
<path d="M53.1539 56.8257C42.5793 53.8105 34.9092 44.56 23.1199 47.4809C22.0799 47.7395 22.7005 49.2883 23.7288 49.0336C34.8804 46.2698 42.8703 55.6165 52.8824 58.4713C53.9163 58.7657 54.1741 57.1163 53.1539 56.8257" fill="#3A8435"/>
<path d="M52.5376 59.9586C49.5183 67.5211 40.888 68.7922 33.717 69.5728C32.6487 69.6895 32.8235 71.3469 33.8918 71.2302C41.6739 70.3825 50.8061 68.7863 54.0564 60.6431C54.4554 59.6464 52.9364 58.9606 52.5376 59.9586" fill="#3A8435"/>
<path d="M55.5382 73.3028C59.5732 70.1702 62.2995 65.9823 65.2283 61.8697C65.8483 60.9985 64.5572 59.9442 63.9324 60.8212C61.0914 64.812 58.4677 68.9179 54.5504 71.9589C53.7041 72.6167 54.6868 73.9637 55.5382 73.3028Z" fill="#3A8435"/>
<path d="M66.2739 53.5948C62.3115 49.217 57.0642 46.4495 51.9615 43.6293C51.0189 43.1079 50.3433 44.6339 51.2758 45.1496C56.1106 47.8198 61.1755 50.4336 64.9313 54.5811C65.6446 55.3693 66.9963 54.3927 66.2739 53.5948Z" fill="#3A8435"/>
<path d="M82.7152 52.7045C84.763 46.5705 84.019 37.2424 78.7069 32.8943C77.8747 32.2125 76.8276 33.5082 77.6584 34.1901C82.3173 38.0024 82.9993 46.6157 81.195 52.0201C80.8578 53.0304 82.3749 53.7231 82.7152 52.7045" fill="#3A8435"/>
<path d="M70.5624 42.6131C71.0208 37.9728 70.4199 32.9373 66.7493 29.6871C65.9433 28.9731 64.8979 30.2726 65.7008 30.9829C68.8894 33.808 69.314 38.3405 68.9182 42.3414C68.812 43.4064 70.4566 43.6821 70.5624 42.6131Z" fill="#3A8435"/>
<path d="M103.18 78.2536C108.969 85.4541 108.391 96.6485 106.968 105.241C106.19 109.951 104.849 114.564 102.725 118.844C99.1589 126.024 93.3021 125.169 86.6904 124.795C73.1623 124.031 71.6937 143.091 60.66 147.392C49.8298 151.614 37.2664 144.349 32.5473 134.641C27.9095 125.107 33.1706 119.007 40.5665 113.927C44.1294 111.48 48.0535 108.313 48.9277 103.802C49.5052 100.812 49.2812 97.9889 48.6665 95.0089C47.5046 89.3838 46.7376 86.2684 53.328 83.8986C54.3394 83.5345 53.7293 81.9833 52.7191 82.346C44.3333 85.3623 45.7402 89.0404 47.2912 96.5497C49.6668 108.063 39.9459 111.082 33.166 117.476C27.6322 122.695 28.7161 130.567 31.7603 136.828C35.8041 145.142 45.1422 149.703 54.0213 150.028C61.9272 150.316 67.7353 146.034 71.7211 139.563C74.1146 135.677 76.1396 131.487 79.7241 128.533C84.4471 124.64 90.7907 127.633 96.2311 126.753C104.734 125.379 107.342 112.211 108.613 105.514C110.316 96.5554 110.526 84.7335 104.524 77.2672C103.854 76.4329 102.506 77.4144 103.18 78.2536" fill="#3A8435"/>
<path d="M49.2502 132.903C51.0946 116.49 64.4571 102.504 81.4721 102.859C82.5457 102.881 82.3575 101.223 81.2973 101.201C63.5836 100.833 49.5233 115.563 47.606 132.632C47.4851 133.697 49.1296 133.971 49.2502 132.903" fill="#3A8435"/>
<path d="M58.7489 134.782C61.7806 128.087 65.9448 121.998 71.0091 116.676C71.7501 115.897 70.4495 114.854 69.7132 115.628C64.5559 121.046 60.3159 127.28 57.23 134.098C56.7852 135.079 58.3064 135.761 58.7489 134.782Z" fill="#3A8435"/>
<path d="M85.8709 120.75C88.6736 115.836 88.8622 109.146 86.862 103.911C86.4787 102.909 84.9257 103.515 85.3093 104.52C87.1647 109.374 86.943 115.522 84.3521 120.065C83.8193 121.001 85.3451 121.675 85.8709 120.75" fill="#3A8435"/>
<path d="M98.8194 115.607C100.858 107.25 101.905 96.7596 96.8488 89.2498C96.248 88.3586 94.9054 89.345 95.5049 90.2363C100.3 97.3566 99.1007 107.433 97.1752 115.336C96.9196 116.383 98.5668 116.643 98.8194 115.607Z" fill="#3A8435"/>
<path d="M58.7071 94.8666C67.1289 89.0014 79.4192 87.0037 88.8107 91.691C89.7746 92.1726 90.4533 90.6503 89.4964 90.1707C79.57 85.2181 66.6134 87.3303 57.7193 93.5229C56.8376 94.1374 57.8254 95.4812 58.7071 94.8666Z" fill="#3A8435"/>
<path d="M69.4986 97.3889C72.8668 95.6124 75.0194 92.7722 77.0985 89.6676C77.6915 88.7819 76.4015 87.7247 75.8027 88.6191C73.9146 91.4381 71.9646 94.2153 68.8896 95.8362C67.951 96.3307 68.5472 97.8901 69.4986 97.3889" fill="#3A8435"/>
<path d="M60.1586 121.921C60.6608 117.772 61.4713 113.674 61.5576 109.484C61.5799 108.412 59.9225 108.6 59.9002 109.659C59.8162 113.693 58.998 117.655 58.5144 121.649C58.3854 122.714 60.0299 122.988 60.1586 121.921Z" fill="#3A8435"/>
<path d="M68.9379 132.839C68.5028 128.714 68.0675 124.587 67.6323 120.462C67.5196 119.393 65.8621 119.568 65.9748 120.637C66.41 124.762 66.8453 128.888 67.2804 133.014C67.3932 134.082 69.0506 133.907 68.9379 132.839Z" fill="#3A8435"/>
</g>
<defs>
<clipPath id="clip0_636_90">
<rect width="253" height="150" fill="white"/>
</clipPath>
</defs>
</svg>
