<svg width="147" height="126" viewBox="0 0 147 126" fill="none" xmlns="http://www.w3.org/2000/svg">
<path d="M127.215 96.645C116.79 84.1523 105.188 71.0966 89.2858 65.8184C80.968 63.0588 71.7756 63.2358 63.2222 61.6486C54.612 60.0526 43.1139 51.6752 40.115 42.9689C39.7654 41.9584 38.1478 42.3609 38.4981 43.378C40.2411 48.4363 46.2598 54.4995 50.4629 57.5683C57.5745 62.763 65.3233 63.8586 73.8753 64.8226C84.7672 66.0501 93.8335 68.4438 102.941 74.7615C111.864 80.9509 119.107 89.5243 126.012 97.8002C126.703 98.6277 127.898 97.4648 127.215 96.645Z" fill="#3A8435"/>
<path d="M100.037 73.8097C102.87 83.7116 86.7087 101.703 76.2965 96.3649C74.3186 95.3502 71.8179 90.2613 75.7002 89.0549C77.1676 88.5972 79.0745 88.6835 80.6177 88.5859C82.4359 88.472 84.1036 88.1444 85.7438 87.3442C89.5341 85.4949 90.0709 80.4935 88.6928 77.0924C87.3219 73.708 82.6797 72.9692 79.6241 73.6498C74.6877 74.75 70.5024 79.9161 67.1289 83.2782C64.7898 85.6067 62.4121 88.1434 59.2325 89.2747C55.591 90.5717 44.8849 85.8734 51.1112 84.4441C55.9046 83.3441 60.0652 82.9474 62.4187 78.2021C63.703 75.6149 61.9325 73.4203 59.7856 72.2072C55.132 69.5746 50.1222 72.3567 45.3996 72.8921C41.308 73.3578 37.0888 67.134 41.5496 65.988C42.2809 65.7996 43.0595 65.7325 43.8034 65.609C44.5334 65.4881 45.5327 65.2327 45.999 64.5901C47.7759 62.1349 44.2334 59.0668 42.3791 57.9643C38.1315 55.4369 30.1053 59.0735 25.7217 59.4538C19.6689 59.9793 15.5697 55.8317 13.5648 50.6268C12.8344 48.7286 12.5845 46.7192 12.5317 44.6969C12.2799 35.0098 19.6537 41.0776 21.5115 42.5157C23.4649 44.0279 27.0875 46.4113 29.294 43.7556C32.0904 40.3881 30.2634 37.1233 28.5029 33.5644C26.5115 29.5359 25.732 26.6386 28.0821 22.4281C31.8315 15.7084 41.134 15.4092 43.8755 23.2159C45.6172 28.1695 44.1326 32.9852 47.2928 37.5606C50.1427 41.6875 53.832 42.9033 56.8614 38.472C58.8376 35.5829 59.9189 32.023 61.4 28.8734C62.9974 25.4764 68.8089 18.9524 71.0205 25.9812C72.1367 29.5274 69.0874 34.7507 67.7889 37.9143C66.3651 41.3821 65.0581 44.9039 64.9468 48.6876C64.7406 55.7634 73.5594 60.0689 79.4715 56.561C82.9275 54.5095 84.7329 51.7873 84.1583 47.7039C83.8192 45.2969 82.0355 42.8927 81.2972 40.622C79.0778 33.7966 86.0638 30.7185 90.4019 34.8376C95.2163 39.4078 93.7057 44.9994 91.833 50.3941C91.1698 52.3082 90.3483 56.0337 92.6743 57.3317C95.1732 58.7279 97.3428 58.3469 99.5453 56.5267C101.349 55.0343 105.249 51.0902 107.263 57.1986C107.949 59.2819 106.682 62.3415 105.879 64.2112C104.812 66.6984 103.189 69.0777 101.405 71.0942C100.697 71.8935 101.847 73.1016 102.56 72.2965C105.636 68.8181 114.16 55.1663 105.402 52.5777C104.24 52.2352 103.068 52.0325 101.938 52.6818C100.371 53.5842 93.5104 59.9569 92.8017 54.0449C92.2332 49.3102 96.1317 45.3529 95.1816 40.2297C94.108 34.4511 86.4418 26.9353 81.3647 33.1378C78.6635 36.4393 79.3003 40.5721 80.8717 44.141C82.6991 48.2938 85.5773 52.5088 77.2391 55.6322C74.13 56.7962 70.5443 55.5861 68.2859 53.3586C65.7598 50.8692 66.6059 46.7611 67.4237 43.769C68.9995 38.0051 75.782 29.0737 71.4379 23.255C66.8108 17.0567 61.3167 25.1507 59.5414 28.9275C57.9502 32.3142 56.8573 36.3964 54.2046 39.1448C51.2155 42.2393 47.4743 34.8057 46.8926 33.0488C45.8264 29.8381 46.2418 26.13 45.4919 22.805C42.9375 11.4677 30.0812 15.4267 25.8979 22.9247C23.6678 26.9179 25.2049 30.5967 27.0441 34.3701C27.8245 35.9706 28.559 37.4709 29.0844 39.1896C31.6583 47.6243 23.1007 41.6371 22.3641 41.0837C20.8412 39.9458 18.9476 38.0517 16.9025 37.9421C6.36184 37.3784 12.2137 53.798 16.0475 57.7658C19.6057 61.4484 24.7669 61.3728 29.4415 60.6784C34.2749 59.9623 40.6954 56.6142 44.3678 62.1432C45.7352 64.2018 40.6793 64.455 39.7602 64.8156C37.3332 65.7696 37.7857 68.317 38.514 70.2838C40.1369 74.6655 44.6245 74.8793 48.4887 74.0656C51.9115 73.3444 54.5394 72.3657 58.1021 73.3199C62.3859 74.4676 61.0236 79.0753 58.0218 80.8463C56.6744 81.6393 54.8034 81.9358 53.2848 82.284C51.1613 82.77 46.2701 82.8249 45.9952 85.7756C45.7289 88.6182 52.7784 90.9796 54.768 91.1539C60.2562 91.6392 63.4493 89.1458 67.2369 85.5103C71.964 80.9772 79.2502 71.1058 86.4839 76.893C92.793 81.942 83.7748 86.6219 80.6308 86.9193C79.3145 87.045 77.9903 87.0852 76.6715 87.2125C74.9674 87.3772 73.6015 87.8364 72.4678 89.1073C70.6645 91.1326 72.6261 94.7708 73.9272 96.5184C75.8791 99.1408 79.6542 99.0344 82.4797 98.4588C92.2603 96.4705 104.7 84.0548 101.654 73.4006C101.358 72.3678 99.7405 72.7751 100.037 73.8097Z" fill="#3A8435"/>
</svg>
