<svg width="137" height="267" viewBox="0 0 137 267" fill="none" xmlns="http://www.w3.org/2000/svg">
<path d="M93.6487 9.1262C84.0496 23.4373 76.3045 39.3397 73.8464 56.56C71.4106 73.6203 75.8086 91.0839 77.0075 108.076C78.3884 127.64 75.6214 149.521 69.5174 168.114C62.8852 188.322 48.2907 204.229 34.4674 219.824C34.9029 220.162 35.3367 220.5 35.7719 220.839C46.5992 204.443 58.1036 188.461 66.0597 170.401C73.3271 153.901 75.2893 135.239 75.5655 117.393C75.8581 98.6315 70.3742 80.342 69.0319 61.7108C68.2846 51.312 69.9107 41.4311 74.6235 32.1367C78.9583 23.5833 83.8056 15.2913 88.6955 7.04628C89.2457 6.12129 87.8063 5.28049 87.258 6.20338C78.5403 20.8983 68.5402 35.4389 67.3542 52.8987C66.1009 71.3359 72.0087 89.7896 73.5737 108.053C75.2692 127.834 72.4678 148.994 65.4424 167.543C58.2519 186.527 45.4303 203.195 34.3346 219.996C33.8165 220.78 35.0123 221.716 35.6407 221.01C48.1294 206.918 60.2726 193.065 68.2606 175.839C76.3159 158.474 77.7883 137.988 78.843 119.128C79.8478 101.18 74.9401 83.4139 74.9214 65.4737C74.904 45.437 84.1563 26.2639 95.086 9.96974C95.6871 9.07606 94.2441 8.23819 93.6487 9.1262Z" fill="#3A8435"/>
<path d="M67.0508 68.8405C66.481 76.4383 60.8065 82.279 55.956 87.6467C53.5519 90.3083 42.1842 101.839 43.7199 91.9298C45.2776 81.8716 55.7599 66.2885 67.3678 68.2654C68.4186 68.4444 68.8592 66.8361 67.7992 66.6556C60.2665 65.3727 53.858 70.4349 49.5523 76.1647C45.7619 81.2076 40.9284 88.7992 42.0281 95.4877C43.0681 101.817 51.1985 94.7177 52.9609 93.0962C59.6323 86.9602 68.0072 78.3203 68.7174 68.8287C68.7975 67.7567 67.1293 67.775 67.0508 68.8405Z" fill="#3A8435"/>
<path d="M67.3439 67.7991C62.6125 72.387 57.4669 76.4606 54.0606 82.2028C53.5104 83.128 54.952 83.971 55.4979 83.0464C58.8303 77.4304 63.8943 73.466 68.517 68.9847C69.2906 68.2354 68.1151 67.0534 67.3439 67.7991Z" fill="#3A8435"/>
<path d="M75.2672 69.517C83.1284 68.2496 90.8403 76.086 95.5795 81.3288C100.057 86.2813 108.221 96.8104 104.281 103.934C98.2884 114.776 83.6517 94.1461 81.1366 89.7468C77.4236 83.2499 80.7877 73.1677 74.5375 68.3402C73.6881 67.6827 72.8558 69.1302 73.6942 69.7771C78.5741 73.5471 76.1734 82.9547 78.559 88.3574C80.9253 93.7191 84.809 98.6361 88.9548 102.724C93.6965 107.402 103.115 111.547 106.47 103.17C109.519 95.5601 101.234 85.3384 96.7646 80.1565C91.6983 74.2798 83.3084 66.5422 74.8276 67.9068C73.7667 68.0797 74.2146 69.6847 75.2672 69.517Z" fill="#3A8435"/>
<path d="M74.9728 70.36C84.3846 76.0664 89.3751 85.7339 95.2782 94.6234C95.8705 95.5139 97.3179 94.6868 96.7234 93.7889C90.6423 84.6365 85.4944 74.7888 75.8162 68.9225C74.8945 68.365 74.0546 69.8045 74.9728 70.36Z" fill="#3A8435"/>
<path d="M69.6495 82.0827C70.2043 92.8396 70.1283 101.623 65.1705 111.26C62.3438 116.751 49.7063 133.973 44.8425 120.541C42.2244 113.306 50.764 103.784 54.9903 98.9735C59.3794 93.9783 64.8696 88.2273 71.0549 85.4976C72.0382 85.0629 71.1955 83.6233 70.2218 84.0526C62.2894 87.5537 55.1213 95.5636 50.0523 102.334C45.6866 108.164 39.358 117.683 45.3152 124.495C51.3275 131.369 59.4046 122.975 62.9609 118.1C71.2063 106.796 72.0195 95.7196 71.3159 82.0713C71.2615 81.0022 69.5941 81.0066 69.6495 82.0827Z" fill="#3A8435"/>
<path d="M69.7401 85.4453C68.0043 94.1387 62.5112 101.173 57.9335 108.546C57.3651 109.462 58.8064 110.301 59.3709 109.389C64.0329 101.881 69.5844 94.7222 71.35 85.8767C71.5592 84.8279 69.95 84.3887 69.7401 85.4453Z" fill="#3A8435"/>
<path d="M76.7473 99.6064C84.7027 103.788 116.198 131.367 97.7545 137.422C78.4379 143.762 82.8202 109.243 78.6805 99.4494C78.262 98.461 76.8235 99.3066 77.2352 100.284C81.8539 111.2 77.8394 150.143 101.435 137.676C117.283 129.306 84.8983 102.007 77.5907 98.169C76.6412 97.6686 75.7961 99.1073 76.7473 99.6064Z" fill="#3A8435"/>
<path d="M78.8144 102.242C83.3589 109.401 87.613 116.728 91.6533 124.182C92.1672 125.129 93.6098 124.293 93.0981 123.349C89.0565 115.894 84.8025 108.568 80.2582 101.407C79.6823 100.502 78.2381 101.333 78.8144 102.242Z" fill="#3A8435"/>
<path d="M74.0604 107.59C73.1245 116.95 72.6518 125.597 68.0296 133.899C65.8663 137.784 57.8138 151.403 52.158 145.985C46.0938 140.175 54.8451 128.348 58.3674 123.568C62.4412 118.039 67.78 111.87 73.9386 108.606C74.8885 108.1 74.0531 106.659 73.1041 107.161C64.885 111.521 58.2447 120.193 53.3878 127.903C50.3503 132.722 45.1608 143.518 51.8132 147.931C57.7318 151.858 63.7686 143.315 66.663 139.221C73.6235 129.373 74.549 119.366 75.7269 107.578C75.8335 106.51 74.1663 106.53 74.0604 107.59Z" fill="#3A8435"/>
<path d="M73.5992 107.763C72.6515 114.318 68.7709 120.08 64.7525 125.185C64.0967 126.02 65.2624 127.213 65.926 126.37C70.1207 121.039 74.2179 115.051 75.2091 108.194C75.3619 107.145 73.7542 106.7 73.5992 107.763Z" fill="#3A8435"/>
<path d="M76.3415 136.664C83.4005 140.436 104.512 159.858 93.1617 167.634C84.2799 173.72 77.465 144.284 78.1654 138.909C78.3021 137.858 76.6927 137.414 76.5555 138.477C75.7119 144.943 82.1744 175.329 93.3712 169.407C108.206 161.565 84.9177 139.359 77.1849 135.227C76.2383 134.721 75.3937 136.157 76.3415 136.664Z" fill="#3A8435"/>
<path d="M77.1134 137.42C78.008 144.905 81.9952 151.44 84.2857 158.517C84.616 159.535 86.2266 159.103 85.8944 158.077C83.6535 151.16 79.6541 144.717 78.7803 137.407C78.654 136.354 76.9859 136.351 77.1134 137.42Z" fill="#3A8435"/>
<path d="M72.6762 137.164C71.1823 143.466 68.6483 149.312 64.994 154.651C63.2619 157.179 61.173 159.38 58.9327 161.451C55.5515 164.575 45.894 167.359 49.5312 158.9C53.5673 149.509 65.8755 143.602 73.8974 138.103C74.7776 137.497 73.952 136.05 73.063 136.658C66.0923 141.438 58.8918 145.881 52.8069 151.806C50.2944 154.254 44.3096 161.387 47.4948 165.253C50.7946 169.259 57.1828 165.009 60.1046 162.636C67.5788 156.569 72.1181 146.748 74.286 137.596C74.5325 136.552 72.9234 136.118 72.6762 137.164Z" fill="#3A8435"/>
<path d="M72.1299 138.678C68.5585 143.842 64.6572 148.619 59.9935 152.836C59.1952 153.559 60.3726 154.739 61.1668 154.021C65.9335 149.708 69.9182 144.8 73.5673 139.522C74.1812 138.637 72.7378 137.801 72.1299 138.678Z" fill="#3A8435"/>
<path d="M73.1158 160.79C77.2104 165.826 81.2598 170.851 84.5418 176.474C86.571 179.951 88.2902 183.822 88.2658 187.911C88.2431 192.009 83.0681 195.981 79.2563 193.804C74.305 190.976 74.3254 180.38 74.0494 175.614C73.7515 170.462 73.929 165.302 74.1007 160.148C74.136 159.074 72.469 159.087 72.4342 160.16C72.1854 167.585 69.301 196.741 82.0299 196.095C89.9645 195.692 90.7057 187.182 88.7382 181.445C85.9149 173.219 79.7012 166.262 74.3014 159.616C73.6211 158.78 72.444 159.964 73.1158 160.79Z" fill="#3A8435"/>
<path d="M72.7977 162.386C76.2671 168.844 79.4495 175.776 79.341 183.253C79.3253 184.327 80.9914 184.317 81.0075 183.242C81.1206 175.484 77.8424 168.255 74.2425 161.553C73.7319 160.604 72.2905 161.44 72.7977 162.386Z" fill="#3A8435"/>
<path d="M68.0823 159.699C64.1517 166.255 61.2587 172.214 55.494 177.331C52.5215 179.971 41.3111 189.956 37.3207 184.685C29.6421 174.545 61.5761 163.921 67.5056 162.552C68.5533 162.31 68.1117 160.703 67.0656 160.944C59.4923 162.693 26.7409 173.452 36.3499 186.145C39.9916 190.955 48.5483 184.732 51.6758 182.509C54.8215 180.273 57.7383 177.687 60.4527 174.949C64.5222 170.843 66.5914 165.428 69.5197 160.543C70.0735 159.62 68.6337 158.78 68.0823 159.699Z" fill="#3A8435"/>
<path d="M66.6514 161.596C61.938 166.911 56.2875 171.189 50.577 175.367C49.7184 175.995 50.543 177.446 51.4114 176.812C57.231 172.551 63.0169 168.2 67.8259 162.782C68.536 161.981 67.366 160.794 66.6514 161.596Z" fill="#3A8435"/>
<path d="M63.8883 182.885C68.0367 190.106 73.5177 206.088 69.1708 213.857C66.7066 218.263 60.1865 213.711 59.0102 210.812C57.6211 207.388 58.7818 203.045 59.646 199.645C61.0366 194.172 63.746 189.052 64.8802 183.521C64.3341 183.452 63.7887 183.38 63.2427 183.311C63.8659 190.346 64.3235 197.35 64.1025 204.413C64.0685 205.488 65.7367 205.475 65.769 204.401C65.99 197.338 65.5328 190.333 64.9092 183.3C64.8303 182.414 63.4711 182.114 63.2703 183.09C61.6092 191.185 57.2121 198.379 56.8052 206.806C56.5427 212.221 60.9995 218.683 67.2228 217.032C78.4921 214.044 68.8785 188.227 65.3331 182.052C64.7977 181.119 63.3541 181.953 63.8883 182.885Z" fill="#3A8435"/>
<path d="M57.6117 182.266C54.6613 188.517 49.7592 194.665 44.3394 199.004C41.6101 201.19 29.6172 209.912 27.5996 203.723C25.4652 197.177 37.1628 192.488 41.4716 190.713C46.447 188.666 51.6926 187.171 56.9408 186.001C57.9894 185.766 57.5488 184.16 56.5008 184.393C49.297 185.999 19.5591 193.213 26.7079 205.82C29.4824 210.714 38.6473 204.819 41.4429 203.071C48.8559 198.433 55.3327 190.983 59.049 183.11C59.5051 182.144 58.0708 181.295 57.6117 182.266Z" fill="#3A8435"/>
<path d="M57.159 183.375C52.2034 189.645 45.3608 193.638 38.3856 197.301C37.4328 197.802 38.2695 199.244 39.2187 198.746C46.315 195.017 53.291 190.938 58.3326 184.559C58.9921 183.725 57.8236 182.533 57.159 183.375Z" fill="#3A8435"/>
<path d="M47.6618 206.329C50.5504 209.634 51.7091 214.623 52.7463 218.773C53.7728 222.891 55.7663 230.762 52.531 234.398C50.0576 237.179 46.1598 232.346 45.4151 230.453C44.3798 227.82 44.5695 224.732 44.778 221.971C45.1805 216.636 46.7262 211.016 48.9732 206.164C49.4215 205.197 47.9872 204.347 47.5358 205.321C44.515 211.84 42.7117 219.41 43.0207 226.607C43.1988 230.749 46.2258 238.132 51.8023 236.572C61.4795 233.864 52.9904 209.898 48.8472 205.156C48.137 204.345 46.9583 205.524 47.6618 206.329Z" fill="#3A8435"/>
<path d="M46.8196 207.684C48.4512 213.382 49.432 219.195 48.9156 225.13C48.821 226.2 50.4905 226.182 50.5821 225.119C51.1122 219.045 50.0955 213.072 48.4283 207.244C48.1323 206.211 46.5234 206.647 46.8196 207.684Z" fill="#3A8435"/>
<path d="M42.1263 206.79C40.1312 209.187 38.1204 211.55 35.8202 213.664C33.2483 216.029 28.2046 219.197 24.5881 217.461C22.3926 216.407 24.9209 213.138 25.7414 212.178C27.1647 210.514 29.4583 209.655 31.47 209.004C35.0787 207.839 39.0065 207.712 42.7683 207.773C42.4886 207.498 42.208 207.222 41.9283 206.946C41.9018 207.18 38.0231 208.802 37.3931 209.128C35.04 210.348 32.7274 211.642 30.4434 212.985C29.516 213.53 30.3491 214.975 31.2765 214.43C34.2067 212.706 37.1945 211.09 40.2241 209.546C41.59 208.848 43.4107 208.611 43.5948 206.935C43.6449 206.475 43.1687 206.114 42.7565 206.107C37.5495 206.02 32.2657 206.478 27.533 208.804C24.702 210.195 21.0963 213.951 22.4178 217.411C23.7533 220.906 29.2561 219.291 31.6631 218.381C36.5166 216.546 40.0966 211.82 43.2995 207.975C43.9814 207.156 42.8139 205.965 42.1263 206.79Z" fill="#3A8435"/>
<path d="M39.5066 214.555C35.6311 218.551 34.9342 224.886 33.9958 230.11C32.8 236.761 32.1774 249.146 24.4051 251.55C11.8069 255.443 20.8221 237.809 23.2698 234.155C26.6863 229.05 31.6571 222.244 37.4308 219.562C38.4067 219.108 37.5651 217.669 36.5973 218.118C30.3017 221.043 7.96855 245.014 17.7371 251.929C23.3007 255.867 29.5353 251.743 31.7833 246.274C33.8481 241.252 34.6665 235.859 35.6056 230.541C36.4644 225.672 37.0754 219.456 40.6798 215.741C41.4279 214.968 40.2544 213.784 39.5066 214.555Z" fill="#3A8435"/>
<path d="M35.3245 218.53C32.7163 225.131 29.4589 231.446 26.5974 237.937C26.168 238.912 27.6019 239.762 28.0343 238.782C30.9551 232.152 34.272 225.703 36.9344 218.961C37.3289 217.962 35.7147 217.542 35.3245 218.53Z" fill="#3A8435"/>
</svg>
