<svg width="227" height="115" viewBox="0 0 227 115" fill="none" xmlns="http://www.w3.org/2000/svg">
<g clip-path="url(#clip0_624_30)">
<path d="M195.501 88.8094C180.865 88.8094 169.001 76.9453 169.001 62.3094C169.001 47.6747 180.865 35.8094 195.501 35.8094C210.136 35.8094 222.001 47.6747 222.001 62.3094C222.001 76.9453 210.136 88.8094 195.501 88.8094Z" fill="#AADE81"/>
<path d="M198.486 19.5664C207.25 24.5541 215.85 31.1787 218.834 41.2222C221.491 50.1625 215.163 58.3546 208.815 63.7668C200.895 70.5178 190.802 74.9873 180.847 77.7445C174.384 79.5362 165.012 81.2045 159.334 76.4411C147.941 66.8832 153.035 46.3192 156.286 34.1134C158.258 26.7121 161.711 18.4391 169.341 15.3042C179.302 11.2153 188.945 15.4107 198.324 19.078C199.379 19.4898 198.919 21.2063 197.853 20.7889C190.097 17.7562 182.536 14.3218 173.998 15.6777C164.954 17.1145 160.554 25.5933 158.287 33.5384C155.049 44.8781 151.638 59.6069 156.949 70.7776C164.456 86.5641 191.969 72.6731 201.683 66.7171C209.53 61.9069 217.177 54.9159 217.569 45.1167C218.007 34.1645 205.879 25.8148 197.59 21.0998C196.595 20.5347 197.489 19.0013 198.486 19.5664" fill="#3A8435"/>
<path d="M198.325 19.0779C210.939 24.0755 212.224 6.82098 217.917 -0.12881C218.276 0.336876 218.635 0.802573 218.993 1.26684C211.525 6.53846 201.022 10.0496 199.348 20.2208C199.163 21.3481 197.452 20.8682 197.637 19.7494C199.402 9.02873 210.22 5.29473 218.097 -0.266524C218.982 -0.891224 219.764 0.405004 219.173 1.12767C212.942 8.7334 211.762 26.3003 197.854 20.7887C196.803 20.3727 197.261 18.6548 198.325 19.0779" fill="#3A8435"/>
<path d="M197.387 18.4932C199.28 11.9764 199.594 5.09193 195.527 -0.675187C196.037 -0.675187 196.547 -0.675187 197.059 -0.675187C193.597 5.00817 193.73 14.1998 198.314 19.2542C199.083 20.099 197.83 21.3583 197.061 20.5093C191.933 14.8571 191.633 4.82075 195.527 -1.57107C195.894 -2.17448 196.679 -2.11059 197.059 -1.57107C201.381 4.55525 201.114 12.0247 199.098 18.9646C198.78 20.0606 197.068 19.5935 197.387 18.4932" fill="#3A8435"/>
<path d="M198.666 19.7055C206.913 26.8725 218.618 25.4385 225.502 17.1769C225.633 17.671 225.763 18.1664 225.894 18.6605C221.591 17.1896 216.705 14.3629 212.055 15.6038C210.948 15.8991 210.48 14.1883 211.584 13.8929C216.677 12.5328 221.646 15.3354 226.365 16.9497C227.031 17.1769 227.195 17.9066 226.757 18.4334C219.222 27.4759 206.339 28.7197 197.41 20.962C196.544 20.2095 197.805 18.9601 198.666 19.7055" fill="#3A8435"/>
<path d="M212.859 41.7744C212.191 43.0905 211.042 43.9736 209.9 44.8582C209.006 45.5482 207.74 44.3016 208.644 43.6017C209.663 42.8137 210.732 42.0513 211.329 40.8786C211.847 39.8577 213.377 40.7564 212.859 41.7744" fill="#3A8435"/>
<path d="M198.935 31.6146C197.596 32.6865 196.644 34.0821 195.697 35.492C195.062 36.4361 193.523 35.5488 194.163 34.5961C195.188 33.0699 196.232 31.5195 197.679 30.3581C198.563 29.651 199.828 30.8976 198.935 31.6146Z" fill="#3A8435"/>
<path d="M179.943 22.4035C178.779 23.0069 177.971 23.9666 177.478 25.1791C177.054 26.2255 175.336 25.7697 175.767 24.7077C176.43 23.0722 177.454 21.6964 179.047 20.8701C180.062 20.3448 180.961 21.8767 179.943 22.4035Z" fill="#3A8435"/>
<path d="M198.846 45.0769C197.845 46.2283 196.811 47.3556 195.441 48.0712C194.429 48.5994 193.53 47.0674 194.545 46.5364C195.785 45.8918 196.686 44.8625 197.591 43.8204C198.342 42.9558 199.593 44.2179 198.846 45.0769Z" fill="#3A8435"/>
<path d="M184.802 36.747C183.745 37.5904 182.866 38.6339 181.981 39.6519C181.227 40.5165 179.979 39.2558 180.725 38.3954C181.609 37.3788 182.488 36.3353 183.547 35.4905C184.432 34.7863 185.697 36.0329 184.802 36.747" fill="#3A8435"/>
<path d="M198.353 58.4897C196.473 59.9634 194.745 61.6217 192.862 63.0968C191.972 63.7925 190.707 62.546 191.609 61.8403C193.488 60.368 195.216 58.7097 197.098 57.2346C197.986 56.536 199.254 57.784 198.353 58.4897Z" fill="#3A8435"/>
<path d="M184.13 50.2977C183.133 51.0445 182.007 51.5996 181.009 52.3478C180.092 53.035 179.209 51.4931 180.114 50.8145C181.112 50.0677 182.236 49.5125 183.234 48.7643C184.151 48.0771 185.034 49.619 184.13 50.2977" fill="#3A8435"/>
<path d="M169.819 36.6718C168.801 38.1753 167.689 39.6008 166.792 41.1838C166.228 42.1791 164.695 41.2846 165.26 40.2879C166.156 38.7049 167.267 37.2794 168.287 35.7759C168.924 34.8346 170.462 35.7219 169.819 36.6718Z" fill="#3A8435"/>
<path d="M181.264 61.2029C179.985 62.2096 178.867 63.3979 177.588 64.4059C176.699 65.1059 175.434 63.8593 176.333 63.1509C177.612 62.1442 178.731 60.9545 180.01 59.9464C180.898 59.2479 182.163 60.4945 181.264 61.2029Z" fill="#3A8435"/>
<path d="M170.043 49.9667C168.963 51.209 167.866 52.4386 166.718 53.6241C165.92 54.4462 164.667 53.1897 165.463 52.3676C166.61 51.1835 167.708 49.9554 168.791 48.7103C169.542 47.8442 170.793 49.1064 170.043 49.9667Z" fill="#3A8435"/>
<path d="M167.534 66.3865C166.576 67.4868 165.617 68.59 164.66 69.6932C163.909 70.5578 162.659 69.297 163.405 68.4367C164.362 67.3349 165.321 66.2332 166.279 65.13C167.031 64.2654 168.281 65.5261 167.534 66.3865Z" fill="#3A8435"/>
<path d="M175.627 72.0753C174.389 72.7213 173.486 73.7521 172.583 74.7928C171.829 75.6574 170.58 74.3967 171.328 73.5363C172.329 72.3863 173.361 71.259 174.731 70.542C175.745 70.0138 176.642 71.5443 175.627 72.0753" fill="#3A8435"/>
<path d="M161.236 54.9642C160.398 55.6314 159.877 56.435 159.409 57.3891C158.906 58.4171 157.376 57.5169 157.877 56.4933C158.402 55.4213 159.04 54.4601 159.984 53.7077C160.868 53.0034 162.132 54.25 161.236 54.9642" fill="#3A8435"/>
<path d="M169.318 23.7391C168.242 24.9956 167.296 26.3557 165.991 27.3964C165.105 28.1006 163.84 26.8541 164.736 26.1399C166.041 25.1006 166.986 23.7405 168.064 22.4826C168.809 21.6137 170.057 22.873 169.318 23.7391Z" fill="#3A8435"/>
<path d="M209.956 54.8761C209.255 55.8969 208.419 56.8382 207.448 57.6106C206.563 58.3148 205.298 57.0668 206.192 56.3555C207.041 55.6797 207.808 54.8761 208.424 53.9817C209.068 53.0446 210.607 53.9305 209.956 54.8761Z" fill="#3A8435"/>
<path d="M199.122 19.1081C201.202 17.102 203.309 15.1228 205.218 12.9477C205.975 12.0873 207.224 13.3481 206.473 14.2042C204.562 16.3765 202.455 18.3571 200.375 20.3646C199.552 21.1583 198.295 19.9061 199.122 19.1081Z" fill="#3A8435"/>
<path d="M122.036 62.8265C108.48 64.4718 93.4084 71.5083 88.5297 85.1649C88.401 85.5266 88.6718 85.9283 89.0187 86.0257C96.8152 88.2183 106.529 85.4413 113.427 81.7784C117.111 79.8207 119.835 77.1302 122.205 73.7331C123.831 71.4042 127.585 66.2368 127.585 63.3402C127.585 62.953 127.267 62.6486 126.885 62.6407C125.252 62.606 123.665 62.737 122.036 62.8265C121.138 62.8758 121.134 64.2748 122.036 64.2255C122.186 64.2177 126.056 63.629 125.62 64.5109C124.916 65.9357 124.21 67.3571 123.484 68.7697C121.768 72.0994 119.704 75.1681 116.975 77.748C111.042 83.3576 101.26 85.192 93.3837 85.3005C89.7149 85.3521 90.2253 84.2753 91.5258 81.7492C92.3798 80.0883 93.6008 78.5952 94.8029 77.1896C97.0469 74.5647 99.9189 72.5235 102.825 70.7061C108.568 67.1131 115.343 65.0381 122.036 64.2255C122.92 64.1192 122.93 62.7191 122.036 62.8265" fill="#3A8435"/>
<path d="M125.085 63.7775C119.722 68.1065 114.012 71.8401 108.038 75.2629C102.255 78.5756 96.3553 83.0931 89.7653 84.4909C88.8833 84.6779 89.2571 86.0262 90.1369 85.8395C96.4246 84.5052 101.539 80.417 107.086 77.396C113.783 73.7485 120.141 69.5558 126.074 64.768C126.776 64.2005 125.78 63.2167 125.085 63.7775" fill="#3A8435"/>
<path d="M93.0566 82.4887C98.7904 77.3192 104.512 72.1022 111.569 68.794C112.386 68.4114 111.675 67.2047 110.863 67.5851C103.697 70.9449 97.8895 76.2503 92.0673 81.4984C91.3957 82.1039 92.3885 83.0907 93.0566 82.4887" fill="#3A8435"/>
<path d="M105.413 81.6649C109.473 79.8483 112.921 77.2282 116.375 74.4682C117.079 73.9042 116.083 72.9213 115.385 73.4779C112.02 76.1684 108.66 78.6875 104.708 80.456C103.885 80.8241 104.597 82.0308 105.413 81.6649Z" fill="#3A8435"/>
<path d="M114.366 69.5404C116.107 68.785 117.913 68.2017 119.59 67.302C120.384 66.8754 119.679 65.6667 118.885 66.0931C117.209 66.993 115.399 67.5762 113.661 68.3317C112.835 68.6919 113.548 69.8964 114.366 69.5404" fill="#3A8435"/>
<path d="M139.041 67.6949C127.751 75.2641 117.495 88.2562 119.233 102.585C119.29 103.056 119.634 103.354 120.119 103.258C127.639 101.784 134.761 95.4271 139.242 89.4773C141.723 86.1822 143.51 82.4441 144.013 78.3218C144.401 75.1391 145.732 68.5322 144.243 65.5931C144.061 65.2339 143.612 65.1857 143.285 65.3413C141.813 66.0475 140.456 66.8791 139.041 67.6949C138.26 68.1448 138.965 69.3549 139.748 68.9038C143.224 66.8993 143.049 67.2415 143.062 71.186C143.077 75.7892 142.655 80.3155 140.694 84.5392C137.559 91.2948 131.247 96.2408 124.997 99.9452C121.156 102.224 120.294 102 120.407 97.7618C120.52 93.4821 122.269 89.285 124.202 85.5566C127.706 78.7945 133.475 73.1087 139.748 68.9038C140.493 68.4045 139.793 67.1913 139.041 67.6949" fill="#3A8435"/>
<path d="M142.289 67.0144C139.184 73.8784 135.407 80.3104 131.203 86.5558C127.746 91.6942 124.946 97.6733 120.02 101.586C119.314 102.148 120.312 103.13 121.01 102.576C125.541 98.9748 128.149 93.7358 131.241 88.9612C135.726 82.033 140.085 75.2666 143.498 67.7192C143.866 66.9047 142.661 66.1928 142.289 67.0144Z" fill="#3A8435"/>
<path d="M122.09 98.2596C124.855 91.1168 127.58 83.9301 132.336 77.8352C132.883 77.1335 131.9 76.1349 131.345 76.8458C126.433 83.1445 123.597 90.5056 120.742 97.8872C120.416 98.7296 121.769 99.0912 122.09 98.2596" fill="#3A8435"/>
<path d="M135.169 77.2398C136.417 75.7324 137.812 74.3566 138.932 72.745C139.448 72.0019 138.235 71.3036 137.723 72.039C136.673 73.55 135.349 74.8371 134.18 76.2492C133.609 76.94 134.594 77.935 135.169 77.2398Z" fill="#3A8435"/>
<path d="M182.516 143.642C172.343 137.065 160.291 133.276 149.197 128.535C135.813 122.814 122.39 117.484 108.712 112.508C84.8314 103.82 57.5725 94.8947 45.6374 70.4278C45.2443 69.6211 43.9527 70.1597 44.349 70.9731C48.9402 80.3852 56.2884 88.9772 65.0222 94.7234C75.6811 101.738 88.6704 106.418 100.526 110.96C114 116.121 127.593 120.798 140.862 126.489C147.882 129.5 154.887 132.563 161.946 135.479C168.704 138.272 175.488 140.759 181.664 144.754C182.416 145.239 183.274 144.133 182.516 143.642Z" fill="#3A8435"/>
<path d="M127.114 119.434C115.812 121.099 104.535 119.534 93.5239 116.836C81.5202 113.893 69.6575 109.725 58.9605 103.483C42.9447 94.1388 31.0826 73.5456 11.2787 71.4206C10.3819 71.3229 10.19 72.7094 11.0868 72.8064C22.0032 73.9769 30.958 82.1254 39.045 88.9073C47.5141 96.0099 54.9253 103.265 64.9082 108.288C83.1824 117.481 106.837 123.835 127.297 120.821C128.189 120.69 128.007 119.303 127.114 119.434Z" fill="#3A8435"/>
<path d="M12.4541 71.6079C9.08048 71.0144 3.37107 69.8899 0.738194 72.772C-2.15039 75.9321 5.75822 78.4776 7.11959 78.8448C8.38495 79.1859 18.8945 83.4771 18.7059 83.6387C16.6485 85.4064 13.4882 86.2158 11.1132 87.4926C8.57383 88.8587 6.38711 91.0663 8.88826 93.5696C13.3245 98.0081 22.0451 97.0817 27.6885 97.8255C28.656 97.9537 37.5012 99.9399 33.4361 102.269C32.2048 102.973 30.8127 103.443 29.5363 104.062C28.1686 104.725 24.5665 106.661 24.5002 108.623C24.0778 121.021 57.414 108.428 62.3062 107.192C63.1705 106.974 62.9974 105.585 62.1232 105.805C52.2839 108.289 42.3544 112.844 31.9768 112.43C28.992 112.31 24.5334 109.337 28.1943 106.554C29.9385 105.228 32.0235 104.492 33.9809 103.557C34.8676 103.134 36.9197 101.873 36.2446 100.539C33.21 94.5394 20.8846 96.0463 15.4892 95.0427C13.3031 94.6365 6.77263 92.5169 10.4005 89.5865C11.741 88.5034 13.488 87.832 15.0413 87.1124C16.8605 86.2692 19.1007 85.5185 20.3965 83.8998C20.6213 83.6189 20.5831 83.1234 20.267 82.9182C16.5929 80.5431 12.6559 78.8456 8.42473 77.759C6.92545 77.3733 5.51513 76.9089 4.08726 76.3286C3.62719 75.203 3.16719 74.078 2.70712 72.9524C3.6039 72.6475 4.5236 72.4821 5.46474 72.4536C7.6945 72.2579 10.065 72.6066 12.261 72.9938C13.1519 73.1497 13.3392 71.7624 12.4541 71.6079Z" fill="#3A8435"/>
<path d="M45.2812 69.8549C41.4284 64.9016 39.9061 58.6245 39.4399 52.4636C39.3739 51.0303 39.4146 49.6015 39.5642 48.1772C40.412 47.706 41.2587 47.2362 42.1054 46.7651C43.9882 48.4835 45.1212 50.6624 45.5044 53.3019C46.335 56.6716 46.2498 60.116 47.2943 63.4641C47.4568 63.9851 48.1945 63.9981 48.4942 63.6167C49.6586 62.1402 50.2387 60.1961 50.9402 58.4798C51.5078 57.0917 52.1132 55.7242 52.7657 54.3725C53.1998 53.4699 53.706 52.6088 54.2824 51.7924C55.7972 49.5142 59.5013 50.4565 59.3883 53.2541C59.1579 58.9268 54.608 63.9987 54.9874 69.7158C55.0161 70.1472 55.5637 70.4728 55.9533 70.2683C57.2712 69.5786 58.5522 68.823 59.8613 68.1181C60.6433 67.7048 61.4483 67.346 62.2785 67.0416C63.4005 67.6476 64.5233 68.2522 65.6452 68.8575C65.1365 69.8793 64.5108 70.8182 63.7659 71.6755C60.6751 75.5789 56.9932 78.8869 54.4633 83.2256C54.015 83.9948 55.1197 84.8558 55.5736 84.0771C57.7344 80.3722 60.7162 77.4741 63.4299 74.1946C64.8543 72.4721 66.9278 70.622 67.2538 68.266C67.9152 63.4735 61.1965 65.9165 59.3152 66.8283C58.5334 67.2093 56.3658 68.6802 56.3944 68.3492C56.5275 66.7485 57.2238 65.1462 57.7498 63.6393C58.6971 60.928 59.7201 58.2595 60.4318 55.4735C61.0221 53.162 60.8929 47.3307 56.7878 48.3119C52.7364 49.2808 51.0589 54.5447 49.6506 57.9373C49.1648 59.1074 48.6942 60.2808 48.1773 61.4373C47.328 63.4112 47.1561 62.6643 47.6625 59.1954C47.4925 57.8463 47.3369 56.4954 47.1956 55.1425C46.8706 52.1736 46.0555 48.5966 43.7816 46.4382C40.3577 43.1869 38.3549 45.6678 38.0545 49.6124C37.5101 56.7642 39.7664 65.045 44.1764 70.7129C44.7285 71.4237 45.8359 70.5676 45.2812 69.8549" fill="#3A8435"/>
<path d="M78.3918 121.031C72.1704 117.788 62.4636 114.628 55.9676 118.69C55.6453 118.892 55.6249 119.396 55.8431 119.673C56.3415 120.301 59.6384 123.736 60.1827 123.259C58.7532 124.514 56.6253 124.857 55.3144 126.293C53.4075 128.38 54.6746 130.942 57.256 131.632C64.0735 133.455 78.084 131.183 78.7749 122.266C78.845 121.368 77.459 121.174 77.3892 122.074C76.9185 128.133 68.4483 130.529 63.3825 130.835C62.0171 130.917 60.6802 130.812 59.327 130.661C57.493 130.622 56.6797 129.335 56.8894 126.799C57.5349 126.37 58.2036 125.979 58.8934 125.628C60.0153 125.027 61.1733 124.477 61.9216 123.415C62.1916 123.031 62.0511 122.548 61.6369 122.344C59.8113 121.445 56.0176 119.395 60.178 118.499C62.4284 118.015 64.8417 118.355 67.0878 118.693C70.8208 119.256 74.5086 120.579 77.8498 122.322C78.6522 122.739 79.1847 121.444 78.3918 121.031" fill="#3A8435"/>
</g>
<defs>
<clipPath id="clip0_624_30">
<rect width="227" height="115" fill="white"/>
</clipPath>
</defs>
</svg>
