<svg width="229" height="173" viewBox="0 0 229 173" fill="none" xmlns="http://www.w3.org/2000/svg">
<path d="M212.314 8.92742C190.504 11.3447 169.447 17.2651 152.262 31.4488C135.013 45.6863 124.116 66.334 113.308 85.4789C107.396 95.9515 101.268 106.286 93.9669 115.862C90.4323 120.497 86.6222 125.062 82.3589 129.042C81.0823 130.235 73.474 136.491 78.2386 130.413C80.0205 128.138 82.6706 126.392 84.7538 124.369C92.1299 117.208 97.5719 108.094 102.639 99.2313C107.013 91.5783 111.982 82.7617 112.251 73.7262C112.268 73.16 111.935 72.746 111.341 72.7617C97.0374 73.1216 82.903 76.4092 68.6464 77.4961C66.0168 77.6958 63.3249 77.851 60.7096 77.4364C56.8796 76.8309 63.5728 74.8887 64.2164 74.7873C75.5424 72.9905 87.2221 73.0348 98.6217 71.7826C102.96 71.3063 109.64 71.7331 113.075 68.7885C116.382 65.954 119.064 62.3514 121.678 58.9008C128.522 49.8636 134.151 40.1126 141.993 31.847C150.935 22.4197 162.492 15.3536 174.553 10.7307C180.864 8.31138 187.511 6.79767 194.096 5.35755C197.125 4.69485 200.164 4.08066 203.197 3.44155C208.717 2.28013 211.689 2.25876 210.649 9.27197C210.491 10.3357 212.136 10.6061 212.293 9.54368C212.759 6.40143 212.08 3.67497 210.919 0.752639C210.794 0.438753 210.413 0.146374 210.055 0.228316C194.139 3.86883 177.371 6.06269 162.91 14.1578C148.465 22.2418 137.593 32.9306 128.303 46.5443C123.916 52.9747 119.569 59.4478 114.327 65.2255C110.317 69.6466 104.019 69.461 98.4468 70.1252C93.6204 70.6987 88.7709 71.0923 83.9264 71.4692C76.9196 72.014 69.8317 72.2106 62.8824 73.3137C60.6235 73.6714 59.0846 74.1059 57.9655 76.0419C55.6152 80.1083 66.4893 79.2897 67.6733 79.2278C78.9341 78.6432 90.1207 76.5541 101.31 75.2411C103.729 74.9563 106.154 74.722 108.583 74.5463C111.835 74.3118 110.435 76.4438 109.817 79.122C108.107 86.5249 103.978 93.5448 100.246 100.076C96.1821 107.185 91.6521 113.961 86.346 120.207C82.5177 124.713 76.1268 128.009 74.5389 134.016C74.3617 134.688 75.1197 135.087 75.6661 134.929C81.2246 133.313 85.2903 128.756 89.0004 124.539C94.4708 118.326 99.3331 111.623 103.834 104.684C112.742 90.9552 119.998 76.2313 128.713 62.3806C137.792 47.9512 148.851 34.6336 163.379 25.4575C178.033 16.2025 195.492 12.4676 212.489 10.5849C213.557 10.4668 213.383 8.80924 212.314 8.92742Z" fill="#3A8435"/>
<path d="M100.884 74.4798C99.975 84.1042 93.4168 91.5198 85.6479 96.6981C76.3256 102.912 65.8454 103.804 56.2945 97.8478C47.7854 92.5405 41.1368 94.2568 31.5071 95.4844C18.2236 97.1793 6.21613 87.4319 7.93597 73.7024C9.45078 61.6261 20.5477 58.3184 30.9157 57.8749C38.6372 57.5471 44.1448 57.1136 49.935 51.53C58.0546 43.7017 65.6045 40.3619 77.1307 42.7378C83.7859 44.1085 89.8922 47.8633 94.2359 53.0335C98.1501 57.6912 98.3474 64.5444 100.417 70.0577C100.794 71.0637 102.347 70.4561 101.969 69.4489C99.7437 63.5202 99.1865 57.3996 95.5798 52.0471C92.7122 47.7911 87.7192 44.9687 83.1568 42.9361C73.735 38.7373 62.0714 38.9488 53.8815 45.5122C49.8267 48.7621 46.853 52.8299 41.9685 55.0009C36.3555 57.4982 28.9532 55.9717 22.9357 57.0234C13.0828 58.7412 7.27073 65.6169 6.05123 75.3451C4.80596 85.2866 12.143 93.0706 20.9467 96.0997C25.8744 97.7948 30.9757 97.3103 36.0083 96.53C40.8719 95.7743 45.5601 94.7421 50.4153 96.4622C53.9448 97.7135 57.0605 100.419 60.4427 102.08C77.5161 110.46 100.923 91.7845 102.528 74.7515C102.629 73.6857 100.984 73.41 100.884 74.4798Z" fill="#3A8435"/>
<path d="M90.7324 74.9046C87.09 83.7032 78.3067 89.0528 70.7176 94.1437C69.8249 94.7434 70.8139 96.0857 71.7054 95.4876C79.536 90.2331 88.4926 84.6708 92.2526 75.5889C92.664 74.5962 91.1438 73.9119 90.7324 74.9046Z" fill="#3A8435"/>
<path d="M88.5045 70.9474C81.5034 64.0987 72.4699 57.1628 62.0903 59.1868C61.0433 59.3911 61.2102 61.0494 62.2652 60.8443C72.227 58.9018 80.7599 65.6935 87.4547 72.2433C88.2244 72.9947 89.2643 71.6931 88.5045 70.9474Z" fill="#3A8435"/>
<path d="M58.9536 76.0527C45.3899 78.0144 31.6435 74.4945 18.3293 78.5804C17.3021 78.8966 17.9161 80.4461 18.9382 80.1331C32.0692 76.1027 45.7391 79.6468 59.1285 77.7102C60.1902 77.5566 60.0194 75.8987 58.9536 76.0527Z" fill="#3A8435"/>
<path d="M58.1539 74.8257C47.5793 71.8105 39.9092 62.56 28.1199 65.4809C27.0799 65.7395 27.7005 67.2883 28.7288 67.0336C39.8804 64.2698 47.8703 73.6165 57.8824 76.4713C58.9163 76.7657 59.1741 75.1163 58.1539 74.8257Z" fill="#3A8435"/>
<path d="M57.5376 77.9586C54.5183 85.5211 45.888 86.7922 38.717 87.5728C37.6487 87.6895 37.8235 89.3469 38.8918 89.2302C46.6739 88.3825 55.8061 86.7863 59.0564 78.6431C59.4554 77.6464 57.9364 76.9606 57.5376 77.9586Z" fill="#3A8435"/>
<path d="M60.5382 91.3028C64.5732 88.1702 67.2995 83.9823 70.2283 79.8697C70.8483 78.9985 69.5572 77.9442 68.9324 78.8212C66.0914 82.812 63.4677 86.9179 59.5504 89.9589C58.7041 90.6167 59.6868 91.9637 60.5382 91.3028Z" fill="#3A8435"/>
<path d="M71.2739 71.5948C67.3115 67.217 62.0642 64.4495 56.9615 61.6293C56.0189 61.1079 55.3433 62.6339 56.2758 63.1496C61.1106 65.8198 66.1755 68.4336 69.9313 72.5811C70.6446 73.3693 71.9963 72.3927 71.2739 71.5948Z" fill="#3A8435"/>
<path d="M87.7152 70.7045C89.763 64.5705 89.019 55.2424 83.7069 50.8943C82.8747 50.2125 81.8276 51.5082 82.6584 52.1901C87.3173 56.0024 87.9993 64.6157 86.195 70.0201C85.8578 71.0304 87.3749 71.7231 87.7152 70.7045Z" fill="#3A8435"/>
<path d="M75.5624 60.6131C76.0208 55.9728 75.4199 50.9373 71.7493 47.6871C70.9433 46.9731 69.8979 48.2726 70.7008 48.9829C73.8894 51.808 74.314 56.3405 73.9182 60.3414C73.812 61.4064 75.4566 61.6821 75.5624 60.6131Z" fill="#3A8435"/>
<path d="M108.18 96.2536C113.969 103.454 113.391 114.649 111.968 123.241C111.19 127.951 109.849 132.564 107.725 136.844C104.159 144.024 98.3021 143.169 91.6904 142.795C78.1623 142.031 76.6937 161.091 65.66 165.392C54.8298 169.614 42.2664 162.349 37.5473 152.641C32.9095 143.107 38.1706 137.007 45.5664 131.927C49.1294 129.48 53.0535 126.313 53.9277 121.802C54.5052 118.812 54.2812 115.989 53.6665 113.009C52.5046 107.384 51.7376 104.268 58.328 101.899C59.3394 101.534 58.7293 99.9833 57.7191 100.346C49.3333 103.362 50.7402 107.04 52.2912 114.55C54.6668 126.063 44.9459 129.082 38.166 135.476C32.6322 140.695 33.7161 148.567 36.7603 154.828C40.8041 163.142 50.1422 167.703 59.0213 168.028C66.9272 168.316 72.7353 164.034 76.7211 157.563C79.1146 153.677 81.1396 149.487 84.7241 146.533C89.4471 142.64 95.7907 145.633 101.231 144.753C109.734 143.379 112.342 130.211 113.613 123.514C115.316 114.555 115.526 102.733 109.524 95.2672C108.854 94.4329 107.506 95.4144 108.18 96.2536Z" fill="#3A8435"/>
<path d="M54.2502 150.903C56.0946 134.49 69.4571 120.504 86.4721 120.859C87.5457 120.881 87.3575 119.223 86.2973 119.201C68.5836 118.833 54.5233 133.563 52.606 150.632C52.4851 151.697 54.1296 151.971 54.2502 150.903Z" fill="#3A8435"/>
<path d="M63.7489 152.782C66.7806 146.087 70.9448 139.998 76.0091 134.676C76.7501 133.897 75.4495 132.854 74.7132 133.628C69.5559 139.046 65.3159 145.28 62.23 152.098C61.7852 153.079 63.3064 153.761 63.7489 152.782Z" fill="#3A8435"/>
<path d="M90.8709 138.75C93.6736 133.836 93.8622 127.146 91.862 121.911C91.4787 120.909 89.9257 121.515 90.3093 122.52C92.1647 127.374 91.943 133.522 89.3521 138.065C88.8193 139.001 90.3451 139.675 90.8709 138.75Z" fill="#3A8435"/>
<path d="M103.819 133.607C105.858 125.25 106.905 114.76 101.849 107.25C101.248 106.359 99.9054 107.345 100.505 108.236C105.3 115.357 104.101 125.433 102.175 133.336C101.92 134.383 103.567 134.643 103.819 133.607Z" fill="#3A8435"/>
<path d="M63.7071 112.867C72.1289 107.001 84.4192 105.004 93.8107 109.691C94.7746 110.173 95.4533 108.65 94.4964 108.171C84.57 103.218 71.6134 105.33 62.7193 111.523C61.8376 112.137 62.8254 113.481 63.7071 112.867Z" fill="#3A8435"/>
<path d="M74.4986 115.389C77.8668 113.612 80.0194 110.772 82.0985 107.668C82.6915 106.782 81.4015 105.725 80.8027 106.619C78.9146 109.438 76.9646 112.215 73.8896 113.836C72.951 114.331 73.5472 115.89 74.4986 115.389Z" fill="#3A8435"/>
<path d="M65.1586 139.921C65.6608 135.772 66.4713 131.674 66.5576 127.484C66.5799 126.412 64.9225 126.6 64.9002 127.659C64.8162 131.693 63.998 135.655 63.5144 139.649C63.3854 140.714 65.0299 140.988 65.1586 139.921Z" fill="#3A8435"/>
<path d="M73.9379 150.839C73.5028 146.714 73.0675 142.587 72.6323 138.462C72.5196 137.393 70.8621 137.568 70.9748 138.637C71.41 142.762 71.8453 146.888 72.2804 151.014C72.3932 152.082 74.0506 151.907 73.9379 150.839Z" fill="#3A8435"/>
</svg>
