<svg width="239" height="148" viewBox="0 0 239 148" fill="none" xmlns="http://www.w3.org/2000/svg">
<g clip-path="url(#clip0_701_27)">
<path d="M11.3333 34.6667C5.07467 34.6667 0 29.5934 0 23.3334C0 17.0747 5.07467 12.0001 11.3333 12.0001C17.592 12.0001 22.6667 17.0747 22.6667 23.3334C22.6667 29.5934 17.592 34.6667 11.3333 34.6667Z" fill="#AADE81"/>
<path d="M297.15 -11.876C267.006 -5.87682 237.215 2.21623 207.422 9.73885C192.728 13.451 177.971 16.9157 162.905 18.7275C156.605 19.4858 150.222 19.8858 143.878 19.6782C139.858 19.5473 135.847 18.9329 131.832 18.685C126.779 18.3736 128.849 23.441 129.073 26.7216C129.379 31.1891 130.8 31.1097 135.005 31.4283C138.214 31.6717 141.467 31.4417 144.67 31.2341C150.905 30.8297 157.093 29.8878 163.335 29.5861C178.471 28.8529 193.275 25.989 207.86 21.9786C222.983 17.8217 238.153 13.837 253.195 9.38646C260.344 7.2696 267.446 4.99544 274.501 2.58915C278.192 1.33247 301.136 -4.34993 296.692 -10.7564C296.08 -11.6402 297.55 -12.4285 298.157 -11.5547C299.77 -9.22807 300.942 -6.33793 297.753 -4.67123C290.579 -0.921624 282.525 1.55955 274.902 4.20842C256.928 10.4523 238.518 15.387 220.163 20.3599C203.676 24.8263 187.365 29.2052 170.301 30.7941C163.09 31.4668 155.861 31.8525 148.646 32.5614C141.819 33.2311 134.81 33.7283 128.096 32.029C127.741 31.9407 127.488 31.5756 127.499 31.2151C127.624 26.7262 126.674 22.355 126.326 17.8964C126.289 17.4229 126.754 17.0956 127.173 17.078C133.596 16.7972 139.926 17.8815 146.335 18.0907C154.05 18.3423 161.942 17.2766 169.55 16.1732C183.774 14.11 197.747 10.4703 211.664 6.94883C239.908 -0.201905 268.169 -7.80641 296.75 -13.495C297.802 -13.7036 298.204 -12.0866 297.15 -11.876Z" fill="#3A8435"/>
<path d="M127.223 19.2619C120.372 16.9736 113.316 16.8969 106.241 18.0592C106.418 17.6554 106.595 17.2541 106.773 16.8506C111.027 22.7677 121.731 23.413 128.242 25.2388C129.278 25.5295 128.806 27.1278 127.771 26.8376C120.652 24.8415 109.997 24.1667 105.308 17.6487C105.006 17.2267 105.35 16.5208 105.841 16.4401C113.195 15.2322 120.576 15.2854 127.694 17.6631C128.711 18.0036 128.244 19.6034 127.223 19.2619" fill="#3A8435"/>
<path d="M127.992 26.8708C121.23 26.9082 111.871 27.8377 107.156 33.3062C107.112 32.867 107.068 32.429 107.023 31.9913C111.992 34.7202 124.614 35.6425 128.702 30.9584C129.408 30.1496 130.546 31.3688 129.845 32.1722C127.379 34.9994 122.873 35.2924 119.389 35.5014C115.137 35.7555 109.967 35.5066 106.145 33.4074C105.634 33.1267 105.682 32.4759 106.012 32.0925C111.044 26.2567 120.803 25.2432 128.021 25.2051C129.099 25.1979 129.065 26.8656 127.992 26.8708" fill="#3A8435"/>
<path d="M108.597 21.0688C106.735 21.5056 104.877 21.9355 103.045 22.4969C101.584 22.9445 97.9997 23.9192 97.8421 25.86C97.6205 28.5655 107.539 28.9177 109.405 29.4187C110.445 29.6979 109.971 31.2958 108.934 31.0174C106.067 30.2461 103.054 30.1039 100.165 29.4021C98.1621 28.9162 96.398 28.0724 96.1743 25.8312C95.7416 21.4731 105.444 20.0962 108.196 19.4521C109.245 19.2055 109.644 20.8243 108.597 21.0688Z" fill="#3A8435"/>
<path d="M105.252 18.3488C99.9371 16.9893 94.1643 18.3535 89.3834 20.8326C89.4941 20.457 89.6054 20.0792 89.7161 19.7035C90.9436 22.2317 93.1582 23.1979 95.713 23.9951C96.739 24.3153 96.2693 25.9144 95.242 25.5939C92.2619 24.6643 89.6674 23.4166 88.2515 20.4992C88.0569 20.0981 88.1673 19.5866 88.5842 19.3701C93.772 16.6796 99.9698 15.2788 105.723 16.7501C106.766 17.0167 106.291 18.6158 105.252 18.3488" fill="#3A8435"/>
<path d="M96.832 26.4069C93.2587 27.6889 89.9043 29.2282 86.8412 31.4913C86.7969 31.052 86.7535 30.614 86.7087 30.1763C91.9381 33.0347 99.9641 34.6054 105.634 32.2689C106.618 31.8638 107.427 33.3236 106.433 33.733C100.16 36.3181 91.63 34.7646 85.8301 31.5924C85.3944 31.354 85.2727 30.5921 85.6976 30.2775C88.9914 27.8445 92.5908 26.1674 96.4319 24.7878C97.4454 24.424 97.8317 26.0472 96.832 26.4069" fill="#3A8435"/>
<path d="M89.1076 22.7418C85.4127 23.7855 81.8619 25.0242 79.1181 27.8265C79.0059 27.3581 78.8939 26.8891 78.7819 26.42C82.1872 27.388 85.6346 27.9438 89.1697 28.122C90.2421 28.1762 90.2139 29.843 89.1403 29.7883C85.4588 29.6023 81.8584 29.0275 78.3109 28.0188C77.6836 27.841 77.5412 27.0552 77.9745 26.6128C80.9142 23.6128 84.748 22.2437 88.7076 21.1227C89.7448 20.8294 90.1377 22.4491 89.1076 22.7418" fill="#3A8435"/>
<path d="M127.998 18.9961C124.595 16.2371 119.52 15.1436 115.352 14.1708C112.966 13.6117 110.529 13.2115 108.076 13.1514C104.555 13.0641 105.589 14.6934 107.625 16.5042C108.427 17.2167 107.209 18.3554 106.412 17.6455C102.127 13.8394 104.004 11.2432 109.275 11.5309C115.415 11.8656 123.978 13.6092 128.877 17.58C129.701 18.2463 128.833 19.6737 127.998 18.9961" fill="#3A8435"/>
<path d="M129.766 32.3477C124.633 39.4305 114.452 43.3961 105.92 41.2501C105.59 41.1666 105.279 40.7882 105.323 40.4362C105.663 37.6795 106.061 34.9824 106.763 32.29C107.035 31.249 108.633 31.7224 108.362 32.761C108.065 33.7892 107.822 34.8292 107.635 35.8835C107.03 38.8352 106.355 39.8662 109.324 40.1628C111.535 40.3853 113.77 39.966 115.911 39.4564C120.709 38.3125 125.441 35.484 128.35 31.4691C128.976 30.6054 130.398 31.4753 129.766 32.3477Z" fill="#3A8435"/>
<path d="M105.852 17.1061C101.331 14.8645 95.9602 13.8671 90.949 13.7172C89.2893 13.6654 86.2254 13.5392 85.1012 15.0811C83.7588 16.92 88.4694 20.4824 89.5145 21.3604C90.3341 22.0509 89.1135 23.1888 88.3005 22.504C86.3026 20.8213 83.1655 18.3675 83.2875 15.4058C83.3691 13.416 85.614 12.6233 87.2273 12.2994C93.3673 11.0714 101.224 12.9582 106.731 15.69C107.693 16.1661 106.808 17.5804 105.852 17.1061" fill="#3A8435"/>
<path d="M107.632 34.837C101.377 39.8982 93.1071 40.8605 85.3227 41.1734C84.7906 41.1959 84.3713 40.5999 84.5381 40.1045C85.5487 37.1081 87.0645 34.4825 88.847 31.8764C89.4507 30.9927 90.8711 31.8663 90.2631 32.7551C88.5681 35.2339 87.1026 37.7125 86.1368 40.5755C85.8758 40.2206 85.614 39.8638 85.3521 39.5071C92.6544 39.2124 100.606 38.3841 106.488 33.6233C107.318 32.9529 108.47 34.1582 107.632 34.837" fill="#3A8435"/>
<path d="M87.0918 21.8029C83.0221 20.2592 77.9234 20.8355 74.0219 22.6418C73.5779 22.8466 71.2859 23.9361 71.8816 24.7169C72.3661 25.351 73.3392 25.596 74.0587 25.8101C75.7885 26.3268 77.6218 26.4923 79.4139 26.6374C80.481 26.7237 80.4553 28.3913 79.3844 28.3037C76.6825 28.0861 72.8727 27.9817 70.7695 25.9721C69.4049 24.6686 70.477 22.9593 71.7012 22.0738C75.8594 19.061 82.8321 18.4085 87.5628 20.2041C88.5619 20.5826 88.0983 22.1846 87.0918 21.8029Z" fill="#3A8435"/>
<path d="M80.0964 27.651C77.5823 29.6784 74.8753 31.3839 72.7196 33.8177C72.6074 33.3493 72.4952 32.8807 72.3832 32.4117C77.0846 34.1606 82.1343 34.7605 87.1307 34.6444C88.2083 34.6198 88.1717 36.2868 87.1013 36.3107C81.9744 36.4308 76.7367 35.8038 71.9122 34.0104C71.2898 33.7781 71.1445 33.092 71.5758 32.6044C73.7316 30.1702 76.4399 28.465 78.9526 26.4378C79.7836 25.7687 80.9352 26.9741 80.0964 27.651" fill="#3A8435"/>
<path d="M70.2196 25.5172C68.5228 25.9594 63.8581 26.5533 63.3434 28.3004C63.1557 27.9563 62.9671 27.6102 62.7795 27.2656C66.033 28.7063 69.4786 29.7024 72.8858 30.7062C73.9167 31.0099 73.4457 32.6086 72.4148 32.3049C69.0076 31.3011 65.562 30.305 62.3085 28.8643C61.8927 28.681 61.6037 28.308 61.7447 27.8294C62.5589 25.0657 67.3778 24.5334 69.8195 23.8981C70.8613 23.6268 71.2572 25.2457 70.2196 25.5172Z" fill="#3A8435"/>
<path d="M138.017 18.5876C138.308 20.3131 138.343 22.1857 139.133 23.7786C138.698 23.71 138.262 23.6404 137.828 23.5706C139.651 21.8622 141.541 20.2295 143.455 18.6259C144.276 17.9392 145.425 19.1466 144.599 19.8396C142.685 21.4433 140.794 23.0761 138.972 24.7843C138.591 25.1419 137.909 25.0614 137.668 24.5767C136.804 22.8301 136.717 20.8786 136.398 18.9875C136.221 17.9325 137.839 17.5279 138.017 18.5876Z" fill="#3A8435"/>
<path d="M156.15 30.8519C155.426 30.2097 154.781 29.4794 154.094 28.7992C153.542 28.2537 152.423 26.9795 151.533 27.1054C151.035 27.1759 150.689 29.1344 150.588 29.5201C150.377 30.3221 150.232 31.1419 150.012 31.9414C149.727 32.9788 148.129 32.5068 148.413 31.4704C148.916 29.6435 149.015 26.2206 151.133 25.4862C153.424 24.6934 155.966 28.4683 157.364 29.7084C158.168 30.4211 156.949 31.5598 156.15 30.8519Z" fill="#3A8435"/>
<path d="M173.75 16.4312C174.124 19.1097 173.209 21.6851 172.103 24.0861C171.915 24.4949 171.301 24.5788 170.956 24.355C168.928 23.0465 167.79 20.8597 165.975 19.3258C165.156 18.6338 166.375 17.4961 167.189 18.1823C168.886 19.6177 169.945 21.7197 171.834 22.9389C171.452 23.0287 171.07 23.1182 170.688 23.2081C171.582 21.2627 172.437 19.0062 172.131 16.831C171.983 15.7749 173.601 15.368 173.75 16.4312" fill="#3A8435"/>
<path d="M181.811 28.6822C180.871 27.8092 179.855 26.7379 178.618 26.299C177.355 25.8493 176.917 27.8487 176.689 28.6812C176.405 29.7189 174.807 29.2469 175.09 28.2102C175.537 26.5789 176.336 24.5299 178.342 24.5617C180.147 24.5896 181.811 26.4127 183.025 27.5387C183.811 28.2698 182.597 29.4107 181.811 28.6822Z" fill="#3A8435"/>
<path d="M198.862 11.7002C199.129 14.1615 199.007 16.5283 198.495 18.9472C198.424 19.2819 198.025 19.5836 197.681 19.5446C194.647 19.2073 192.22 15.9582 190.357 13.8251C189.653 13.0176 190.861 11.8695 191.572 12.6815C192.384 13.6132 193.21 14.5299 194.084 15.4052C195.017 16.3382 196.32 17.7237 197.711 17.8783C197.439 18.0779 197.169 18.2779 196.896 18.4762C197.379 16.2005 197.445 13.9793 197.196 11.6709C197.079 10.6038 198.748 10.6476 198.862 11.7002" fill="#3A8435"/>
<path d="M209.962 22.2936C208.64 21.2635 207.108 19.2739 205.364 19.0388C204.223 18.8854 203.687 22.9415 203.662 23.7128C203.628 24.7876 201.961 24.7579 201.996 23.6836C202.056 21.79 202.61 18.4063 204.558 17.5116C206.722 16.5203 209.378 19.7353 210.84 20.8774C211.679 21.5316 210.81 22.9562 209.962 22.2936" fill="#3A8435"/>
<path d="M231.639 23.9967C202.344 33.2969 173.633 44.6391 144.856 55.4144C130.663 60.7309 116.381 65.8083 101.608 69.2774C95.4305 70.7286 89.1314 71.8329 82.8034 72.3292C78.7935 72.6442 74.7389 72.4778 70.7212 72.6759C65.6651 72.926 68.2832 77.7331 68.8698 80.9686C69.6685 85.3747 71.0714 85.1385 75.2861 84.9895C78.502 84.8761 81.7102 84.2872 84.8701 83.7263C91.0221 82.634 97.0673 81.0127 103.238 80.0215C118.2 77.6168 132.595 73.1313 146.646 67.5305C161.217 61.7244 175.852 56.0845 190.308 49.9957C197.179 47.1002 203.986 44.0536 210.731 40.8808C214.26 39.2232 236.434 31.0351 231.308 25.16C230.601 24.3496 231.976 23.4032 232.675 24.2044C234.536 26.3382 236.021 29.0808 233.036 31.0904C226.322 35.6113 218.591 38.9691 211.308 42.4458C194.137 50.6415 176.386 57.5846 158.695 64.5593C142.803 70.824 127.078 76.9821 110.295 80.4507C103.202 81.9178 96.0604 83.1017 88.9689 84.6051C82.2575 86.0267 75.3467 87.297 68.4864 86.3516C68.124 86.3031 67.8313 85.9683 67.803 85.6088C67.4295 81.1337 66.0012 76.8946 65.1621 72.5019C65.0729 72.0354 65.4986 71.6586 65.9135 71.5947C72.2654 70.6045 78.6768 70.9811 85.0693 70.4794C92.7651 69.8751 100.491 67.942 107.929 66.0029C121.838 62.3773 135.321 57.2128 148.763 52.1719C176.041 41.9376 203.286 31.2504 231.062 22.4319C232.085 22.1081 232.663 23.6706 231.639 23.9967Z" fill="#3A8435"/>
<path d="M66.2049 73.7593C59.1424 72.2438 52.122 72.9488 45.2187 74.8875C45.3502 74.4665 45.4813 74.0482 45.6142 73.6273C50.4964 79.0371 61.2067 78.493 67.8796 79.5867C68.9415 79.7608 68.6491 81.4017 67.5885 81.2278C60.2918 80.0324 49.6283 80.5414 44.2462 74.5828C43.899 74.1969 44.1629 73.4572 44.6417 73.3227C51.8172 71.3078 59.1583 70.5434 66.496 72.1183C67.5447 72.344 67.2575 73.9857 66.2049 73.7593" fill="#3A8435"/>
<path d="M67.8118 81.2363C61.0953 82.0223 51.8969 83.9824 47.8165 89.9394C47.7238 89.5078 47.6322 89.0773 47.5392 88.6473C52.7795 90.8092 65.4259 90.3282 68.9698 85.2202C69.5826 84.3381 70.8485 85.4239 70.2408 86.2999C68.1028 89.3828 63.6565 90.1731 60.2173 90.7665C56.0198 91.4898 50.8543 91.815 46.8228 90.152C46.284 89.9295 46.2602 89.2773 46.5455 88.8598C50.9 82.5028 60.4867 80.4148 67.6564 79.5776C68.727 79.4511 68.8778 81.1124 67.8118 81.2363" fill="#3A8435"/>
<path d="M47.8934 77.6179C46.0912 78.2582 44.2917 78.8913 42.5331 79.6521C41.131 80.2587 37.6767 81.6243 37.735 83.5706C37.8143 86.2841 47.7104 85.5358 49.621 85.827C50.685 85.9893 50.3913 87.6299 49.3299 87.4681C46.3952 87.0189 43.3847 87.2113 40.436 86.8337C38.3915 86.5726 36.5448 85.9293 36.0742 83.7267C35.1616 79.4432 44.6514 77.0005 47.3161 76.0555C48.3308 75.6944 48.9063 77.2591 47.8934 77.6179Z" fill="#3A8435"/>
<path d="M44.2682 75.285C38.8352 74.5224 33.249 76.5174 28.772 79.5107C28.8404 79.1252 28.9092 78.7374 28.9776 78.3518C30.4776 80.7284 32.7855 81.4435 35.4129 81.9529C36.4681 82.1575 36.1783 83.7988 35.1218 83.5939C32.0571 83.0001 29.3404 82.0474 27.6102 79.3047C27.3724 78.9276 27.4254 78.407 27.8157 78.1457C32.6737 74.8973 38.6784 72.8188 44.5593 73.6439C45.6256 73.7934 45.3303 75.4353 44.2682 75.285" fill="#3A8435"/>
<path d="M36.7918 84.2259C33.3825 85.8957 30.2191 87.797 27.4255 90.3853C27.3328 89.9537 27.2412 89.5232 27.1482 89.0931C32.662 91.3548 40.8125 92.0272 46.189 89.0771C47.122 88.5655 48.0871 89.9269 47.145 90.4437C41.1969 93.7076 32.5473 93.1082 26.4318 90.5978C25.9723 90.4091 25.7671 89.6654 26.1545 89.3056C29.1587 86.5229 32.5502 84.4575 36.2149 82.6611C37.1819 82.1872 37.7456 83.7577 36.7918 84.2259" fill="#3A8435"/>
<path d="M28.709 81.4388C25.1524 82.8852 21.7605 84.5095 19.3439 87.5984C19.1806 87.1453 19.0173 86.6915 18.854 86.2378C22.3455 86.8227 25.8333 86.9934 29.3664 86.779C30.4382 86.7141 30.5948 88.3738 29.5217 88.4383C25.8422 88.6611 22.2004 88.4885 18.563 87.8788C17.9198 87.7716 17.6913 87.0064 18.073 86.5187C20.6623 83.2117 24.321 81.4265 28.1321 79.8739C29.1304 79.4675 29.7003 81.0338 28.709 81.4388" fill="#3A8435"/>
<path d="M66.9463 73.4095C63.2587 71.0443 58.0937 70.5195 53.8432 70.0142C51.4101 69.7228 48.9438 69.5949 46.5 69.8067C42.9904 70.1099 44.1982 71.6147 46.4228 73.1889C47.2987 73.8082 46.2142 75.0748 45.3433 74.4575C40.6638 71.1493 42.2417 68.3612 47.512 68.0634C53.651 67.7163 62.3544 68.5009 67.6628 71.9048C68.5555 72.4758 67.8508 73.9905 66.9463 73.4095" fill="#3A8435"/>
<path d="M70.1818 86.4833C65.8641 94.091 56.1848 99.1596 47.4677 97.9716C47.1306 97.9251 46.7796 97.5835 46.7842 97.2288C46.8178 94.4513 46.9138 91.7268 47.3142 88.9732C47.4692 87.9084 49.1098 88.202 48.9552 89.2642C48.7736 90.319 48.6478 91.3795 48.5788 92.448C48.3038 95.4486 47.7473 96.548 50.7311 96.5139C52.9534 96.4902 55.1281 95.826 57.1991 95.0825C61.8405 93.4144 66.2304 90.0793 68.6772 85.7669C69.2033 84.8393 70.7137 85.5462 70.1818 86.4833Z" fill="#3A8435"/>
<path d="M44.7267 73.9834C39.9848 72.2563 34.537 71.8597 29.5399 72.2656C27.8847 72.3979 24.8257 72.6117 23.8791 74.2687C22.7486 76.2449 27.8247 79.2637 28.9606 80.0207C29.8517 80.6161 28.7645 81.8822 27.8808 81.2916C25.7088 79.8405 22.3193 77.7492 22.1125 74.7922C21.9734 72.8056 24.1166 71.7692 25.6842 71.2686C31.6504 69.3683 39.6674 70.3735 45.4432 72.4787C46.452 72.8454 45.7289 74.349 44.7267 73.9834" fill="#3A8435"/>
<path d="M48.4596 91.4083C42.8039 97.1309 34.6909 99.0031 26.989 100.176C26.4627 100.257 25.98 99.7115 26.0909 99.2006C26.7636 96.1107 27.9793 93.3334 29.4622 90.546C29.9643 89.6009 31.4727 90.3118 30.9669 91.2624C29.5569 93.9137 28.3748 96.5394 27.732 99.4917C27.4333 99.1679 27.1335 98.8422 26.8338 98.5168C34.0585 97.4152 41.8694 95.7116 47.1886 90.3286C47.9393 89.5705 49.2173 90.6408 48.4596 91.4083" fill="#3A8435"/>
<path d="M26.6021 80.7286C22.3865 79.6451 17.383 80.7824 13.7055 83.0097C13.2869 83.2624 11.1297 84.599 11.8081 85.309C12.3599 85.8856 13.3541 86.0213 14.0929 86.1544C15.8693 86.4764 17.7097 86.4379 19.5067 86.3837C20.5768 86.3513 20.736 88.0114 19.662 88.043C16.9526 88.1258 13.1546 88.444 10.8419 86.6796C9.34135 85.5353 10.2176 83.7177 11.3362 82.7021C15.1352 79.2475 21.9927 77.8269 26.8932 79.0876C27.928 79.3531 27.6447 80.9966 26.6021 80.7286Z" fill="#3A8435"/>
<path d="M20.2972 87.3156C18.0231 89.6089 15.5216 91.6038 13.6486 94.2612C13.4853 93.8081 13.3219 93.3549 13.1586 92.9012C18.0248 94.1187 23.1098 94.1557 28.0627 93.4871C29.1309 93.3433 29.2791 95.0041 28.218 95.1464C23.1359 95.8335 17.861 95.7903 12.8676 94.5422C12.2233 94.3803 12.0028 93.7145 12.3776 93.1821C14.2506 90.5241 16.7534 88.5295 19.0261 86.2365C19.7779 85.4795 21.0559 86.55 20.2972 87.3156" fill="#3A8435"/>
<path d="M10.2453 86.2883C8.60794 86.9157 4.03773 88.0225 3.71964 89.8159C3.49496 89.4946 3.26924 89.1716 3.04466 88.8498C6.43765 89.9214 9.97239 90.5298 13.4698 91.1502C14.5279 91.3378 14.2369 92.9789 13.1787 92.7912C9.68131 92.1709 6.14657 91.5624 2.75358 90.4909C2.32001 90.3548 1.99145 90.0161 2.07859 89.5248C2.58178 86.6879 7.31207 85.6253 9.66844 84.7235C10.6738 84.3385 11.2466 85.9036 10.2453 86.2883Z" fill="#3A8435"/>
<path d="M76.8591 71.8941C77.3393 73.5768 77.5813 75.434 78.5429 76.9296C78.1023 76.9096 77.6618 76.8887 77.2228 76.8674C78.8448 74.9678 80.5429 73.1358 82.2674 71.33C83.0072 70.5566 84.2835 71.6294 83.5384 72.4096C81.8139 74.2154 80.1158 76.0475 78.4938 77.947C78.1552 78.3445 77.468 78.3401 77.175 77.8851C76.1226 76.2449 75.8204 74.315 75.2944 72.4708C75.0015 71.4419 76.5644 70.8606 76.8591 71.8941Z" fill="#3A8435"/>
<path d="M96.2382 82.0752C95.4474 81.5172 94.7256 80.8628 93.9677 80.2628C93.3585 79.7818 92.1056 78.6393 91.2344 78.863C90.7478 78.9882 90.6205 80.973 90.5627 81.3675C90.4416 82.188 90.389 83.0187 90.2586 83.8377C90.0905 84.9003 88.4496 84.6081 88.6176 83.5466C88.9143 81.6754 88.634 78.2625 90.6576 77.2981C92.8464 76.2565 95.791 79.7267 97.3184 80.8043C98.1955 81.4237 97.1109 82.6903 96.2382 82.0752Z" fill="#3A8435"/>
<path d="M112.132 65.7939C112.801 68.4145 112.176 71.0755 111.343 73.5842C111.202 74.0113 110.6 74.1628 110.233 73.9785C108.073 72.9025 106.7 70.8552 104.726 69.5318C103.835 68.9347 104.921 67.669 105.806 68.2608C107.651 69.4995 108.936 71.4714 110.949 72.4738C110.579 72.6055 110.209 72.7366 109.839 72.8683C110.512 70.8359 111.112 68.4985 110.567 66.3706C110.304 65.3373 111.866 64.7538 112.132 65.7939" fill="#3A8435"/>
<path d="M121.499 77.0774C120.469 76.3138 119.341 75.3616 118.063 75.0625C116.758 74.7553 116.544 76.7909 116.409 77.6435C116.242 78.7063 114.602 78.4142 114.768 77.3524C115.032 75.6817 115.599 73.5569 117.596 73.3664C119.393 73.1942 121.248 74.8218 122.58 75.8065C123.442 76.4461 122.361 77.7144 121.499 77.0774Z" fill="#3A8435"/>
<path d="M136.566 58.3113C137.104 60.7279 137.245 63.0936 137.004 65.5544C136.97 65.8949 136.607 66.2389 136.261 66.2383C133.208 66.239 130.436 63.2786 128.349 61.3649C127.56 60.6404 128.633 59.3655 129.429 60.0939C130.34 60.9299 131.262 61.7494 132.228 62.5226C133.258 63.3465 134.707 64.5793 136.106 64.5789C135.858 64.8073 135.611 65.036 135.363 65.2633C135.59 62.9482 135.41 60.7332 134.907 58.4667C134.673 57.4191 136.336 57.2778 136.566 58.3113" fill="#3A8435"/>
<path d="M148.771 67.6106C147.343 66.7332 145.6 64.9255 143.841 64.8849C142.69 64.8589 142.606 68.9494 142.667 69.7187C142.752 70.7906 141.092 70.9457 141.008 69.8741C140.858 67.9855 141.034 64.5614 142.871 63.4564C144.912 62.2316 147.908 65.1327 149.487 66.1059C150.393 66.6632 149.688 68.1752 148.771 67.6106" fill="#3A8435"/>
<path d="M240.998 94.9138C232.407 97.4345 219.574 103.657 218.25 113.758C217.413 120.149 223.366 125.092 228.825 121.414C231.574 119.562 233.211 109.789 238.175 114.713C243.578 120.077 237.837 129.94 234.335 134.671C222.44 150.742 201.003 148.429 186.948 137.386C173.986 127.203 168.824 108.951 177.014 94.251C180.874 87.3248 189.418 81.2837 197.537 82.9587C201.05 83.575 201.607 86.0451 199.21 90.3704C198.184 90.9985 197.106 91.5398 196.076 92.1687C195.086 92.7771 193.618 93.8822 193.238 95.0894C192.436 97.6469 193.297 100.149 195.544 101.692C197.953 103.349 202.5 99.7922 204.118 98.3602C209.845 93.2916 212.115 85.8522 216.99 80.2886C223.247 73.1493 237.095 91.9601 240.472 95.9711C241.165 96.796 242.419 95.6977 241.729 94.8769C237.606 89.979 222.358 69.1949 214.841 80.2359C212.845 83.1668 200.002 106.622 194.939 98.5245C192.491 94.6096 199.118 92.69 201.01 91.2056C202.489 90.0461 202.925 88.6236 203.215 86.7902C203.771 83.2773 199.302 81.6318 196.744 81.1041C191.314 79.9831 186.165 82.9273 182.029 86.0943C171.771 93.9493 168.858 108.87 173.148 120.667C182.651 146.789 219.512 159.594 237.162 133.559C240.007 129.364 241.991 124.313 241.806 119.208C241.711 116.588 239.235 111.226 235.946 111.388C232.693 111.547 231.264 114.623 229.824 117.172C226.702 122.693 220.042 119.971 219.914 113.852C219.79 107.782 228.262 102.581 232.66 100.065C235.371 98.5123 238.344 97.4237 241.329 96.5493C242.354 96.2481 242.031 94.6117 240.998 94.9138" fill="#3A8435"/>
<path d="M237.722 91.4105C227.928 92.1519 217.268 101.165 213.359 110.074C211.479 114.358 211.259 118.141 213.789 122.122C214.297 122.881 214.794 123.648 215.28 124.418C216.849 126.871 214.381 127.643 212.494 125.436C210.473 123.075 209.416 119.745 208.125 116.954C207.786 116.22 206.874 116.449 206.584 117.062C205.518 119.314 204.208 121.359 202.441 123.133C197.131 128.463 198.996 117.651 199.075 117.386C199.396 116.28 199.789 115.203 200.086 114.089C200.254 113.458 199.589 112.673 198.928 113.081C197.13 114.189 195.357 115.042 193.303 115.629C191.811 113.802 191.892 112.483 193.543 111.671C194.406 110.965 195.311 110.354 196.132 109.598C196.679 109.092 196.366 108.209 195.633 108.137C193.877 107.966 192.158 107.803 190.423 107.449C190.033 106.026 190.526 105.42 191.904 105.634C193.278 105.404 194.693 105.357 196.081 105.362C199.551 105.375 203.293 104.864 206.126 102.675C210.801 99.0608 214.933 94.2784 218.991 89.9844C221.346 87.4935 224.812 83.9578 225.256 80.4107C225.39 79.3458 223.726 79.2535 223.593 80.3174C223.056 84.6039 217.663 89.0316 214.822 91.9105C212.017 94.7535 209.259 97.7128 206.323 100.418C201.525 104.844 194.85 103.048 189.049 104.525C188.006 104.792 186.053 106.116 187.145 107.449C188.984 109.703 192.899 109.543 195.537 109.801C195.371 109.313 195.204 108.827 195.037 108.34C193.103 110.126 187.946 112.597 189.614 116.004C191.378 119.606 197.712 115.78 199.66 114.576C199.274 114.24 198.888 113.906 198.501 113.569C197.69 116.604 194.133 124.135 199.058 125.751C203.423 127.184 206.752 120.573 208.169 117.582C207.656 117.617 207.142 117.652 206.629 117.69C208.5 121.734 210.104 126.962 214.349 129.119C216.2 130.059 218.037 129.074 218.24 127.172C218.401 125.636 216.774 123.68 216.037 122.529C213.14 117.999 212.972 114.135 215.714 109.244C220.047 101.517 229.082 93.7239 238.053 93.046C239.123 92.9637 238.781 91.3318 237.722 91.4105" fill="#3A8435"/>
</g>
<defs>
<clipPath id="clip0_701_27">
<rect width="239" height="148" fill="white"/>
</clipPath>
</defs>
</svg>
