<svg width="163" height="152" viewBox="0 0 163 152" fill="none" xmlns="http://www.w3.org/2000/svg">
<g clip-path="url(#clip0_868_28)">
<path d="M131.333 91.6665C114.028 91.6665 100 77.6385 100 60.3332C100 43.0292 114.028 28.9998 131.333 28.9998C148.637 28.9998 162.667 43.0292 162.667 60.3332C162.667 77.6385 148.637 91.6665 131.333 91.6665Z" fill="#AADE81"/>
<path d="M144.181 150.249C133.904 140.117 120.761 132.784 108.966 124.571C94.7361 114.662 80.3668 105.2 65.6134 96.0886C39.8568 80.1813 10.2165 63.1797 2.20862 31.7533C1.945 30.7173 0.308198 31.0334 0.573876 32.078C3.65426 44.1673 10.149 55.9664 18.9481 64.7807C29.6862 75.5398 43.707 84.14 56.4389 92.3036C70.9086 101.582 85.6343 110.323 99.7375 120.17C107.199 125.379 114.63 130.645 122.159 135.753C129.368 140.645 136.679 145.187 142.918 151.339C143.679 152.088 144.947 151.004 144.181 150.249Z" fill="#3A8435"/>
<path d="M85.4075 108.617C71.8209 107.827 59.0435 103.275 46.8516 97.4658C33.5605 91.1308 20.73 83.4012 9.7607 73.5337C-6.6633 58.7622 -15.5224 31.8723 -38.1103 24.6061C-39.1329 24.2753 -39.6919 25.8464 -38.6693 26.1763C-26.218 30.1806 -17.7419 41.8507 -9.94769 51.7169C-1.78527 62.0495 5.1061 72.3048 15.5373 80.5765C34.632 95.7188 60.6897 108.849 85.2857 110.279C86.3573 110.342 86.4805 108.68 85.4075 108.617Z" fill="#3A8435"/>
<path d="M-36.7848 25.1085C-40.5767 23.6007 -46.965 20.9088 -50.733 23.6343C-54.8665 26.6224 -46.2563 31.5036 -44.757 32.261C-43.3634 32.9647 -32.1411 40.5111 -32.4003 40.654C-35.2275 42.2187 -39.1098 42.399 -42.1889 43.3143C-45.4814 44.2939 -48.5659 46.3406 -46.2534 49.8653C-42.1514 56.1153 -31.7547 57.1428 -25.3514 59.3747C-24.2538 59.7581 -14.4158 64.2133 -19.7208 65.9471C-21.3275 66.4717 -23.0649 66.6823 -24.7035 67.0964C-26.4593 67.5395 -31.1292 68.9267 -31.6809 71.1998C-35.1708 85.5602 6.76099 78.9285 12.7667 78.6689C13.8275 78.6239 13.9614 76.9615 12.8886 77.0067C0.810261 77.5261 -11.8741 80.4398 -23.8794 77.4473C-27.3324 76.5868 -31.8147 72.0403 -26.8715 69.6791C-24.5163 68.554 -21.906 68.1987 -19.3968 67.582C-18.26 67.3023 -15.5615 66.3278 -16.0264 64.608C-18.116 56.8762 -32.8581 55.6544 -38.9094 53.1794C-41.3613 52.1772 -48.4669 48.1259 -43.5265 45.5846C-41.7009 44.6451 -39.5007 44.2842 -37.5148 43.8203C-35.1888 43.2765 -32.3942 42.9423 -30.4913 41.3674C-30.1611 41.094 -30.0859 40.5067 -30.405 40.1909C-34.1168 36.5322 -38.299 33.6003 -42.972 31.3098C-44.6278 30.4976 -46.1607 29.6149 -47.686 28.5927C-47.9506 27.1685 -48.2152 25.745 -48.4798 24.3207C-47.36 24.1818 -46.2472 24.2113 -45.1424 24.4055C-42.494 24.7162 -39.8132 25.696 -37.3451 26.6786C-36.3434 27.0758 -35.7896 25.5028 -36.7848 25.1085Z" fill="#3A8435"/>
<path d="M1.93243 30.9991C-1.36452 24.2896 -1.62295 16.5992 -0.677422 9.29972C-0.407967 7.61183 -0.015097 5.95492 0.503787 4.32958C1.60661 3.98488 2.70798 3.64155 3.80947 3.29663C5.59041 5.75635 6.38535 8.572 6.19429 11.7436C6.34864 15.8753 5.41656 19.8726 5.82566 24.0307C5.88919 24.6778 6.74666 24.8712 7.18841 24.4988C8.90367 23.0579 10.0503 20.9304 11.2836 19.0979C12.2813 17.6158 13.318 16.1669 14.406 14.7479C15.1305 13.7999 15.9292 12.9178 16.7989 12.1048C19.1167 9.81345 23.2098 11.808 22.4017 15.0442C20.7616 21.6058 14.228 26.4223 13.2885 33.1832C13.2177 33.6934 13.7777 34.2056 14.2816 34.0612C15.9857 33.5752 17.6627 33.0035 19.3602 32.4977C20.3723 32.2046 21.3981 31.9806 22.4402 31.8263C23.6025 32.8044 24.7662 33.7812 25.9285 34.7584C25.0881 35.8274 24.1312 36.7714 23.055 37.5913C18.5059 41.3976 13.4112 44.3664 9.41121 48.816C8.70231 49.6048 9.78289 50.8763 10.5005 50.0777C13.9168 46.2782 18.0958 43.6183 22.0541 40.4487C24.1321 38.7837 26.9982 37.1268 27.9479 34.4573C29.8781 29.0266 21.45 30.2522 19.035 30.8611C18.0309 31.1165 15.1468 32.3083 15.2601 31.9292C15.8024 30.0941 17.002 28.3934 17.9798 26.7626C19.7403 23.8288 21.5787 20.9633 23.0825 17.8854C24.3298 15.3318 25.5888 8.49817 20.5629 8.65034C15.6026 8.80116 12.3733 14.5361 9.9103 18.1532C9.06082 19.4007 8.22816 20.6557 7.34562 21.88C5.8777 23.9772 5.85773 23.0643 7.28711 19.1402C7.41485 17.5254 7.55988 15.9119 7.72219 14.2996C8.06071 10.7577 7.9746 6.38808 5.84384 3.32049C2.63572 -1.29989 -0.300323 1.11004 -1.60425 5.63882C-3.96823 13.85 -3.33796 24.0551 0.436143 31.7329C0.908366 32.6955 2.40712 31.9646 1.93243 30.9991Z" fill="#3A8435"/>
<path d="M43.3065 96.6041C39.1386 97.0888 35.2379 98.6332 31.0518 99.128C26.0377 99.7214 20.8873 99.328 15.8656 99.0582C14.7937 98.9999 14.6692 100.662 15.7438 100.72C20.2955 100.964 24.902 101.281 29.4567 100.917C34.3451 100.526 38.8127 98.7986 43.6305 98.239C44.6971 98.115 44.3677 96.4799 43.3065 96.6041Z" fill="#3A8435"/>
<path d="M28.1847 98.7009C21.7112 93.414 11.152 87.3811 2.59211 90.5501C2.1675 90.7071 2.02178 91.2907 2.20952 91.6658C2.63891 92.5198 5.65444 97.3235 6.40489 96.898C4.43378 98.0173 1.86866 97.9024 -0.00768729 99.261C-2.73661 101.234 -1.87784 104.529 0.966588 105.959C8.47878 109.732 25.3714 110.469 28.333 100.234C28.6318 99.2037 27.062 98.6421 26.763 99.675C24.7492 106.63 14.2892 107.377 8.30593 106.51C6.69345 106.275 5.15926 105.829 3.61725 105.326C1.48732 104.837 0.849744 103.139 1.70725 100.232C2.56406 99.8872 3.43859 99.593 4.32807 99.3501C5.78204 98.9204 7.26574 98.5591 8.39547 97.5009C8.8032 97.1182 8.75607 96.521 8.32235 96.1821C6.41018 94.692 2.4802 91.3838 7.54998 91.3445C10.2922 91.3236 13.0252 92.3036 15.5634 93.2417C19.7821 94.8001 23.764 97.2358 27.2403 100.076C28.0754 100.757 29.0096 99.375 28.1847 98.7009Z" fill="#3A8435"/>
<path d="M118.792 38.0594C103.191 33.4521 83.3838 34.0243 71.5947 46.653C71.283 46.9876 71.3893 47.5548 71.7227 47.8254C79.2124 53.9076 91.1473 55.4615 100.421 54.7157C105.376 54.3161 109.626 52.6613 113.823 50.0662C116.702 48.288 123.249 44.4111 124.618 41.2436C124.801 40.8201 124.597 40.337 124.183 40.1481C122.414 39.3384 120.617 38.7316 118.792 38.0594C117.788 37.689 117.121 39.2168 118.131 39.5893C118.299 39.6516 122.809 40.8369 121.915 41.595C120.472 42.8204 119.029 44.0416 117.568 45.243C114.118 48.0734 110.41 50.4538 106.206 51.985C97.0669 55.3155 85.5028 52.6987 76.8388 49.0951C72.8023 47.4177 73.8694 46.4814 76.4854 44.3336C78.2042 42.9209 80.2451 41.8652 82.2239 40.8961C85.9184 39.0862 90.0237 38.2112 94.0611 37.5975C102.039 36.3824 110.428 37.3148 118.131 39.5893C119.148 39.8909 119.821 38.3645 118.792 38.0594Z" fill="#3A8435"/>
<path d="M121.677 40.5405C113.768 42.7404 105.759 44.1247 97.6077 45.0442C89.7181 45.9338 81.1319 48.086 73.2648 46.5002C72.2119 46.2879 71.9835 47.939 73.0337 48.1506C80.5404 49.663 88.0658 47.6096 95.5593 46.9273C104.606 46.1032 113.54 44.5231 122.291 42.0912C123.327 41.8023 122.702 40.2557 121.677 40.5405Z" fill="#3A8435"/>
<path d="M77.8105 45.8661C86.5238 42.9227 95.2461 39.9216 104.526 39.6388C105.601 39.6066 105.394 37.951 104.327 37.9836C94.9019 38.2709 86.0437 41.3281 77.1966 44.3156C76.1761 44.6604 76.7953 46.2087 77.8105 45.8661Z" fill="#3A8435"/>
<path d="M91.7117 50.8048C97.0094 50.7367 102.019 49.5011 107.1 48.1152C108.136 47.8311 107.511 46.2855 106.486 46.5646C101.534 47.9163 96.6693 49.0833 91.5118 49.1496C90.4383 49.1633 90.6465 50.8193 91.7117 50.8048Z" fill="#3A8435"/>
<path d="M107.233 41.777C109.493 41.7733 111.744 41.9893 114.003 41.7977C115.073 41.7067 114.873 40.0517 113.803 40.1425C111.545 40.3347 109.291 40.1172 107.033 40.1219C105.959 40.1254 106.17 41.7796 107.233 41.777Z" fill="#3A8435"/>
<path d="M135.088 51.4201C119.164 54.3615 101.809 63.7225 96.9386 80.2127C96.7782 80.7551 97.0132 81.243 97.5883 81.3677C106.508 83.31 117.302 79.7241 125.013 75.335C129.284 72.9043 133.005 69.6612 135.503 65.3907C137.432 62.0938 142.009 55.4977 141.77 51.5801C141.741 51.101 141.273 50.8363 140.842 50.852C138.897 50.9282 137.021 51.1965 135.088 51.4201C134.021 51.5429 134.22 53.1994 135.289 53.0758C140.038 52.5266 139.685 52.8184 137.835 57.1377C135.676 62.179 133.076 66.9293 128.935 70.6215C122.315 76.5276 113.074 78.953 104.489 80.0504C99.2115 80.7274 98.3749 80.0753 100.502 75.4936C102.648 70.867 106.543 67.1034 110.419 63.9396C117.447 58.201 126.443 54.7099 135.289 53.0758C136.34 52.8821 136.149 51.2248 135.088 51.4201Z" fill="#3A8435"/>
<path d="M138.962 52.2109C132.322 58.2498 125.152 63.4984 117.603 68.3414C111.394 72.3266 105.506 77.5416 98.2708 79.4923C97.2328 79.7733 97.8603 81.3195 98.8858 81.0437C105.542 79.2464 110.87 74.7497 116.508 70.9898C124.687 65.5329 132.652 60.1936 139.95 53.5529C140.738 52.8362 139.756 51.488 138.962 52.2109Z" fill="#3A8435"/>
<path d="M102.107 76.8337C108.505 70.3291 114.882 63.758 122.963 59.3403C123.893 58.8316 123.29 57.2752 122.347 57.7903C113.999 62.3567 107.419 69.0662 100.808 75.789C100.054 76.5564 101.362 77.5913 102.107 76.8337Z" fill="#3A8435"/>
<path d="M126.343 60.0281C128.42 58.9695 130.595 58.1239 132.582 56.8911C133.497 56.3222 132.5 54.9852 131.593 55.5477C129.731 56.7039 127.675 57.4857 125.729 58.4772C124.778 58.9628 125.385 60.5164 126.343 60.0281Z" fill="#3A8435"/>
</g>
<defs>
<clipPath id="clip0_868_28">
<rect width="163" height="152" fill="white"/>
</clipPath>
</defs>
</svg>
