<svg width="303" height="155" viewBox="0 0 303 155" fill="none" xmlns="http://www.w3.org/2000/svg">
<g clip-path="url(#clip0_864_27)">
<path d="M58.8971 104.742C55.7678 110.162 48.8368 112.02 43.4155 108.89C37.9954 105.761 36.1379 98.829 39.2672 93.4088C42.3966 87.9887 49.3287 86.1312 54.7488 89.2606C60.1702 92.3906 62.0265 99.322 58.8971 104.742Z" fill="#AADE81"/>
<path d="M22.6065 89.2386C28.1396 96.4053 33.4337 105.023 28.9664 114.246C26.7237 118.875 21.1417 122.191 17.1944 125.085C11.2263 129.463 6.42967 134.682 3.77052 141.713C-1.87133 156.624 0.836392 172.623 8.70727 186.197C26.8108 217.413 68.3964 213.806 97.7936 203.434C113.575 197.867 128.226 188.457 138.138 174.823C149.208 159.59 147.946 140.871 141.118 124.176C133.99 106.753 119.781 90.6671 101.049 86.1346C92.892 84.1584 84.3352 85.4876 76.4854 88.0235C72.1571 89.4226 68.159 91.6615 64.1393 93.7423C61.764 94.9731 59.4962 96.4422 57.1536 97.7368C49.3378 102.057 42.6317 98.0954 38.0727 91.7358C35.9065 88.7152 34.2084 85.3622 32.1856 82.2465C31.8245 81.6912 31.2505 81.5738 30.6611 81.8251C27.9617 82.9717 25.4639 84.0133 22.9951 85.5999C21.7869 86.3763 22.8791 88.3299 24.0972 87.5475C28.9011 84.461 30.6032 83.7876 33.5231 88.7004C35.6308 92.2484 37.8568 95.5214 40.7965 98.4201C45.8828 103.43 52.4552 102.409 58.2566 99.6841C68.5758 94.843 77.0902 88.8902 88.8013 87.602C101.194 86.2416 113.233 91.7514 122.05 100.147C138.169 115.491 148.792 140.235 142.179 162.251C136.696 180.515 117.835 192.674 101.326 199.684C84.2732 206.928 64.9091 209.743 46.5076 207.876C26.7002 205.866 11.9952 192.449 5.51683 173.965C2.61233 165.679 2.22069 156.692 4.0522 148.15C6.36371 137.364 13.2899 130.72 21.8025 124.459C36.2117 113.863 34.6583 101.211 24.203 87.6723C23.3249 86.5324 21.7327 88.1071 22.6065 89.2386Z" fill="#3A8435"/>
<path d="M29.5297 92.7595C33.8829 99.3425 38.6539 105.45 40.7558 113.203C42.7276 120.481 39.6551 129.796 38.3087 136.971C36.2405 147.97 36.9356 158.186 41.0674 168.609C48.2409 186.712 65.213 200.326 84.4859 202.819C85.9209 203.005 85.9522 200.765 84.5361 200.582C59.8568 197.39 40.7872 175.273 39.2568 150.758C38.5879 140.073 42.6242 129.501 43.2413 118.849C43.8609 108.188 37.0424 100.071 31.4769 91.6567C30.6859 90.4616 28.7321 91.5532 29.5297 92.7595Z" fill="#3A8435"/>
<path d="M47.3909 111.928C72.3942 133.902 103.836 154.073 111.486 188.758C111.799 190.169 113.968 189.619 113.656 188.212C105.908 153.075 74.3341 132.635 48.9904 110.36C47.9125 109.415 46.3031 110.972 47.3909 111.928Z" fill="#3A8435"/>
<path d="M50.7512 130.807C53.9264 156.375 69.7173 178.323 89.7147 193.823C90.8525 194.705 91.9893 192.774 90.8608 191.901C71.3085 176.745 56.0215 155.224 52.9216 130.261C52.7454 128.83 50.5761 129.394 50.7512 130.807Z" fill="#3A8435"/>
<path d="M66.5506 146.492C74.4748 153.5 80.1113 162.303 84.5055 171.852C85.1091 173.162 87.0526 172.052 86.4527 170.749C81.9807 161.028 76.2071 152.053 68.1471 144.925C67.075 143.975 65.4659 145.534 66.5506 146.492Z" fill="#3A8435"/>
<path d="M59.3089 108.726C73.5495 112.925 87.1387 118.237 98.4092 128.164C110.6 138.903 123.023 157.865 123.301 174.402C123.326 175.843 125.565 175.894 125.54 174.451C125.251 157.306 113.415 140 101.681 128.174C90.3784 116.783 75.0041 111.019 59.9317 106.575C58.544 106.168 57.9256 108.319 59.3089 108.726Z" fill="#3A8435"/>
<path d="M67.1215 103.226C82.6367 99.2043 97.8907 101.182 111.452 109.881C128.303 120.688 131.807 139.306 136.192 157.313C136.532 158.717 138.702 158.169 138.362 156.767C133.632 137.344 129.737 120.115 112.602 107.959C99.2342 98.4795 82.0716 97.0387 66.5755 101.056C65.1809 101.417 65.7255 103.588 67.1215 103.226Z" fill="#3A8435"/>
<path d="M100.453 116.658C107.322 120.897 112.854 126.468 115.602 134.183C116.081 135.53 118.256 134.997 117.772 133.637C114.819 125.341 109.009 119.307 101.602 114.735C100.373 113.976 99.2251 115.899 100.453 116.658Z" fill="#3A8435"/>
<path d="M73.3956 121.619C81.4302 127.026 88.4811 133.572 95.1981 140.516C96.201 141.553 97.8013 139.988 96.7976 138.948C89.9461 131.866 82.7332 125.211 74.5417 119.696C73.3432 118.889 72.2012 120.813 73.3956 121.619Z" fill="#3A8435"/>
<path d="M28.0322 125.479C22.944 140.059 18.6065 152.567 23.1604 167.902C27.5569 182.703 38.2328 193.643 51.5106 200.972C52.7732 201.668 53.9254 199.75 52.6602 199.049C38.4522 191.21 29.1127 180.086 24.4878 164.512C20.5277 151.179 25.8404 138.538 30.1798 126.104C30.6578 124.736 28.5047 124.123 28.0322 125.479Z" fill="#3A8435"/>
<path d="M11.3802 150.252C10.6357 162.787 10.7272 174.1 18.8423 184.341C19.7357 185.47 21.3284 183.895 20.4387 182.775C12.7444 173.06 12.921 162.052 13.6174 150.302C13.7037 148.859 11.4652 148.818 11.3802 150.252Z" fill="#3A8435"/>
<path d="M243.333 193.667C226.028 193.667 212 179.639 212 162.333C212 145.029 226.028 131 243.333 131C260.637 131 274.667 145.029 274.667 162.333C274.667 179.639 260.637 193.667 243.333 193.667Z" fill="#AADE81"/>
<path d="M145.343 205.978C161.822 180.034 180.128 155.176 197.903 130.11C206.669 117.748 215.229 105.238 222.359 91.8424C225.341 86.241 228.019 80.4336 230.116 74.4425C231.445 70.6464 232.321 66.6842 233.541 62.8508C235.075 58.0266 239.053 61.7864 242.031 63.1806C246.087 65.0792 245.499 66.3749 244.278 70.4117C243.347 73.4918 241.957 76.4425 240.607 79.3543C237.977 85.0225 234.866 90.4526 232.329 96.1647C226.181 110.015 218.165 122.785 209.158 134.938C199.82 147.54 190.626 160.247 181.043 172.665C176.489 178.569 171.805 184.371 167.013 190.082C164.507 193.069 150.922 212.413 146.552 205.955C145.949 205.065 144.684 206.152 145.281 207.033C146.868 209.377 149.139 211.514 151.845 209.142C157.932 203.807 163.155 197.192 168.376 191.039C180.69 176.533 191.939 161.147 203.205 145.827C213.326 132.065 223.298 118.436 230.942 103.098C234.173 96.6153 237.142 90.0131 240.408 83.5416C243.499 77.4163 246.494 71.0602 247.335 64.1862C247.378 63.8232 247.129 63.4546 246.791 63.3356C242.559 61.8304 238.827 59.3661 234.794 57.4319C234.367 57.2265 233.894 57.5417 233.725 57.9264C231.143 63.814 229.867 70.1086 227.749 76.1608C225.199 83.4464 221.356 90.4211 217.579 97.1167C210.518 109.636 202.078 121.352 193.767 133.058C176.902 156.814 159.603 180.422 143.98 205.02C143.403 205.926 144.766 206.885 145.343 205.978Z" fill="#3A8435"/>
<path d="M235.744 58.7619C236.083 51.5464 238.558 44.9395 242.197 38.7611C241.759 38.7809 241.318 38.8004 240.88 38.8215C244.861 44.9243 241.598 55.1398 240.949 61.8705C240.845 62.9416 242.506 63.0783 242.61 62.0085C243.319 54.6487 246.538 44.4698 242.151 37.7431C241.868 37.3089 241.086 37.3749 240.834 37.8035C237.052 44.2256 234.435 51.1271 234.083 58.6238C234.032 59.6952 235.692 59.8373 235.744 58.7619Z" fill="#3A8435"/>
<path d="M242.561 62.2273C245.036 55.9347 249.283 47.5431 256.085 45.1211C255.693 44.9212 255.299 44.7226 254.907 44.5228C255.656 50.1415 251.961 62.2449 246.116 64.3652C245.107 64.7322 245.831 66.2334 246.834 65.8699C250.36 64.591 252.263 60.4945 253.714 57.3212C255.486 53.448 257.122 48.5374 256.545 44.2147C256.469 43.6371 255.845 43.4474 255.367 43.6164C248.108 46.2011 243.639 54.9355 240.996 61.653C240.602 62.6558 242.168 63.2262 242.561 62.2273Z" fill="#3A8435"/>
<path d="M244.155 42.0455C245.233 40.4668 246.307 38.889 247.491 37.3832C248.437 36.1828 250.64 33.1924 252.507 33.7463C255.108 34.5165 251.854 43.8925 251.649 45.8141C251.534 46.8842 253.195 47.0196 253.31 45.9522C253.627 43.0003 254.581 40.1388 254.97 37.1915C255.239 35.1482 255.09 33.1985 253.081 32.1805C249.174 30.2033 244.385 38.7532 242.79 41.0878C242.183 41.9765 243.548 42.933 244.155 42.0455Z" fill="#3A8435"/>
<path d="M242.827 37.9438C243.477 32.4963 246.833 27.6055 250.874 24.0427C250.482 24.0101 250.09 23.9776 249.698 23.945C251.614 26.0028 251.715 28.4168 251.536 31.0872C251.464 32.1595 253.124 32.2989 253.197 31.2252C253.406 28.1105 253.179 25.2405 250.971 22.8668C250.667 22.5404 250.148 22.4585 249.796 22.769C245.414 26.6352 241.87 31.9091 241.166 37.8057C241.038 38.8748 242.699 39.0089 242.827 37.9438Z" fill="#3A8435"/>
<path d="M253.379 33.0011C255.866 30.132 258.513 27.5598 261.729 25.5206C261.337 25.3207 260.943 25.1221 260.551 24.9223C261.329 30.831 259.896 38.8826 255.669 43.3263C254.936 44.0976 256.003 45.3784 256.745 44.5999C261.421 39.6837 263.051 31.1682 262.189 24.6142C262.124 24.1218 261.456 23.7331 261.011 24.0159C257.553 26.2089 254.687 28.9596 252.016 32.0436C251.311 32.8573 252.684 33.8036 253.379 33.0011Z" fill="#3A8435"/>
<path d="M252.75 24.4747C255.059 21.4061 257.496 18.5422 261.1 16.9955C260.704 16.7217 260.307 16.4479 259.91 16.1741C259.583 19.6991 258.855 23.1145 257.746 26.4756C257.409 27.4951 258.974 28.0694 259.31 27.0498C260.466 23.5495 261.23 19.9846 261.571 16.3122C261.632 15.663 260.95 15.2464 260.382 15.4908C256.521 17.1486 253.861 20.2295 251.387 23.5172C250.738 24.3783 252.107 25.3297 252.75 24.4747Z" fill="#3A8435"/>
<path d="M235.214 59.3885C233.872 55.2189 234.685 50.0913 235.28 45.8527C235.623 43.4261 236.129 41.0091 236.957 38.7004C238.147 35.3849 239.296 36.9375 240.246 39.4903C240.623 40.4956 242.124 39.7709 241.751 38.7712C239.748 33.4014 236.649 34.2141 235.014 39.2333C233.109 45.0795 231.641 53.6942 233.577 59.6965C233.902 60.7056 235.544 60.4113 235.214 59.3885Z" fill="#3A8435"/>
<path d="M247.027 65.8587C255.488 63.6294 262.861 55.5672 263.941 46.836C263.983 46.4984 263.741 46.0715 263.397 45.9854C260.703 45.3078 258.045 44.7042 255.281 44.3874C254.211 44.2651 254.077 45.9263 255.143 46.0483C256.207 46.1422 257.266 46.2918 258.315 46.4981C261.289 46.9995 262.493 46.7424 261.698 49.6185C261.105 51.7607 259.909 53.6936 258.66 55.5056C255.859 59.5662 251.514 62.9578 246.72 64.221C245.687 64.4923 245.986 66.1334 247.027 65.8587Z" fill="#3A8435"/>
<path d="M241.449 38.0542C240.991 33.0283 242.002 27.6603 243.67 22.9329C244.224 21.3667 245.21 18.4638 247.055 17.9723C249.253 17.3844 250.874 23.0636 251.318 24.3555C251.665 25.3691 253.165 24.6415 252.82 23.6362C251.974 21.1655 250.818 17.354 248.013 16.3983C246.127 15.7558 244.576 17.5629 243.693 18.9504C240.331 24.2327 239.253 32.2403 239.811 38.3622C239.908 39.4313 241.546 39.1166 241.449 38.0542Z" fill="#3A8435"/>
<path d="M257.34 46.1172C264.32 42.1124 268.203 34.7461 271.305 27.6013C271.518 27.1132 271.113 26.5069 270.593 26.4837C267.433 26.3441 264.438 26.8095 261.365 27.5307C260.323 27.7746 260.623 29.4144 261.673 29.1685C264.594 28.4829 267.436 28.0114 270.454 28.1446C270.216 27.7729 269.978 27.3999 269.742 27.0271C266.831 33.7303 263.187 40.8462 256.622 44.6125C255.696 45.1442 256.406 46.6536 257.34 46.1172Z" fill="#3A8435"/>
<path d="M252.604 22.2565C252.632 17.9039 255.012 13.3575 258.106 10.3715C258.457 10.0314 260.302 8.28765 260.813 9.12492C261.229 9.80567 261.107 10.8016 261.047 11.55C260.903 13.3495 260.397 15.119 259.885 16.8425C259.578 17.8687 261.143 18.4469 261.449 17.4167C262.222 14.8185 263.502 11.2282 262.386 8.5412C261.663 6.79794 259.683 7.18058 258.415 8.00237C254.102 10.7919 250.976 17.0585 250.943 22.1184C250.936 23.1869 252.597 23.333 252.604 22.2565Z" fill="#3A8435"/>
<path d="M260.585 17.8449C263.382 16.2324 265.95 14.3226 268.999 13.1927C268.602 12.9189 268.206 12.6451 267.809 12.3713C267.741 17.3869 266.478 22.3126 264.566 26.93C264.152 27.9258 265.72 28.4937 266.13 27.5042C268.093 22.7666 269.401 17.6561 269.47 12.5094C269.479 11.8452 268.889 11.4617 268.28 11.688C265.231 12.8192 262.662 14.729 259.866 16.3401C258.941 16.8733 259.651 18.3828 260.585 17.8449Z" fill="#3A8435"/>
<path d="M262.159 7.86348C263.184 6.44085 265.422 2.30541 267.239 2.45645C266.984 2.15698 266.732 1.85641 266.478 1.55694C266.645 5.111 266.33 8.68391 266.038 12.2238C265.949 13.2948 267.609 13.4329 267.699 12.3619C267.991 8.822 268.306 5.24909 268.138 1.69503C268.118 1.24109 267.874 0.836813 267.377 0.795517C264.507 0.556871 262.27 4.85836 260.796 6.90592C260.165 7.77934 261.533 8.73324 262.159 7.86348Z" fill="#3A8435"/>
<path d="M231.215 68.5845C232.718 69.4787 234.454 70.1877 235.654 71.4998C235.745 71.0682 235.838 70.6373 235.93 70.2074C233.679 71.2901 231.474 72.4634 229.287 73.6688C228.352 74.1868 229.062 75.6946 230.006 75.1735C232.193 73.9678 234.398 72.795 236.649 71.712C237.118 71.4861 237.291 70.821 236.925 70.4212C235.61 68.9846 233.821 68.1991 232.172 67.2191C231.252 66.673 230.291 68.0354 231.215 68.5845Z" fill="#3A8435"/>
<path d="M236.104 89.923C235.768 89.0159 235.321 88.151 234.935 87.2648C234.624 86.5528 233.839 85.0492 234.279 84.2641C234.525 83.8258 236.475 84.21 236.873 84.2552C237.697 84.3476 238.512 84.5096 239.338 84.5929C240.408 84.7016 240.544 83.0405 239.476 82.9319C237.59 82.74 234.364 81.5969 232.915 83.3068C231.347 85.1567 233.95 88.8904 234.602 90.6426C234.975 91.6489 236.477 90.924 236.104 89.923Z" fill="#3A8435"/>
<path d="M216.302 101.128C218.663 102.444 221.395 102.52 224.035 102.356C224.484 102.329 224.783 101.786 224.7 101.383C224.213 99.0202 222.582 97.1693 221.807 94.9225C221.458 93.9087 219.958 94.6349 220.305 95.6421C221.029 97.7426 222.608 99.4887 223.062 101.691C223.284 101.367 223.506 101.043 223.727 100.719C221.589 100.85 219.178 100.833 217.259 99.7622C216.329 99.2433 215.364 100.604 216.302 101.128Z" fill="#3A8435"/>
<path d="M224.814 113.067C224.34 111.876 223.709 110.542 223.745 109.229C223.782 107.889 225.804 108.203 226.664 108.291C227.734 108.401 227.869 106.74 226.802 106.63C225.118 106.457 222.92 106.462 222.225 108.344C221.599 110.038 222.698 112.248 223.311 113.787C223.708 114.784 225.211 114.064 224.814 113.067Z" fill="#3A8435"/>
<path d="M202.822 122.836C205.019 123.974 207.27 124.715 209.711 125.111C210.049 125.166 210.473 124.903 210.562 124.568C211.343 121.616 209.19 118.18 207.873 115.673C207.375 114.724 205.869 115.436 206.37 116.392C206.944 117.486 207.501 118.588 208.001 119.719C208.533 120.926 209.355 122.641 208.998 123.993C209.281 123.812 209.565 123.632 209.849 123.45C207.553 123.078 205.458 122.338 203.396 121.272C202.441 120.778 201.882 122.35 202.822 122.836Z" fill="#3A8435"/>
<path d="M208.692 137.013C208.207 135.408 206.907 133.261 207.318 131.55C207.587 130.43 211.562 131.395 212.291 131.651C213.306 132.007 213.878 130.441 212.865 130.087C211.077 129.459 207.721 128.753 206.186 130.247C204.477 131.907 206.518 135.545 207.055 137.321C207.36 138.339 209.002 138.043 208.692 137.013Z" fill="#3A8435"/>
<path d="M185.556 147.072C187.438 148.246 190.694 149.308 192.662 147.795C194.896 146.075 191.882 142.117 191.364 140.255C191.08 139.228 189.438 139.525 189.727 140.563C189.992 141.522 190.423 142.415 190.832 143.317C191.196 144.121 191.993 145.446 191.703 146.359C191.458 147.125 189.773 146.812 189.242 146.728C188.298 146.578 187.322 146.211 186.513 145.706C185.603 145.14 184.643 146.502 185.556 147.072Z" fill="#3A8435"/>
<path d="M150.98 223.868C172.487 199.079 195.882 175.884 218.51 152.124C228.163 141.986 237.504 131.549 245.67 120.162C249.636 114.63 253.169 108.844 256.007 102.658C256.68 101.192 260.237 91.5514 262.018 92.7458C264.685 94.5355 267.054 96.7032 269.767 98.4419C274.222 101.297 255.668 124.367 253.248 128.174C244.675 141.651 234.22 153.483 222.953 164.754C212.152 175.557 201.444 186.454 190.406 197.016C184.576 202.593 178.614 208.029 172.535 213.329C169.493 215.98 166.389 218.558 163.264 221.11C160.79 223.131 154.907 229.977 152.143 224.201C151.679 223.232 150.174 223.949 150.64 224.92C152.067 227.904 153.488 229.496 156.784 228.1C163.54 225.239 169.973 217.774 175.436 213.01C189.401 200.834 202.485 187.67 215.55 174.542C227.523 162.511 239.477 150.672 249.434 136.862C254.112 130.371 258.383 123.578 263.008 117.043C266.961 111.462 270.903 105.603 272.747 98.9466C272.881 98.464 272.68 98.1007 272.251 97.8764C268.321 95.8187 265.114 92.8155 261.453 90.36C261.09 90.1171 260.539 90.1743 260.292 90.563C256.846 95.9935 254.689 102.045 251.682 107.711C248.488 113.729 244.32 119.329 240.221 124.748C231.378 136.443 221.132 147.031 210.988 157.584C190.304 179.099 169.178 200.364 149.615 222.911C148.91 223.725 150.284 224.672 150.98 223.868Z" fill="#3A8435"/>
<path d="M262.136 91.6457C263.553 84.5737 267.042 78.4135 271.541 72.8486C271.064 72.8089 270.586 72.7692 270.109 72.7295C273.17 79.47 268.502 88.8488 266.833 95.5179C266.573 96.5504 268.137 97.1326 268.398 96.0918C270.179 88.9805 274.905 79.2583 271.611 72.0101C271.338 71.4094 270.557 71.4221 270.178 71.891C265.471 77.7142 261.954 84.1209 260.475 91.5076C260.265 92.561 261.927 92.6866 262.136 91.6457Z" fill="#3A8435"/>
<path d="M268.297 96.2844C271.676 90.4253 277.079 82.6822 284.168 81.3129C283.84 81.0164 283.512 80.7216 283.184 80.4242C283.131 84.074 281.22 87.7344 279.472 90.8367C277.821 93.7657 275.204 98.1133 271.636 98.8238C270.584 99.0337 270.888 100.672 271.944 100.462C275.783 99.6975 278.399 95.703 280.334 92.6383C282.532 89.1549 284.784 84.7732 284.844 80.5623C284.852 80.0292 284.42 79.5663 283.86 79.675C276.305 81.1327 270.531 89.0884 266.935 95.3264C266.4 96.252 267.761 97.2134 268.297 96.2844Z" fill="#3A8435"/>
<path d="M272.848 76.5444C274.106 75.1892 275.356 73.8348 276.695 72.5614C278.015 71.3064 279.912 69.3931 281.864 69.36C284.98 69.3074 280.189 79.7183 279.795 81.2242C279.524 82.2558 281.088 82.8369 281.36 81.7985C282.111 78.9254 283.478 76.2387 284.299 73.3796C284.852 71.4601 285.104 69.4367 283.315 68.1173C279.691 65.4452 273.74 73.1506 271.771 75.2706C271.048 76.0493 272.118 77.3304 272.848 76.5444Z" fill="#3A8435"/>
<path d="M272.178 72.3251C273.607 67.0427 277.614 62.6342 282.145 59.7155C281.814 59.6439 281.483 59.5735 281.15 59.5031C282.724 61.8 282.376 64.3065 281.816 66.8622C281.587 67.9094 283.251 68.0345 283.477 67.0003C284.158 63.8913 284.27 61.1231 282.422 58.4247C282.231 58.1479 281.715 58.0261 281.426 58.2108C276.547 61.356 272.158 66.0351 270.613 71.7508C270.334 72.7819 271.897 73.3614 272.178 72.3251Z" fill="#3A8435"/>
<path d="M283.311 68.9663C286.243 66.4566 289.314 64.2648 292.857 62.6996C292.462 62.4246 292.064 62.1507 291.668 61.8783C291.568 67.9242 288.923 75.7184 284.01 79.5288C283.158 80.1895 284.239 81.458 285.085 80.8018C290.356 76.7141 293.221 68.5031 293.329 62.0164C293.339 61.3817 292.741 60.928 292.138 61.1949C288.459 62.8224 285.282 65.0855 282.235 67.6927C281.417 68.394 282.494 69.665 283.311 68.9663Z" fill="#3A8435"/>
<path d="M283.952 60.4409C286.672 57.7664 289.516 55.2333 293.293 54.2416C292.981 53.8731 292.668 53.5046 292.356 53.1361C291.496 56.6449 290.241 59.9884 288.61 63.211C288.125 64.1701 289.696 64.7329 290.174 63.7853C291.806 60.5628 293.06 57.2191 293.92 53.7104C294.058 53.1505 293.663 52.4246 292.985 52.6038C288.906 53.6748 285.826 56.2672 282.875 59.1673C282.113 59.9174 283.185 61.1946 283.952 60.4409Z" fill="#3A8435"/>
<path d="M261.488 92.1858C260.765 87.8125 262.418 82.7211 263.678 78.5967C264.368 76.3366 265.196 74.0762 266.344 72.0056C267.98 69.055 268.847 70.6443 269.405 73.2863C269.627 74.3348 271.265 74.0324 271.043 72.9783C270.707 71.3796 270.187 68.4518 268.057 68.3777C266.206 68.3135 265.031 70.9104 264.351 72.2306C261.53 77.7146 258.819 86.2538 259.85 92.494C260.025 93.5532 261.663 93.2468 261.488 92.1858Z" fill="#3A8435"/>
<path d="M272.348 100.443C280.913 99.5205 289.43 92.592 291.74 84.2479C291.865 83.7943 291.689 83.363 291.245 83.1777C288.755 82.137 286.277 81.1649 283.662 80.4751C282.631 80.2032 282.05 81.7673 283.089 82.0396C285.703 82.729 288.179 83.7015 290.671 84.7423C290.505 84.3862 290.34 84.0286 290.175 83.6736C288.007 91.5037 280.074 97.9388 272.04 98.8058C270.972 98.9204 271.285 100.56 272.348 100.443Z" fill="#3A8435"/>
<path d="M270.826 72.2337C271.12 67.0737 272.935 61.7229 275.422 57.2162C276.156 55.8871 277.588 53.1857 279.362 53.1005C281.654 52.9887 282.339 58.5539 282.596 59.9586C282.788 61.0142 284.426 60.7089 284.234 59.6506C283.772 57.125 283.206 53.1498 280.659 51.762C278.81 50.7547 277.034 52.2701 275.868 53.5886C271.767 58.2248 269.511 66.0274 269.165 72.0956C269.103 73.1675 270.764 73.3082 270.826 72.2337Z" fill="#3A8435"/>
<path d="M285.465 82.4176C292.86 79.5539 297.796 72.8011 301.854 66.3003C302.215 65.7242 301.866 65.1159 301.242 64.9904C298.144 64.3716 295.09 64.4307 291.958 64.6909C290.89 64.78 291.206 66.4171 292.267 66.3287C295.266 66.0804 298.148 66.059 301.104 66.6513C300.899 66.2156 300.695 65.7785 300.491 65.3427C296.572 71.6209 291.892 78.1448 284.746 80.9128C283.744 81.302 284.467 82.8045 285.465 82.4176Z" fill="#3A8435"/>
<path d="M284.22 58.0417C284.896 53.7549 287.993 49.6789 291.454 47.1865C291.908 46.8602 293.997 45.4244 294.314 46.5332C294.959 48.789 293.052 52.0757 292.153 54.0011C291.695 54.9772 293.266 55.54 293.717 54.5754C294.792 52.2778 296.846 48.5258 295.84 45.8599C295.195 44.1566 293.355 44.3435 291.978 44.9568C287.269 47.0512 283.341 52.9366 282.559 57.9036C282.391 58.9653 284.054 59.0956 284.22 58.0417Z" fill="#3A8435"/>
<path d="M292.861 54.9386C295.8 53.7848 298.553 52.3024 301.667 51.6502C301.338 51.3539 301.01 51.0591 300.682 50.7628C299.894 55.6196 297.915 60.2797 295.387 64.4793C294.833 65.3952 296.195 66.3567 296.749 65.4368C299.441 60.9685 301.505 56.0666 302.343 50.9009C302.431 50.3664 301.861 49.9083 301.358 50.0123C298.106 50.6932 295.215 52.2282 292.142 53.4338C291.143 53.827 291.864 55.3293 292.861 54.9386Z" fill="#3A8435"/>
<path d="M295.718 45.4069C296.798 44.2993 297.887 43.2084 299.044 42.1807C299.848 41.4662 300.538 40.492 301.512 40.7228C301.33 40.4388 301.149 40.1561 300.968 39.8709C300.615 43.3375 299.798 46.7509 299 50.1364C298.756 51.1705 300.32 51.7541 300.565 50.7107C301.398 47.1823 302.261 43.6216 302.629 40.009C302.663 39.6747 302.437 39.2411 302.086 39.1584C301.027 38.9071 300.728 38.8835 299.763 39.5125C297.842 40.7656 296.233 42.5023 294.642 44.1347C293.897 44.8983 294.967 46.1767 295.718 45.4069Z" fill="#3A8435"/>
<path d="M256.28 100.889C257.651 102.007 259.207 102.963 260.215 104.451C260.375 103.998 260.536 103.545 260.696 103.093C258.242 103.852 255.818 104.706 253.409 105.599C252.402 105.973 253.128 107.475 254.128 107.105C256.403 106.26 258.687 105.447 261.004 104.73C261.636 104.536 261.861 103.925 261.487 103.372C260.402 101.774 258.711 100.728 257.238 99.5245C256.402 98.8435 255.453 100.215 256.28 100.889Z" fill="#3A8435"/>
<path d="M257.879 122.728C257.515 120.985 256.33 118.828 256.77 117.025C257.012 116.039 260.99 117.624 261.748 117.819C262.781 118.082 263.362 116.518 262.322 116.254C260.561 115.804 257.386 114.135 255.753 115.555C253.857 117.202 255.841 121.129 256.242 123.036C256.46 124.084 258.1 123.782 257.879 122.728Z" fill="#3A8435"/>
<path d="M236.707 130.864C238.755 132.451 241.457 132.924 243.977 133.143C244.571 133.195 244.893 132.688 244.865 132.158C244.743 129.828 243.414 127.815 242.998 125.555C242.805 124.499 241.165 124.804 241.36 125.863C241.776 128.124 243.104 130.142 243.227 132.466C243.524 132.139 243.82 131.811 244.115 131.482C241.875 131.288 239.486 130.913 237.665 129.498C236.813 128.839 235.861 130.208 236.707 130.864Z" fill="#3A8435"/>
<path d="M243.284 143.945C242.987 142.676 242.613 141.33 242.751 140.017C242.899 138.612 244.822 139.151 245.702 139.376C246.735 139.643 247.315 138.081 246.277 137.812C244.706 137.407 242.481 136.986 241.479 138.663C240.528 140.26 241.259 142.598 241.646 144.253C241.891 145.294 243.531 144.993 243.284 143.945Z" fill="#3A8435"/>
<path d="M219.987 150.207C221.986 151.652 224.094 152.746 226.446 153.499C226.897 153.643 227.332 153.435 227.517 153.004C228.704 150.231 226.996 146.444 226.079 143.804C225.727 142.792 224.224 143.519 224.574 144.524C225.326 146.685 226.923 150.159 225.952 152.429C226.308 152.265 226.665 152.099 227.021 151.935C224.803 151.224 222.831 150.206 220.944 148.841C220.071 148.209 219.118 149.578 219.987 150.207Z" fill="#3A8435"/>
</g>
<defs>
<clipPath id="clip0_864_27">
<rect width="303" height="155" fill="white"/>
</clipPath>
</defs>
</svg>
