<svg width="969" height="453" viewBox="0 0 969 453" fill="none" xmlns="http://www.w3.org/2000/svg">
<g clip-path="url(#clip0_683_30)">
<path fill-rule="evenodd" clip-rule="evenodd" d="M624.609 -584.806C727.123 -595.054 813.688 -505.562 886.955 -435.425C957.536 -367.86 1021.53 -287.083 1033.25 -193.619C1044.39 -104.823 963.392 -33.3662 948.388 54.4182C929.708 163.712 1015.73 300.928 935.15 380.357C857.223 457.172 714.314 385.403 601.323 396.533C488.792 407.617 381.946 478.004 273.204 445.557C160.13 411.817 57.9055 326.455 15.6838 221.787C-25.0242 120.872 45.0471 16.211 57.0867 -90.1958C67.7636 -184.559 9.39817 -304.062 82.4405 -368.215C159.499 -435.895 296.834 -347.315 394.054 -386.153C492.149 -425.341 518.13 -574.162 624.609 -584.806Z" fill="#E0F1DF"/>
</g>
<defs>
<clipPath id="clip0_683_30">
<rect width="969" height="453" fill="white"/>
</clipPath>
</defs>
</svg>
