<svg width="1127" height="576" viewBox="0 0 1127 576" fill="none" xmlns="http://www.w3.org/2000/svg">
<path d="M157.547 354.082C152.127 332.875 150.742 310.357 152.195 288.607C152.578 282.88 152.493 277.176 150.942 271.614C149.003 264.659 143.125 261.261 136.842 258.851C128.187 255.535 118.795 254.586 110.219 251.05C109.226 250.642 109.589 249.274 110.662 249.443C120.802 251.045 132.479 255.152 142.682 252.316C151.545 249.85 140.193 237.614 137.279 234.974C132.831 230.942 127.526 227.607 122.085 225.09C110.955 219.938 97.654 223.98 86.1606 225.33C71.918 227.003 59.1607 222.655 47.186 215.121C46.3553 214.598 46.9153 213.431 47.8286 213.598C69.2686 217.498 89.5473 217.425 111.141 215.637C111.001 216.154 110.859 216.671 110.721 217.19C94.2233 209.798 85.8833 196.928 76.31 182.269C65.1233 165.143 55.7846 146.88 44.3926 129.919C43.922 129.218 44.8406 128.348 45.5326 128.778C57.9353 136.48 64.15 153.587 71.8273 165.399C80.8673 179.312 89.4846 193.111 101.693 204.478C106.545 208.997 112.909 214.795 119.821 215.549C127.233 216.359 126.102 201.604 126.133 197.118C126.177 190.862 125.717 184.585 126.097 178.333C126.206 176.561 125.737 170.827 126.917 169.718C127.337 169.323 128.198 169.437 128.31 170.086C130.731 184.018 132.642 199.576 130.218 213.597C128.969 220.818 132.929 223.95 138.529 227.449C139.938 228.328 141.373 229.167 142.794 230.028C145.414 231.612 146.754 227.926 147.882 225.925C152.193 218.273 153.858 209.303 157.285 201.254C157.615 200.476 158.87 200.887 158.837 201.674C158.401 212.063 155.717 220.959 153.349 230.918C151.765 237.59 153.113 243.224 155.573 249.42C158.034 255.609 158.446 261.539 158.895 268.112C160.737 295.082 163.593 321.767 167.271 348.55C167.414 349.6 165.809 350.054 165.665 348.992C162.058 322.737 159.095 296.545 157.361 270.098C156.901 263.097 156.525 256.47 153.966 249.863C151.903 244.539 150.327 239.797 151.13 234.032C151.706 229.906 152.995 226.039 154.206 222.068C156.227 215.439 156.881 208.571 157.17 201.674C157.687 201.815 158.205 201.954 158.722 202.095C154.349 212.373 152.555 224.011 145.195 232.769C144.966 233.04 144.475 233.094 144.185 232.9C137.083 228.186 126.823 225.087 128.342 214.951C129.459 207.48 129.102 200.732 128.911 193.215C128.753 186.828 129.402 179.525 127.002 173.485C126.302 171.726 128.271 169.394 128.225 172.294C128.206 173.47 128.287 174.702 128.107 175.867C127.479 179.923 127.622 184.018 127.69 188.112C127.831 196.328 129.321 207.035 125.339 214.616C118.734 227.187 93.2633 198.599 89.4793 194.13C81.014 184.127 73.9833 172.298 67.1193 161.164C60.806 150.926 55.2713 136.787 44.6913 130.218C45.0713 129.838 45.4526 129.458 45.8326 129.078C56.5366 145.018 65.2833 162.19 75.7273 178.319C80.0926 185.059 84.446 191.832 89.2006 198.307C95.1153 206.357 102.491 211.686 111.562 215.75C112.391 216.121 111.878 217.242 111.141 217.303C89.4166 219.1 68.922 219.123 47.386 215.206C47.5993 214.698 47.814 214.19 48.0273 213.682C57.01 219.333 66.4433 223.419 77.1353 224.027C84.4793 224.444 91.7086 222.759 98.9406 221.798C113.422 219.874 124.362 222.809 135.889 231.67C140.375 235.119 153.903 248.267 144.181 253.506C139.419 256.071 132.125 254.615 127.103 253.974C121.429 253.25 115.862 251.942 110.219 251.05C110.366 250.515 110.513 249.979 110.662 249.443C126.529 255.985 151.573 254.792 153.73 276.855C154.905 288.89 152.813 301.043 153.537 313.161C154.346 326.735 155.782 340.439 159.154 353.639C159.421 354.68 157.813 355.121 157.547 354.082Z" fill="#3A8435"/>
<path d="M160.976 300.304C164.596 299.045 168.471 298.216 171.515 295.758C175.705 292.374 172.9 286.774 171.216 283.04C169.479 279.184 172.956 275.579 175.591 273.198C177.655 271.33 180.333 270.154 182.5 268.396C188.747 263.332 182.148 258.356 178.14 255.627C175.359 253.732 172.381 250.107 173.971 246.491C176.752 240.16 184.692 238.642 185.229 230.891C185.559 226.131 177.773 224.987 176.453 220.69C175.104 216.292 177.537 213.044 180.291 209.818C182.943 206.707 188.888 198.682 182.099 195.935C179.908 195.048 177.396 195.22 175.161 194.368C172.58 193.383 170.989 190.406 171.447 187.707C171.796 185.643 172.612 183.892 173.511 182.023C177.325 174.071 164.424 174.567 160.103 175.109C155.815 175.65 152.291 174.164 150.888 169.906C150.121 167.575 151.049 164.17 151.361 161.847C151.921 157.67 151.179 151.792 143.675 153.04C141.681 153.372 139.7 154.45 137.819 155.154C133.929 156.61 130.353 155.564 127.9 152.268C123.385 146.199 131.567 131.568 116.427 135.416C111.919 136.562 106.812 138.196 102.66 135.119C97.9975 131.663 100.937 118.106 91.2841 120.271C86.5975 121.322 83.6562 123.108 78.8882 121.052C74.3668 119.102 61.5775 103.874 57.6721 113.175C56.1695 116.751 53.5281 118.979 49.6668 119.66C47.4308 120.056 44.8895 119.046 42.8121 118.42C37.5228 116.824 27.4548 117.722 30.9135 125.656C36.5228 138.527 9.16014 143.442 22.6081 156.458C25.5108 159.266 29.0535 163.91 27.8455 168.271C27.1788 170.682 25.9415 172.748 24.7522 174.938C21.4122 181.095 22.3161 187.503 26.4681 192.866C29.3975 196.645 33.7882 200.351 34.1175 205.425C34.2308 207.186 33.2455 209.109 32.7655 210.752C31.0655 216.562 32.7308 222.799 37.6788 226.298C41.3802 228.914 45.9642 231.332 47.3108 235.979C47.9682 238.247 47.5908 240.819 48.1481 243.155C49.7468 249.856 54.7895 250.54 60.4268 251.448C65.0135 252.187 70.1241 253.631 72.1055 258.239C73.3641 261.168 73.5415 263.745 75.6388 266.442C79.3775 271.25 86.9228 268.542 91.9455 268.721C97.2428 268.912 100.172 272.86 102.04 277.278C104.211 282.412 107.213 286.927 113.255 287.695C116.635 288.123 119.911 288.343 123.267 289.05C126.013 289.63 127.1 291.519 128.588 293.679C133.648 301.019 142.957 303.928 151.208 300.602C152.205 300.2 152.635 301.814 151.651 302.208C146.085 304.454 140.749 303.975 135.3 301.631C129.455 299.116 127.369 291.615 121.347 290.345C115.552 289.125 110.491 289.942 105.703 286.104C103.625 284.44 102.185 281.899 101.179 279.498C98.2988 272.635 94.4508 269.809 86.7735 270.606C81.7321 271.131 76.1935 271.033 73.2588 266.075C72.0721 264.072 71.4575 262.159 70.8961 259.912C69.4228 254.038 62.1961 253.351 57.2388 252.691C52.3588 252.04 49.3722 250.056 47.2495 245.616C46.3015 243.631 46.0055 241.404 45.8695 239.237C45.5361 233.882 42.3228 231.38 38.0335 228.53C34.5348 226.203 31.2921 223.55 30.8802 219.042C30.6042 216.04 30.5055 213.255 31.1575 210.309C31.3975 209.23 31.8202 208.171 32.1508 207.118C33.2495 203.616 30.5975 200.627 28.6361 198.094C25.6695 194.258 21.2828 190.36 21.0335 185.133C20.8761 181.845 21.3841 178.842 22.5388 175.751C24.4548 170.615 27.8188 168.139 24.9548 162.055C23.2055 158.339 17.6788 155.982 17.1295 151.666C16.3735 145.736 20.5575 140.792 24.7495 137.204C28.5242 133.972 31.2828 130.647 29.0575 125.54C28.4988 124.259 27.9841 123.182 27.8095 121.792C27.3828 118.391 33.8882 116.092 36.1801 115.928C43.6241 115.399 52.3695 121.527 56.3748 111.992C57.4895 109.336 59.6948 108.69 62.4681 109.23C69.6175 110.622 72.9055 114.628 78.4761 118.851C84.7335 123.594 89.2108 116.094 94.6695 118.651C99.1588 120.756 101.221 126.032 102.291 130.578C104.469 139.836 116.177 132.306 122.359 133.4C126.563 134.146 128.268 138.899 128.499 142.504C128.804 147.288 126.9 155.44 135.933 153.974C138.992 153.478 141.733 151.106 144.917 151.159C149.429 151.236 152.4 153.983 153.117 158.411C153.54 161.034 152.684 164.106 152.403 166.711C151.425 175.747 162.031 172.9 166.633 172.863C170.184 172.833 174.656 175.016 175.891 178.462C177.705 183.524 167.323 190.708 177.541 193.379C180.815 194.237 183.896 193.899 185.888 197.035C188.189 200.66 185.875 205.776 183.504 208.609C180.595 212.086 175.908 215.927 178.469 221.03C179.508 223.096 182.041 224.08 183.773 225.444C187.291 228.218 187.284 231.428 185.893 235.492C184.917 238.343 181.873 240.415 179.672 242.216C176.612 244.72 173.147 247.844 177.023 252.544C178.497 254.332 180.903 255.299 182.687 256.724C187.82 260.827 187.621 266.378 182.583 270.463C178.943 273.415 173.003 275.414 172.385 280.857C172.233 282.194 173.591 283.98 174.083 285.211C174.872 287.194 175.172 289.008 175.252 291.119C175.528 298.354 166.539 300.133 161.419 301.911C160.4 302.264 159.965 300.654 160.976 300.304Z" fill="#3A8435"/>
<path d="M186.237 199.128C194.695 193.678 205.277 180.464 202.845 169.746C201.23 162.636 193.078 163.283 187.679 163.13C184.427 163.038 183.822 157.922 183.365 155.738C182.982 153.918 183.277 151.928 183.437 150.098C184.013 143.506 178.627 140.332 172.523 141.516C168.419 142.311 166.066 143.158 162.891 139.886C158.918 135.792 160.747 129.683 158.649 124.879C154.197 114.691 143.95 123.046 136.881 122.72C132.807 122.534 130.226 119.094 128.21 115.995C124.045 109.596 120.042 102.439 112.222 100.17C106.187 98.4176 99.9138 102.395 93.6698 101.356C86.1778 100.11 81.1432 92.8083 73.7965 90.8029C66.6512 88.8523 61.8672 96.0389 55.5472 97.8883C48.8525 99.8496 43.5192 91.1576 36.8978 96.6736C33.0779 99.8563 33.7059 106.247 29.5405 109.631C27.9299 110.939 25.6845 111.486 23.8739 112.428C16.8125 116.106 27.9112 124.723 30.5739 125.966C31.5472 126.42 30.7005 127.856 29.7338 127.406C23.0245 124.274 15.4005 114.028 25.2925 109.935C32.2485 107.056 31.5539 100.544 35.7192 95.495C38.6499 91.9416 44.1405 93.1283 47.7032 94.6963C52.9352 96.999 56.7965 96.227 61.5885 93.011C63.4872 91.7363 65.3778 89.815 67.6592 89.2256C74.0112 87.587 79.7325 91.039 84.6925 94.643C88.7032 97.5576 92.3125 99.9096 97.5032 100.095C100.661 100.21 103.649 98.5376 106.77 98.3056C113.627 97.795 118.55 100.496 122.979 105.595C127.555 110.864 130.641 120.766 138.487 121.128C144.034 121.383 148.373 115.827 154.102 118.872C159.025 121.487 161.082 124.752 161.534 130.246C161.979 135.694 164.037 142.043 170.871 140.219C173.437 139.536 175.659 139.404 178.259 139.962C182.239 140.814 184.826 143.658 185.206 147.591C185.506 150.696 184.604 153.543 185.264 156.695C186.476 162.466 189.492 160.93 193.615 161.264C203.854 162.094 206.328 171.311 203.482 179.637C200.722 187.712 194.253 195.944 187.078 200.568C186.173 201.151 185.339 199.708 186.237 199.128Z" fill="#3A8435"/>
<path d="M29.3225 132.731C22.2678 130.471 15.4612 130.811 8.92251 134.467C4.15717 137.132 6.99318 142.761 7.59318 146.827C9.06518 156.791 -2.84013 163.543 4.48653 172.768C9.11587 178.596 17.3638 181.619 12.6958 189.997C8.81718 196.961 2.86121 200.627 7.21987 209.844C9.22387 214.082 13.7625 217.312 15.1812 221.792C15.7719 223.656 15.2745 224.961 14.5505 226.727C11.2892 234.67 14.6839 240.428 20.7652 245.403C25.1385 248.983 30.3919 251.184 34.1719 255.46C38.3585 260.197 37.3052 266.915 41.6505 271.756C49.1145 280.071 63.2812 274.901 72.4159 280.766C76.5199 283.403 79.1532 286.796 84.3185 287.233C90.4105 287.748 99.8199 287.807 105.273 285.219C106.239 284.761 107.085 286.199 106.115 286.659C101.205 288.987 95.7318 288.54 90.4265 288.718C85.7958 288.873 81.4639 289.416 77.4665 286.716C71.0145 282.36 66.8665 279.096 58.7465 278.557C53.3679 278.2 48.3998 278.02 43.5639 275.384C38.9865 272.892 37.0972 268.388 35.9732 263.596C33.8425 254.507 26.1972 251.789 19.5865 246.582C15.8999 243.677 11.4852 239.577 11.3945 234.448C11.3078 229.607 15.1665 224.692 12.5065 220.376C9.31186 215.195 5.01587 211.24 3.9532 205.02C3.1572 200.366 5.81852 196.336 8.49985 192.871C11.8038 188.597 14.4319 184.954 9.61987 179.915C7.2452 177.428 4.49452 175.44 2.34119 172.731C-0.0681381 169.696 -0.664146 165.376 0.767853 161.853C2.80119 156.847 6.15585 154.385 6.07052 148.364C6.02252 144.939 3.6252 140.869 4.61053 137.449C7.30653 128.087 22.7292 128.869 29.7652 131.124C30.7852 131.451 30.3478 133.06 29.3225 132.731Z" fill="#3A8435"/>
<path d="M150.904 316.595C139.124 301.061 114.46 307.573 97.8227 307.606C87.9547 307.624 78.0067 306.304 68.8014 302.651C59.5654 298.984 54.9534 289.815 45.1774 287.278C36.8254 285.111 29.376 285.888 24.3227 277.699C22.7654 275.175 23.0094 271.649 22.9667 268.839C22.8494 260.926 16.2227 258.176 10.5387 254.594C-2.6613 246.273 -0.0906525 228.67 12.724 221.978C13.676 221.482 14.5173 222.919 13.5654 223.418C2.69469 229.094 -0.317291 241.987 8.7787 251.167C14.0907 256.531 21.564 257.359 24.1947 265.219C25.256 268.385 24.4814 272.075 25.176 275.339C26.7747 282.864 35.6654 284.139 41.784 284.994C50.576 286.224 54.8934 290.096 61.0774 295.992C74.8547 309.127 99.1214 305.992 116.432 305.042C129.107 304.347 143.989 304.736 152.344 315.755C152.993 316.611 151.545 317.44 150.904 316.595Z" fill="#3A8435"/>
<path d="M161.781 309.83C175.375 305.023 187.329 290.859 194.253 278.706C203.019 263.319 198.165 244.213 196.271 227.732C194.513 212.444 196.685 199.533 206.282 187.272C211.378 180.759 216.901 174.284 218.901 166.061C220.386 159.959 217.239 154.04 211.955 151.036C208.682 149.172 204.685 148.612 201.258 147.016C196.547 144.821 194.493 140.54 194.07 135.633C193.294 126.589 192.909 116.596 182.463 113.737C173.225 111.208 160.193 115.251 153.673 106.093C151.026 102.377 149.63 97.9988 147.203 94.1548C141.354 84.8895 131.141 90.3401 122.878 91.5255C117.986 92.2268 114.243 88.8561 111.149 85.6335C101.779 75.8748 90.7139 87.7641 88.3446 97.1708C88.2672 97.6335 88.1899 98.0948 88.1126 98.5562C87.9326 99.6148 86.3286 99.1642 86.5059 98.1135C87.9272 89.6748 97.2846 76.1548 107.61 81.0335C109.927 82.1281 111.537 83.6295 113.305 85.4722C117.637 89.9841 122.427 90.3708 128.245 88.5335C133.818 86.7735 139.183 86.1068 144.453 89.0855C147.849 91.0042 149.715 94.9228 151.299 98.2855C154.289 104.631 157.187 108.749 164.453 110.321C174.602 112.519 186.197 109.033 192.539 119.392C196.222 125.409 194.955 132.053 196.127 138.604C197.817 148.051 210.219 146.121 215.751 151.541C226.151 161.732 218.047 174.761 210.871 184.119C205.849 190.668 201.091 196.488 198.743 204.588C196.214 213.319 197.315 222.88 198.417 231.745C200.289 246.797 203.326 262.495 197.01 276.948C191.014 290.664 176.534 306.376 162.223 311.436C161.207 311.796 160.774 310.185 161.781 309.83Z" fill="#3A8435"/>
<path d="M120.992 216.442C113.051 208.292 108.648 198.07 106.195 187.07C103.033 172.882 106.92 158.216 103.917 143.971C103.696 142.923 105.303 142.476 105.524 143.528C108.045 155.486 106.164 167.595 106.843 179.688C107.567 192.627 113.137 205.994 122.172 215.261C122.921 216.033 121.744 217.211 120.992 216.442Z" fill="#3A8435"/>
<path d="M105.817 185.426C101.234 175.135 94.6784 165.912 87.0824 157.632C81.7437 151.811 76.4291 145.988 74.3357 138.186C74.0571 137.147 75.6651 136.706 75.9424 137.743C78.4611 147.131 85.8931 153.62 92.0717 160.699C98.2491 167.772 103.445 176.023 107.254 184.584C107.688 185.556 106.252 186.406 105.817 185.426Z" fill="#3A8435"/>
<path d="M95.8365 168.07C88.8231 166.334 80.4551 166.406 75.4311 160.431C74.7445 159.614 75.9165 158.428 76.6098 159.252C81.4031 164.952 89.5858 164.806 96.2791 166.463C97.3231 166.72 96.8805 168.328 95.8365 168.07Z" fill="#3A8435"/>
<path d="M107.222 189.285C111.365 181.232 117.346 174.282 120.149 165.558C120.475 164.539 122.086 164.975 121.755 166C118.907 174.867 112.873 181.94 108.659 190.126C108.169 191.082 106.73 190.239 107.222 189.285Z" fill="#3A8435"/>
<path d="M109.073 216.427C96.4926 215.32 84.4979 210.363 73.1846 205.003C62.6979 200.035 51.3286 192.264 46.1606 181.518C45.6965 180.554 47.1339 179.707 47.6006 180.676C52.4166 190.694 62.6926 197.854 72.3672 202.756C83.6766 208.486 96.3392 213.642 109.073 214.76C110.134 214.854 110.143 216.52 109.073 216.427Z" fill="#3A8435"/>
<path d="M74.5443 204.799C68.6296 193.018 63.5336 181.454 53.4896 172.491C52.6843 171.774 53.8683 170.599 54.667 171.312C64.7963 180.352 70.003 192.046 75.9843 203.958C76.4643 204.915 75.027 205.761 74.5443 204.799Z" fill="#3A8435"/>
<path d="M60.8045 198.483C55.9432 202.408 48.6379 203.387 42.7459 201.508C41.7272 201.183 42.1619 199.573 43.1886 199.901C48.4686 201.584 55.2339 200.849 59.6245 197.303C60.4539 196.635 61.6405 197.807 60.8045 198.483Z" fill="#3A8435"/>
<path d="M37.622 148.431C44.9967 154.346 53.3514 160.119 63.2887 158.779C64.3407 158.638 64.794 160.243 63.7327 160.386C53.114 161.818 44.386 155.98 36.442 149.611C35.6034 148.938 36.79 147.766 37.622 148.431Z" fill="#3A8435"/>
<path d="M145.044 247.771C132.668 241.203 118.346 239.718 104.728 242.63C94.131 244.896 84.4297 247.991 73.911 243.706C72.9297 243.306 73.3577 241.692 74.3537 242.097C87.479 247.447 100.183 240.914 113.399 239.544C124.348 238.411 136.26 241.223 145.886 246.331C146.836 246.835 145.992 248.273 145.044 247.771Z" fill="#3A8435"/>
<path d="M116.509 239.837C101.706 232.615 87.0472 231.351 71.0312 234.959C69.9845 235.195 69.5392 233.588 70.5885 233.352C87.0392 229.645 102.135 230.976 117.349 238.396C118.315 238.868 117.469 240.306 116.509 239.837Z" fill="#3A8435"/>
<path d="M117.161 240.7C107.56 249.151 92.9157 248.874 86.661 261.255C86.177 262.214 84.7371 261.371 85.2211 260.414C91.6477 247.695 106.166 248.163 115.982 239.52C116.786 238.814 117.969 239.987 117.161 240.7Z" fill="#3A8435"/>
<path d="M99.5724 249.333C103.12 254.875 101.711 261.119 101.826 267.319C101.846 268.395 100.178 268.392 100.159 267.319C100.051 261.464 101.495 255.427 98.1323 250.175C97.5523 249.267 98.995 248.431 99.5724 249.333Z" fill="#3A8435"/>
<path d="M151.513 291.328C144.665 278.161 129.55 276.323 117.553 269.894C116.606 269.385 117.447 267.947 118.394 268.454C130.722 275.061 145.919 276.968 152.951 290.487C153.447 291.439 152.009 292.283 151.513 291.328Z" fill="#3A8435"/>
<path d="M139.497 279.036C138.188 273.865 135.669 269.204 133.38 264.423C132.919 263.458 134.355 262.612 134.819 263.582C137.171 268.492 139.76 273.282 141.104 278.594C141.367 279.635 139.76 280.077 139.497 279.036Z" fill="#3A8435"/>
<path d="M156.659 259.559C162.063 249.979 166.667 240.006 170.878 229.85C171.285 228.872 172.898 229.3 172.485 230.292C168.219 240.582 163.573 250.694 158.097 260.4C157.569 261.337 156.129 260.496 156.659 259.559Z" fill="#3A8435"/>
<path d="M158.115 258.52C163.847 260.576 169.949 263.07 176.127 261.739C177.175 261.514 177.621 263.119 176.57 263.345C170.047 264.751 163.739 262.303 157.673 260.127C156.667 259.767 157.099 258.156 158.115 258.52Z" fill="#3A8435"/>
<path d="M142.794 230.994C143.019 223.128 141.884 215.023 144.44 207.432C147.115 199.491 153.9 193.912 155.612 185.483C155.826 184.428 157.431 184.875 157.219 185.926C155.906 192.396 151.96 197.451 148.542 202.955C143.172 211.595 144.736 221.34 144.46 230.994C144.431 232.067 142.764 232.07 142.794 230.994Z" fill="#3A8435"/>
<path d="M144.742 207.424C140.334 198.264 140.21 188.015 140.388 178.045C140.406 176.973 142.074 176.971 142.055 178.045C141.883 187.689 141.911 197.712 146.179 206.583C146.644 207.545 145.208 208.392 144.742 207.424Z" fill="#3A8435"/>
<path d="M153.263 171.879C159.551 164.815 167.13 158.791 171.771 150.408C172.29 149.468 173.73 150.308 173.208 151.25C168.498 159.762 160.827 165.884 154.442 173.059C153.726 173.863 152.551 172.68 153.263 171.879Z" fill="#3A8435"/>
<path d="M161.406 162.296C160.809 156.048 159.339 149.947 158.322 143.763C158.149 142.712 159.755 142.262 159.929 143.32C160.971 149.651 162.461 155.899 163.073 162.296C163.175 163.367 161.509 163.356 161.406 162.296Z" fill="#3A8435"/>
<path d="M129.665 153.04C134.169 146.872 136.464 137.842 135.405 130.272C135.259 129.222 136.864 128.768 137.012 129.83C138.137 137.874 135.908 147.3 131.104 153.88C130.476 154.739 129.029 153.91 129.665 153.04Z" fill="#3A8435"/>
<path d="M104.252 135.527C106.003 127.238 111.46 121.13 117.391 115.402C118.163 114.655 119.343 115.832 118.567 116.582C112.84 122.114 107.553 127.95 105.859 135.97C105.636 137.022 104.029 136.575 104.252 135.527Z" fill="#3A8435"/>
<path d="M107.618 126.528C106.446 120.672 104.239 115.143 101.712 109.751C101.258 108.783 102.695 107.936 103.151 108.91C105.738 114.427 108.023 120.091 109.224 126.086C109.435 127.135 107.828 127.582 107.618 126.528Z" fill="#3A8435"/>
<path d="M64.8242 109.479C67.0149 105.71 68.5362 101.596 70.9015 97.9255C71.4815 97.0255 72.9242 97.8602 72.3415 98.7655C69.9735 102.438 68.4549 106.551 66.2629 110.319C65.7242 111.248 64.2829 110.41 64.8242 109.479Z" fill="#3A8435"/>
<path d="M51.4838 117.884C48.9545 114.192 47.6811 109.884 46.1411 105.728C45.7665 104.717 47.3785 104.287 47.7478 105.285C49.2398 109.312 50.4731 113.467 52.9225 117.043C53.5318 117.932 52.0865 118.765 51.4838 117.884Z" fill="#3A8435"/>
<path d="M173.266 190.428C180.492 189.261 185.836 182.032 188.023 175.476C188.362 174.461 189.971 174.896 189.63 175.919C187.274 182.981 181.511 190.775 173.708 192.035C172.659 192.204 172.207 190.597 173.266 190.428Z" fill="#3A8435"/>
<path d="M181.695 122.196C173.968 126.564 171.467 134.823 167.721 142.292C167.239 143.253 165.801 142.409 166.284 141.451C170.181 133.676 172.843 125.285 180.853 120.756C181.791 120.227 182.629 121.667 181.695 122.196Z" fill="#3A8435"/>
<path d="M168.621 120.027C168.44 124.058 169.288 127.984 171.265 131.514C171.791 132.452 170.351 133.292 169.825 132.355C167.711 128.583 166.761 124.342 166.955 120.027C167.003 118.956 168.669 118.951 168.621 120.027Z" fill="#3A8435"/>
<path d="M198.581 151.333C193.561 153.436 189.465 157.873 186.826 162.544C186.297 163.48 184.857 162.641 185.386 161.704C188.266 156.611 192.687 152.009 198.138 149.727C199.13 149.312 199.558 150.925 198.581 151.333Z" fill="#3A8435"/>
<path d="M138.716 96.4349C135.636 104.854 138.132 113.618 136.512 122.254C136.315 123.31 134.708 122.86 134.905 121.811C136.531 113.146 134.015 104.451 137.109 95.9923C137.473 94.9909 139.085 95.4243 138.716 96.4349Z" fill="#3A8435"/>
<path d="M25.0931 229.308C28.9185 231.826 31.8691 235.064 35.0078 238.361C37.0571 240.514 39.0438 242.664 42.1745 242.855C44.0291 242.967 45.7878 242.873 47.6318 243.211C48.6891 243.406 48.2398 245.011 47.1891 244.818C43.6705 244.172 39.8238 245.259 36.9425 242.548C32.7131 238.573 29.1398 233.964 24.2518 230.748C23.3585 230.159 24.1918 228.715 25.0931 229.308Z" fill="#3A8435"/>
<path d="M100.864 279.642C89.0178 277.291 77.4765 274.083 65.5285 272.175C56.8458 270.79 48.3778 268.414 42.4658 261.537C41.7712 260.724 42.9445 259.54 43.6458 260.356C50.2632 268.056 60.0858 269.678 69.6178 271.139C80.3458 272.783 90.6792 275.927 101.307 278.035C102.362 278.243 101.914 279.85 100.864 279.642Z" fill="#3A8435"/>
<path d="M59.5619 269.649C59.2606 265.68 58.2139 261.955 56.2446 258.484C55.7139 257.548 57.1539 256.708 57.6833 257.644C59.7966 261.368 60.9032 265.391 61.2286 269.649C61.3099 270.721 59.6419 270.714 59.5619 269.649Z" fill="#3A8435"/>
<path d="M134.351 301.052C129.451 300.899 124.946 299.69 120.27 298.267C113.175 296.107 107.383 296.208 100.11 297.428C89.2752 299.243 78.9379 297.288 69.1952 292.42C68.2339 291.939 69.0779 290.501 70.0366 290.98C82.3446 297.13 93.2886 296.707 106.498 294.62C115.919 293.131 125.002 299.094 134.351 299.385C135.425 299.42 135.427 301.087 134.351 301.052Z" fill="#3A8435"/>
<path d="M172.082 282.312C187.626 282.379 198.793 262.515 190.838 249.478C188.682 245.943 187.669 243.008 188.378 238.892C189.786 230.73 192.237 225.984 187.066 218.312C186.462 217.418 187.908 216.585 188.505 217.471C192.656 223.63 192.945 228.491 191.034 235.52C189.466 241.285 190.014 244.928 193.046 249.894C194.596 252.432 195.369 254.973 195.632 257.919C196.741 270.373 184.377 284.032 172.082 283.979C171.009 283.973 171.008 282.307 172.082 282.312Z" fill="#3A8435"/>
<path d="M1060.45 494.083C1060.61 496.473 1061.22 498.899 1060.63 501.273C1060.55 501.624 1060.19 501.896 1059.83 501.885C1057.71 501.821 1055.59 501.989 1053.46 501.925C1052.9 501.908 1052.55 501.408 1052.66 500.871C1053.09 498.829 1053.4 496.737 1053.03 494.663C1052.95 494.189 1053.16 493.803 1053.61 493.639C1055.47 492.972 1057.64 492.741 1059.54 493.365C1060.55 493.699 1060.12 495.308 1059.1 494.972C1057.45 494.432 1055.66 494.671 1054.06 495.245C1054.25 494.904 1054.44 494.561 1054.64 494.22C1055.06 496.605 1054.76 498.961 1054.27 501.313C1054 500.961 1053.73 500.609 1053.46 500.259C1055.59 500.323 1057.71 500.155 1059.83 500.219C1059.56 500.424 1059.3 500.627 1059.03 500.831C1059.57 498.636 1058.94 496.293 1058.78 494.083C1058.71 493.009 1060.38 493.016 1060.45 494.083Z" fill="#3A8435"/>
<path d="M1060.53 500.268C1064.62 504.581 1064.36 511.124 1065.36 516.64C1066.87 524.946 1066.88 533.572 1064.95 541.828C1061.28 557.566 1045.93 567.44 1030.75 569.06C1024.34 569.744 1015.34 568.262 1011.19 562.72C1007.69 558.032 1008.08 553.026 1013.25 549.664C1017.26 547.053 1021.66 545.429 1026.01 543.494C1031.51 541.052 1035.53 536.985 1038.84 532.038C1041.64 527.86 1043.92 523.206 1046.18 518.728C1048.78 513.57 1053.87 506.489 1053.64 500.636C1053.6 499.56 1055.27 499.564 1055.31 500.636C1055.54 506.532 1051.2 512.156 1048.74 517.26C1045.62 523.734 1042.29 530.316 1038.01 536.112C1034.66 540.636 1030.07 543.505 1025 545.756C1021.89 547.14 1018.76 548.369 1015.77 550.013C1005.64 555.585 1013.49 564.104 1020.63 566.538C1036.61 571.985 1054.42 560.386 1061.44 546.586C1065.02 539.544 1065.06 530.692 1064.63 522.98C1064.31 517.018 1063.55 505.872 1059.35 501.448C1058.61 500.668 1059.78 499.488 1060.53 500.268Z" fill="#3A8435"/>
<path d="M1008.56 558.095C1002.12 546.131 1004.78 534.549 1013.59 524.793C1018.86 518.956 1025.54 514.348 1032.15 510.18C1038.43 506.215 1045.76 501.353 1053.24 500.288C1054.29 500.139 1054.75 501.744 1053.68 501.895C1047.56 502.767 1041.99 506.372 1036.68 509.405C1030.5 512.936 1024.64 517.005 1019.24 521.647C1008.34 531.009 1002.75 543.789 1010 557.253C1010.51 558.2 1009.07 559.04 1008.56 558.095Z" fill="#3A8435"/>
<path d="M1009.7 557.954C1010.31 569.85 1026.73 573.842 1036.26 573.849C1049.56 573.86 1063.61 570.044 1071.85 558.94C1078.83 549.532 1078.15 533.421 1075.51 522.604C1074.39 517.994 1067.43 499.976 1060.94 502.092C1059.91 502.426 1059.48 500.816 1060.49 500.484C1068.2 497.973 1073.98 513.88 1075.97 518.83C1080.84 530.958 1080.3 548.64 1073.29 559.781C1065 572.969 1046.88 575.801 1032.66 575.474C1022.99 575.253 1008.6 569.02 1008.04 557.954C1007.98 556.88 1009.65 556.885 1009.7 557.954Z" fill="#3A8435"/>
<path d="M1011.08 559.101C1027.78 560.888 1050.52 555.219 1056.92 537.745C1057.29 536.744 1058.9 537.176 1058.53 538.188C1051.86 556.392 1028.62 562.644 1011.08 560.768C1010.02 560.655 1010.01 558.987 1011.08 559.101Z" fill="#3A8435"/>
<path d="M1057.16 500.689C1059.25 514.902 1054.19 531.778 1045.66 543.13C1041.74 548.344 1036.84 552.468 1030.83 554.988C1027.4 556.429 1023.51 556.906 1019.88 557.606C1016.61 558.238 1013.67 559.562 1010.32 559.841C1009.25 559.93 1009.26 558.262 1010.32 558.174C1015.77 557.72 1021.67 555.7 1027.02 554.432C1033.6 552.878 1038.59 548.698 1042.99 543.781C1047.72 538.497 1050.84 532.07 1052.8 525.314C1054.95 517.888 1056.67 508.766 1055.55 501.132C1055.4 500.081 1057 499.629 1057.16 500.689Z" fill="#3A8435"/>
<path d="M1008.86 557.391C1008.95 550.997 1008.46 545.265 1011.17 539.327C1013.71 533.737 1018.81 529.101 1023.18 524.984C1028.11 520.351 1033.32 515.799 1038.97 512.056C1042.39 509.787 1045.89 507.961 1049 505.216C1050.86 503.573 1052.27 501.751 1054.34 500.324C1055.22 499.713 1056.06 501.159 1055.18 501.764C1050.93 504.692 1047.83 508.563 1043.36 511.328C1037.78 514.777 1032.76 518.727 1027.82 523.035C1023.04 527.197 1018.45 531.611 1014.68 536.719C1010.03 543.011 1010.63 550.049 1010.52 557.391C1010.51 558.465 1008.84 558.467 1008.86 557.391Z" fill="#3A8435"/>
<path d="M1009.8 551.334C1016.76 537.628 1028.4 528.513 1039.71 518.365C1040.51 517.649 1041.69 518.824 1040.89 519.544C1029.75 529.538 1018.1 538.665 1011.24 552.176C1010.75 553.134 1009.31 552.29 1009.8 551.334Z" fill="#3A8435"/>
<path d="M1010.44 561.051C1014.33 568.841 1027.52 570.401 1035.12 570.175C1045.58 569.863 1058.04 563.665 1064.24 555.248C1069.1 548.655 1071.01 536.752 1071.09 528.749C1071.17 519.252 1067.38 509.464 1061.98 501.789C1061.36 500.908 1062.81 500.077 1063.42 500.948C1069.52 509.608 1072.83 520.041 1072.73 530.639C1072.65 540.349 1069.4 552.159 1062.94 559.496C1055.96 567.428 1042.93 571.608 1032.74 571.913C1025.02 572.144 1012.78 569.464 1009 561.892C1008.52 560.933 1009.96 560.089 1010.44 561.051Z" fill="#3A8435"/>
<path d="M987.39 552.627C996.743 541.637 1003.1 527.993 1010.42 515.629C1019.27 500.713 1027.65 485.69 1035.66 470.31C1049.64 443.459 1064.43 412.655 1095.19 402.371C1096.2 402.033 1095.77 400.423 1094.75 400.765C1082.91 404.721 1071.62 412.061 1063.47 421.481C1053.53 432.977 1045.98 447.589 1038.77 460.883C1030.57 475.993 1022.93 491.318 1014.14 506.103C1009.49 513.926 1004.78 521.722 1000.24 529.605C995.885 537.151 991.89 544.775 986.211 551.447C985.519 552.261 986.692 553.446 987.39 552.627Z" fill="#3A8435"/>
<path d="M1024.61 490.967C1024.41 477.359 1028.01 464.283 1032.92 451.699C1038.26 437.98 1045.03 424.619 1054.07 412.958C1067.6 395.498 1093.77 384.696 1099.37 361.638C1099.62 360.594 1098.02 360.151 1097.76 361.195C1094.68 373.906 1083.66 383.212 1074.39 391.707C1064.68 400.603 1054.96 408.226 1047.47 419.234C1033.77 439.384 1022.58 466.332 1022.95 490.967C1022.96 492.04 1024.63 492.042 1024.61 490.967Z" fill="#3A8435"/>
<path d="M1098.97 362.996C1100.19 359.104 1102.41 352.536 1099.42 348.978C1096.13 345.074 1091.89 354.018 1091.25 355.568C1090.65 357.01 1083.94 368.754 1083.78 368.506C1082.01 365.8 1081.55 361.942 1080.41 358.938C1079.2 355.726 1076.93 352.799 1073.58 355.363C1067.65 359.911 1067.38 370.355 1065.63 376.904C1065.32 378.027 1061.6 388.164 1059.48 383C1058.84 381.436 1058.51 379.719 1057.97 378.115C1057.4 376.396 1055.68 371.84 1053.37 371.456C1038.79 369.026 1048.47 410.36 1049.17 416.331C1049.29 417.386 1050.96 417.398 1050.84 416.331C1049.44 404.323 1045.6 391.886 1047.71 379.694C1048.32 376.187 1052.52 371.384 1055.24 376.142C1056.53 378.408 1057.08 380.986 1057.88 383.443C1058.24 384.556 1059.41 387.176 1061.09 386.587C1068.65 383.938 1068.79 369.146 1070.81 362.93C1071.63 360.411 1075.16 353.028 1078.05 357.77C1079.12 359.522 1079.64 361.69 1080.25 363.636C1080.96 365.916 1081.5 368.679 1083.21 370.462C1083.51 370.771 1084.1 370.803 1084.39 370.462C1087.77 366.492 1090.39 362.107 1092.33 357.279C1093.02 355.568 1093.79 353.975 1094.69 352.379C1096.09 352.011 1097.49 351.643 1098.9 351.275C1099.12 352.382 1099.17 353.494 1099.06 354.61C1098.94 357.274 1098.16 360.019 1097.36 362.552C1097.04 363.58 1098.64 364.018 1098.97 362.996Z" fill="#3A8435"/>
<path d="M1095.92 402.041C1102.37 398.262 1110.02 397.442 1117.37 397.851C1119.07 397.997 1120.76 398.267 1122.41 398.666C1122.84 399.741 1123.26 400.814 1123.69 401.887C1121.36 403.843 1118.61 404.842 1115.44 404.883C1111.33 405.339 1107.27 404.702 1103.16 405.414C1102.51 405.525 1102.38 406.394 1102.79 406.807C1104.35 408.413 1106.56 409.401 1108.47 410.497C1110.02 411.383 1111.55 412.311 1113.04 413.293C1114.04 413.946 1114.98 414.678 1115.85 415.486C1118.31 417.63 1116.62 421.858 1113.33 421.289C1106.67 420.133 1101.38 413.969 1094.57 413.526C1094.06 413.493 1093.59 414.089 1093.77 414.581C1094.38 416.245 1095.07 417.875 1095.7 419.531C1096.07 420.519 1096.36 421.526 1096.6 422.554C1095.7 423.785 1094.82 425.017 1093.93 426.247C1092.8 425.487 1091.79 424.602 1090.89 423.589C1086.76 419.33 1083.43 414.466 1078.7 410.802C1077.86 410.153 1076.67 411.323 1077.52 411.981C1081.56 415.11 1084.52 419.083 1087.97 422.799C1089.78 424.75 1091.64 427.487 1094.37 428.239C1099.93 429.767 1098.09 421.451 1097.31 419.087C1096.98 418.105 1095.58 415.315 1095.97 415.401C1097.84 415.807 1099.62 416.879 1101.32 417.735C1104.37 419.277 1107.37 420.901 1110.55 422.175C1113.18 423.233 1120.09 423.989 1119.57 418.987C1119.06 414.051 1113.1 411.25 1109.32 409.058C1108.01 408.302 1106.7 407.563 1105.41 406.773C1103.21 405.462 1104.12 405.375 1108.14 406.514C1109.76 406.523 1111.38 406.55 1113 406.594C1116.56 406.673 1120.91 406.267 1123.81 403.918C1128.18 400.381 1125.57 397.629 1120.95 396.659C1112.59 394.902 1102.46 396.277 1095.08 400.602C1094.15 401.143 1094.99 402.585 1095.92 402.041Z" fill="#3A8435"/>
<path d="M1043.45 455.534C1045.08 454.642 1046.67 453.933 1048.44 453.287C1050.85 452.141 1052.67 453.271 1053.9 456.677C1053.21 457.77 1052.39 458.759 1051.45 459.646C1049.4 461.773 1046.87 463.381 1044.87 465.563C1044.59 465.869 1044.5 466.451 1044.87 466.743C1045.63 467.341 1045.92 467.133 1047.05 467.058C1050.39 466.838 1054.32 468.178 1055.74 471.702C1057.41 475.843 1052.94 478.747 1050.33 480.393C1042.59 485.277 1033.74 488.546 1024.56 488.733C1023.48 488.754 1023.48 490.421 1024.56 490.399C1034.22 490.203 1046.55 486.593 1053.94 479.929C1059.16 475.223 1058.42 468.583 1051.68 466.006C1050.25 465.459 1048.55 465.434 1047.05 465.391C1046.38 466.369 1046.49 466.371 1047.39 465.401C1048.37 464.495 1049.43 463.669 1050.44 462.809C1052.34 461.202 1056.42 458.006 1056.17 455.025C1055.58 447.869 1046.24 452.113 1042.6 454.094C1041.66 454.609 1042.5 456.049 1043.45 455.534Z" fill="#3A8435"/>
<path d="M1033.52 448.1C1032.73 443.979 1030.9 440.202 1030.1 436.063C1029.14 431.106 1029.16 425.94 1029.06 420.912C1029.04 419.839 1027.38 419.836 1027.4 420.912C1027.49 425.47 1027.51 430.087 1028.2 434.603C1028.95 439.45 1031 443.779 1031.91 448.543C1032.11 449.598 1033.72 449.15 1033.52 448.1Z" fill="#3A8435"/>
<path d="M1030.32 433.172C1035.12 426.33 1040.36 415.358 1036.58 407.052C1036.39 406.64 1035.8 406.538 1035.44 406.752C1034.62 407.243 1030.05 410.602 1030.53 411.319C1029.26 409.435 1029.19 406.868 1027.7 405.096C1025.53 402.519 1022.31 403.616 1021.09 406.558C1017.88 414.326 1018.38 431.227 1028.8 433.432C1029.85 433.655 1030.3 432.048 1029.24 431.826C1022.16 430.326 1020.65 419.948 1021.08 413.918C1021.19 412.292 1021.53 410.73 1021.92 409.155C1022.25 406.995 1023.89 406.235 1026.86 406.878C1027.26 407.707 1027.62 408.558 1027.93 409.427C1028.46 410.846 1028.93 412.299 1030.07 413.348C1030.48 413.727 1031.07 413.636 1031.38 413.179C1032.73 411.163 1035.74 407.002 1036.15 412.055C1036.37 414.788 1035.59 417.586 1034.84 420.186C1033.6 424.507 1031.46 428.656 1028.88 432.331C1028.26 433.214 1029.71 434.044 1030.32 433.172Z" fill="#3A8435"/>
<path d="M51.3333 22.6667C45.0747 22.6667 40 17.5934 40 11.3334C40 5.07475 45.0747 8.2016e-05 51.3333 8.2016e-05C57.592 8.2016e-05 62.6667 5.07475 62.6667 11.3334C62.6667 17.5934 57.592 22.6667 51.3333 22.6667Z" fill="#AADE81"/>
</svg>
