<svg width="999" height="585" viewBox="0 0 999 585" fill="none" xmlns="http://www.w3.org/2000/svg">
<g clip-path="url(#clip0_692_33)">
<path fill-rule="evenodd" clip-rule="evenodd" d="M588.609 0.193752C691.123 -10.0538 777.688 79.4379 850.956 149.575C921.536 217.14 985.531 297.917 997.253 391.381C1008.39 480.177 927.392 551.634 912.388 639.418C893.708 748.712 979.728 885.928 899.15 965.357C821.223 1042.17 678.314 970.403 565.323 981.533C452.792 992.617 345.946 1063 237.204 1030.56C124.13 996.817 21.9055 911.455 -20.3162 806.787C-61.0242 705.872 9.04715 601.211 21.0867 494.804C31.7636 400.441 -26.6018 280.938 46.4405 216.785C123.499 149.105 260.834 237.685 358.054 198.847C456.149 159.659 482.13 10.8377 588.609 0.193752Z" fill="#E0F1DF"/>
</g>
<defs>
<clipPath id="clip0_692_33">
<rect width="999" height="585" fill="white"/>
</clipPath>
</defs>
</svg>
