<svg width="1200" height="843" viewBox="0 0 1200 843" fill="none" xmlns="http://www.w3.org/2000/svg">
<g clip-path="url(#clip0_672_27)">
<path d="M72.3333 294.667C55.028 294.667 41 280.639 41 263.333C41 246.029 55.028 232 72.3333 232C89.6373 232 103.667 246.029 103.667 263.333C103.667 280.639 89.6373 294.667 72.3333 294.667Z" fill="#AADE81"/>
<path d="M1070.61 776.022C1067.17 784.398 1062.36 793.291 1052.14 794.034C1047.01 794.406 1041.34 791.23 1036.86 789.258C1030.09 786.279 1023.17 784.734 1015.75 785.947C1000.02 788.516 987.517 798.861 979.697 812.464C961.714 843.751 985.631 877.962 1009.31 898.234C1022.02 909.118 1037.5 917.101 1054.26 918.868C1072.99 920.839 1088.57 910.385 1099.61 896.126C1111.14 881.24 1117.96 860.893 1112.52 842.404C1110.16 834.351 1104.73 827.605 1098.61 822.075C1095.23 819.026 1091.29 816.683 1087.48 814.243C1085.23 812.801 1082.82 811.572 1080.53 810.19C1072.88 805.582 1072.96 797.793 1076.18 790.665C1077.72 787.279 1079.77 784.132 1081.46 780.822C1081.76 780.232 1081.57 779.676 1081.06 779.291C1078.72 777.527 1076.57 775.884 1073.96 774.54C1072.68 773.881 1071.54 775.804 1072.82 776.468C1077.9 779.085 1079.33 780.222 1076.54 785.207C1074.52 788.807 1072.8 792.371 1071.76 796.366C1069.96 803.276 1074.13 808.457 1079.39 812.119C1088.75 818.635 1098.16 823.032 1105.13 832.53C1112.5 842.583 1113.75 855.763 1110.89 867.597C1105.66 889.229 1089.54 910.8 1067.17 916.081C1048.61 920.465 1028.65 910.211 1014.33 899.418C999.526 888.272 987.406 872.91 979.822 856.04C971.659 837.881 975.926 818.438 988.694 803.586C994.418 796.927 1002 792.095 1010.32 789.409C1020.82 786.018 1030.03 788.695 1039.71 792.936C1056.09 800.117 1066.27 792.445 1072.77 776.622C1073.32 775.291 1071.16 774.7 1070.61 776.022" fill="#3A8435"/>
<path d="M1071.03 783.779C1067.5 790.84 1064.6 798.026 1058.94 803.722C1053.62 809.069 1044.02 811.066 1037.13 813.487C1026.57 817.196 1018.07 822.906 1011.11 831.696C999.017 846.959 995.714 868.464 1003.19 886.402C1003.75 887.738 1005.7 886.645 1005.15 885.327C995.578 862.358 1005.2 834.785 1025.66 821.202C1034.58 815.28 1045.76 813.49 1055.29 808.698C1064.83 803.904 1068.45 793.941 1072.96 784.914C1073.6 783.631 1071.67 782.485 1071.03 783.779" fill="#3A8435"/>
<path d="M1063.36 808.831C1056.83 841.472 1055.08 878.786 1028.87 902.754C1027.8 903.73 1029.36 905.334 1030.43 904.361C1056.98 880.081 1058.9 842.518 1065.51 809.432C1065.79 808.026 1063.64 807.411 1063.36 808.831" fill="#3A8435"/>
<path d="M1048.69 821.181C1028.13 836.715 1017.02 861.364 1013.6 886.432C1013.4 887.858 1015.64 887.877 1015.83 886.463C1019.18 861.953 1030.18 837.953 1050.25 822.787C1051.4 821.919 1049.82 820.323 1048.69 821.181" fill="#3A8435"/>
<path d="M1043 842.706C1040.9 853.072 1036.09 862.355 1030.02 870.935C1029.19 872.113 1031.12 873.241 1031.95 872.07C1038.13 863.336 1043.02 853.849 1045.16 843.305C1045.45 841.901 1043.29 841.287 1043 842.706" fill="#3A8435"/>
<path d="M1072.09 817.551C1075.57 831.983 1077.77 846.408 1074.81 861.132C1071.6 877.059 1061.39 897.299 1047.21 905.808C1045.97 906.55 1047.05 908.515 1048.28 907.772C1062.99 898.949 1072.06 880.045 1076.43 863.971C1080.65 848.487 1077.95 832.29 1074.26 817.015C1073.92 815.61 1071.75 816.15 1072.09 817.551" fill="#3A8435"/>
<path d="M1080.76 821.567C1092 832.993 1097.91 847.192 1097.16 863.286C1096.23 883.283 1081.86 895.627 1068.45 908.427C1067.41 909.424 1068.97 911.029 1070.01 910.034C1084.47 896.226 1097.44 884.239 1099.4 863.322C1100.93 847.005 1093.59 831.421 1082.36 820.009C1081.35 818.982 1079.75 820.539 1080.76 821.567" fill="#3A8435"/>
<path d="M1067.97 836.197C1067.3 845.859 1065.16 855.238 1062.5 864.528C1062.11 865.914 1064.26 866.518 1064.66 865.129C1067.37 855.654 1069.53 846.08 1070.21 836.229C1070.31 834.787 1068.07 834.76 1067.97 836.197Z" fill="#3A8435"/>
<path d="M1041.94 798.842C1026.77 801.725 1013.77 804.223 1002.77 815.834C992.148 827.042 988.011 841.758 988.303 856.921C988.332 858.362 990.569 858.401 990.543 856.955C990.228 840.731 995.191 827.081 1006.37 815.289C1015.93 805.193 1029.54 803.473 1042.48 801.014C1043.9 800.744 1043.35 798.573 1041.94 798.842" fill="#3A8435"/>
<path d="M1012.16 796.806C1000.93 802.429 991.182 808.165 986.37 820.314C985.839 821.652 988 822.243 988.525 820.913C993.092 809.392 1002.71 804.041 1013.24 798.769C1014.53 798.122 1013.45 796.163 1012.16 796.806" fill="#3A8435"/>
<path d="M137.95 367.004C136.411 340.436 130.581 314.554 114.496 292.838C98.3498 271.04 74.0355 256.528 51.5359 242.218C39.2281 234.392 27.1012 226.312 15.9676 216.859C10.5788 212.283 5.2925 207.378 0.74357 201.961C-0.619493 200.339 -7.71309 190.726 -0.654026 196.883C1.98693 199.186 3.93335 202.507 6.25099 205.159C14.455 214.549 25.1462 221.72 35.5585 228.422C44.5492 234.206 54.9113 240.786 65.8376 241.687C66.5223 241.744 67.045 241.366 67.0637 240.646C67.5384 223.299 64.4562 205.971 64.0473 188.634C63.9729 185.437 63.9562 182.166 64.6248 179.025C65.602 174.425 67.5283 182.655 67.6102 183.441C69.0654 197.273 68.2683 211.417 69.0592 225.303C69.36 230.587 68.4178 238.651 71.7656 242.999C74.9881 247.184 79.1808 250.662 83.1936 254.048C93.7035 262.912 105.155 270.351 114.667 280.375C125.516 291.805 133.339 306.252 138.17 321.155C140.699 328.952 142.109 337.099 143.434 345.167C144.044 348.877 144.594 352.597 145.175 356.312C146.23 363.071 146.067 366.673 137.639 364.966C136.361 364.708 135.929 366.682 137.205 366.94C140.981 367.705 144.327 367.056 147.94 365.836C148.328 365.704 148.707 365.261 148.63 364.823C145.234 345.314 143.644 324.865 134.76 306.835C125.889 288.825 113.635 274.977 97.7377 262.859C90.2287 257.136 82.6654 251.458 76.0012 244.742C70.9018 239.604 71.5276 231.987 71.0778 225.197C70.6904 219.315 70.5224 213.416 70.3742 207.524C70.1605 199.003 70.3735 190.406 69.4798 181.919C69.1904 179.161 68.7621 177.269 66.4884 175.79C61.713 172.685 62.0123 185.907 62.0119 187.345C62.0031 201.021 63.8212 214.703 64.6994 228.339C64.8902 231.287 65.0197 234.239 65.0779 237.191C65.1549 241.145 62.6618 239.314 59.4573 238.396C50.6 235.853 42.3606 230.405 34.6873 225.469C26.3367 220.095 18.4175 214.177 11.1905 207.353C5.9761 202.429 2.39176 194.479 -4.78354 192.173C-5.58572 191.916 -6.11683 192.808 -5.96001 193.48C-4.35654 200.315 0.903954 205.53 5.77466 210.292C12.952 217.313 20.7611 223.629 28.8782 229.522C44.9392 241.184 62.3103 250.911 78.5311 262.348C95.4296 274.262 110.856 288.504 121.045 306.684C131.321 325.022 134.733 346.406 135.932 367.111C136.007 368.412 138.025 368.307 137.95 367.004" fill="#3A8435"/>
<path d="M65.6488 227.871C54.0498 226.158 45.4857 217.743 39.7085 208.004C32.7762 196.317 32.3625 183.567 40.1845 172.379C47.1542 162.41 45.4987 154.249 44.6248 142.507C43.4176 126.311 55.9877 112.388 72.507 115.345C87.0369 117.949 90.3368 131.599 90.2139 144.185C90.1195 153.558 90.2939 160.256 96.688 167.625C105.653 177.957 109.217 187.314 105.606 201.123C103.522 209.096 98.5855 216.253 92.047 221.185C86.1565 225.629 77.8437 225.432 71.0344 227.588C69.7919 227.98 70.429 229.9 71.673 229.505C78.9952 227.188 86.4438 226.903 93.1562 222.875C98.4934 219.673 102.23 213.805 104.982 208.409C110.667 197.265 111.153 183.125 103.725 172.787C100.047 167.67 95.3098 163.809 92.9912 157.755C90.3239 150.798 92.644 141.929 91.7532 134.574C90.2999 122.531 82.3422 115.054 70.6373 112.958C58.6757 110.817 48.781 119.208 44.5518 129.678C42.1851 135.538 42.4472 141.747 43.0719 147.892C43.6776 153.831 44.6294 159.575 42.2369 165.346C40.4967 169.541 37.0217 173.143 34.7946 177.133C23.5576 197.279 44.6873 226.818 65.215 229.845C66.4995 230.035 66.9381 228.061 65.6488 227.871Z" fill="#3A8435"/>
<path d="M65.7805 215.549C55.3557 210.577 49.4355 199.599 43.7526 190.083C43.0832 188.963 41.3944 190.076 42.0622 191.194C47.9278 201.012 54.0945 212.214 64.8549 217.346C66.031 217.908 66.9566 216.11 65.7805 215.549" fill="#3A8435"/>
<path d="M70.715 213.103C79.4555 205.059 88.4312 194.56 86.6404 181.859C86.4596 180.578 84.4405 180.675 84.6218 181.966C86.3403 194.155 77.5713 204.057 69.2122 211.749C68.2532 212.633 69.7634 213.976 70.715 213.103Z" fill="#3A8435"/>
<path d="M66.4126 176.986C64.9 160.433 70.0383 144.008 65.9371 127.622C65.6195 126.358 63.7037 127.003 64.0177 128.261C68.0634 144.421 62.9007 160.752 64.394 177.092C64.5124 178.388 66.5313 178.287 66.4126 176.986" fill="#3A8435"/>
<path d="M67.9495 176.096C72.2746 163.48 83.9667 154.779 81.1795 140.314C80.9325 139.038 79.0172 139.691 79.2601 140.953C81.8977 154.635 70.0687 163.717 65.9738 175.662C65.5513 176.895 67.5326 177.313 67.9495 176.096" fill="#3A8435"/>
<path d="M64.1939 175.15C55.2266 171.012 54.2366 160.478 53.7476 151.743C53.6742 150.442 51.6556 150.548 51.729 151.85C52.2604 161.329 53.6123 172.491 63.2683 176.946C64.45 177.493 65.3773 175.697 64.1939 175.15" fill="#3A8435"/>
<path d="M47.8409 177.934C51.3781 183.021 56.2767 186.59 61.0714 190.399C62.0871 191.205 63.4463 189.708 62.4238 188.896C57.7712 185.201 52.9652 181.762 49.5314 176.824C48.7886 175.757 47.0945 176.861 47.8409 177.934Z" fill="#3A8435"/>
<path d="M71.0273 192.192C76.5818 187.672 80.2677 181.493 84.0083 175.492C84.6997 174.383 82.8945 173.468 82.2106 174.565C78.6688 180.25 75.1806 186.218 69.9182 190.503C68.9181 191.317 70.0149 193.016 71.0273 192.192Z" fill="#3A8435"/>
<path d="M71.0594 212.162C78.3584 215.033 89.7036 214.725 95.308 208.568C96.1868 207.604 94.6842 206.253 93.8053 207.216C88.8915 212.616 78.4159 212.894 71.985 210.364C70.7829 209.892 69.8473 211.685 71.0594 212.162" fill="#3A8435"/>
<path d="M84.0552 198.086C89.6463 198.936 95.7833 198.529 99.9535 194.29C100.87 193.36 99.3623 192.011 98.4509 192.938C94.8262 196.62 89.3096 196.846 84.489 196.112C83.2058 195.915 82.7672 197.89 84.0552 198.086Z" fill="#3A8435"/>
<path d="M38.812 235.322C29.7225 241.875 16.201 240.462 5.88437 238.192C0.228938 236.95 -5.27259 235.032 -10.3209 232.187C-18.7906 227.411 -17.3815 220.372 -16.5079 212.387C-14.7218 196.051 -37.7123 193.059 -42.2195 179.422C-46.6438 166.036 -37.0451 151.282 -24.9869 146.184C-13.1443 141.174 -6.09078 147.934 -0.408933 157.215C2.32834 161.686 5.91367 166.641 11.3219 167.987C14.9071 168.877 18.3402 168.785 21.9885 168.23C28.8755 167.181 32.6976 166.45 35.1483 174.583C35.5249 175.831 37.4425 175.191 37.0676 173.945C33.948 163.596 29.4038 165.066 20.2099 166.466C6.11451 168.611 3.07668 156.645 -4.23661 148.026C-10.205 140.992 -19.8088 141.803 -27.5852 145.092C-37.9118 149.46 -44.0311 160.48 -44.9899 171.213C-45.8422 180.77 -41.0254 188.078 -33.4414 193.317C-28.8873 196.463 -23.9411 199.183 -20.5919 203.712C-16.1775 209.68 -20.2056 217.173 -19.4866 223.818C-18.3634 234.204 -2.58122 238.201 5.44903 240.166C16.1912 242.799 30.4962 243.806 39.9211 237.013C40.9743 236.254 39.8713 234.559 38.812 235.322" fill="#3A8435"/>
<path d="M-23.9451 166.525C-4.18315 169.804 11.9053 186.878 10.3931 207.464C10.2979 208.763 12.3173 208.64 12.4117 207.358C13.9847 185.927 -2.96039 167.96 -23.5114 164.551C-24.7939 164.337 -25.2308 166.311 -23.9451 166.525" fill="#3A8435"/>
<path d="M-11.556 211.653C-5.78374 215.36 2.30703 216.014 8.77489 213.925C10.0137 213.525 9.37827 211.605 8.13626 212.006C2.13977 213.944 -5.29219 213.284 -10.6303 209.857C-11.7297 209.152 -12.6436 210.957 -11.556 211.653" fill="#3A8435"/>
<path d="M21.5223 180.4C28.09 190.973 29.7272 205.986 23.4522 217.062C22.8077 218.199 24.6082 219.118 25.2499 217.99C31.8803 206.282 30.1468 190.455 23.2127 179.289C22.5245 178.182 20.8341 179.293 21.5223 180.4Z" fill="#3A8435"/>
<path d="M17.7804 193.31C19.7176 197.503 23.0206 200.291 26.6484 203.007C27.6835 203.781 29.046 202.286 28.0008 201.504C24.7067 199.038 21.4672 196.499 19.6998 192.672C19.1605 191.503 17.2339 192.126 17.7804 193.31" fill="#3A8435"/>
<path d="M-11.3378 180.436C-6.34469 181.309 -1.43251 182.551 3.63619 182.923C4.93346 183.018 4.81096 180.998 3.52993 180.904C-1.35026 180.546 -6.09732 179.302 -10.9041 178.462C-12.1855 178.238 -12.6224 180.213 -11.3378 180.436Z" fill="#3A8435"/>
<path d="M717.333 732.667C700.028 732.667 686 718.639 686 701.333C686 684.029 700.028 670 717.333 670C734.637 670 748.667 684.029 748.667 701.333C748.667 718.639 734.637 732.667 717.333 732.667Z" fill="#AADE81"/>
<path d="M1172.07 124.562C1155.96 122.275 1136.45 125.725 1126.62 139.936C1126.36 140.312 1126.55 140.858 1126.92 141.077C1135.22 146.004 1147.25 145.803 1156.32 143.715C1161.16 142.598 1165.12 140.342 1168.9 137.164C1171.49 134.986 1177.4 130.197 1178.29 126.864C1178.41 126.418 1178.14 125.97 1177.7 125.843C1175.84 125.3 1173.97 124.961 1172.07 124.562C1171.02 124.341 1170.58 125.95 1171.63 126.171C1171.81 126.209 1176.44 126.725 1175.67 127.605C1174.42 129.027 1173.17 130.445 1171.9 131.847C1168.9 135.149 1165.58 138.044 1161.64 140.171C1153.08 144.797 1141.26 143.892 1132.17 141.588C1127.93 140.516 1128.85 139.435 1131.12 136.929C1132.62 135.281 1134.48 133.939 1136.3 132.693C1139.69 130.364 1143.63 128.901 1147.53 127.705C1155.25 125.342 1163.68 125.043 1171.63 126.171C1172.68 126.322 1173.13 124.714 1172.07 124.562" fill="#3A8435"/>
<path d="M1175.28 126.596C1167.78 129.924 1160.05 132.46 1152.12 134.556C1144.45 136.585 1136.27 139.964 1128.25 139.541C1127.18 139.484 1127.19 141.151 1128.26 141.207C1135.91 141.611 1143.06 138.484 1150.37 136.718C1159.2 134.585 1167.81 131.721 1176.11 128.041C1177.1 127.604 1176.25 126.165 1175.28 126.596" fill="#3A8435"/>
<path d="M1132.66 138.252C1140.85 134.071 1149.04 129.832 1158.18 128.201C1159.24 128.013 1158.79 126.405 1157.74 126.593C1148.46 128.249 1140.14 132.563 1131.82 136.807C1130.86 137.297 1131.7 138.739 1132.66 138.252" fill="#3A8435"/>
<path d="M1147.13 141.114C1152.36 140.275 1157.14 138.323 1161.96 136.212C1162.95 135.78 1162.1 134.342 1161.13 134.767C1156.43 136.826 1151.78 138.689 1146.69 139.505C1145.63 139.675 1146.08 141.283 1147.13 141.114Z" fill="#3A8435"/>
<path d="M1161.17 129.923C1163.41 129.59 1165.66 129.476 1167.87 128.957C1168.92 128.711 1168.48 127.103 1167.43 127.349C1165.23 127.868 1162.96 127.981 1160.73 128.314C1159.67 128.474 1160.12 130.08 1161.17 129.923" fill="#3A8435"/>
<path d="M1190.13 135.407C1174.81 140.636 1159 152.424 1156.58 169.447C1156.5 170.007 1156.81 170.456 1157.39 170.495C1166.5 171.118 1176.66 165.999 1183.65 160.534C1187.52 157.507 1190.73 153.757 1192.58 149.168C1194.01 145.626 1197.57 138.433 1196.77 134.592C1196.67 134.123 1196.17 133.929 1195.74 134.007C1193.83 134.366 1192.01 134.904 1190.13 135.407C1189.1 135.684 1189.53 137.294 1190.57 137.016C1195.19 135.781 1194.88 136.121 1193.68 140.664C1192.28 145.966 1190.4 151.044 1186.84 155.3C1181.15 162.107 1172.36 165.852 1164.03 168.187C1158.91 169.626 1157.98 169.102 1159.42 164.26C1160.87 159.37 1164.18 155.079 1167.55 151.385C1173.67 144.684 1182.06 139.92 1190.57 137.016C1191.58 136.671 1191.15 135.059 1190.13 135.407" fill="#3A8435"/>
<path d="M1194.08 135.625C1188.39 142.567 1182.06 148.803 1175.3 154.694C1169.74 159.54 1164.67 165.557 1157.8 168.541C1156.81 168.97 1157.66 170.408 1158.63 169.986C1164.95 167.239 1169.57 162.014 1174.6 157.473C1181.9 150.884 1189 144.442 1195.25 136.809C1195.93 135.985 1194.76 134.795 1194.08 135.625Z" fill="#3A8435"/>
<path d="M1161.2 165.352C1166.59 157.985 1171.94 150.555 1179.29 145.008C1180.14 144.369 1179.31 142.917 1178.46 143.564C1170.86 149.297 1165.33 156.893 1159.77 164.507C1159.13 165.376 1160.58 166.21 1161.2 165.352" fill="#3A8435"/>
<path d="M1182.73 145.196C1184.64 143.847 1186.66 142.693 1188.45 141.184C1189.27 140.488 1188.09 139.311 1187.28 139.999C1185.6 141.414 1183.68 142.487 1181.9 143.751C1181.03 144.37 1181.86 145.819 1182.73 145.196Z" fill="#3A8435"/>
<path d="M744.969 687.126C734.529 693.067 724.284 700.959 720.729 712.924C717.564 723.575 725.102 733.334 732.665 739.782C742.099 747.824 754.123 753.149 765.983 756.433C773.682 758.568 784.847 760.555 791.611 754.881C805.184 743.494 799.116 718.996 795.242 704.455C792.893 695.638 788.78 685.783 779.69 682.048C767.823 677.177 756.336 682.175 745.162 686.544C743.906 687.034 744.454 689.079 745.724 688.582C754.964 684.969 763.97 680.878 774.142 682.493C784.917 684.205 790.158 694.305 792.859 703.77C796.716 717.279 800.78 734.826 794.453 748.134C785.51 766.94 752.733 750.392 741.16 743.296C731.812 737.566 722.702 729.238 722.236 717.564C721.715 704.516 736.162 694.569 746.037 688.952C747.222 688.279 746.157 686.452 744.969 687.126" fill="#3A8435"/>
<path d="M745.162 686.544C730.136 692.497 728.605 671.942 721.822 663.663C721.394 664.217 720.967 664.772 720.54 665.325C729.437 671.605 741.95 675.788 743.944 687.905C744.164 689.248 746.202 688.676 745.982 687.344C743.88 674.572 730.991 670.124 721.608 663.498C720.554 662.754 719.622 664.298 720.325 665.159C727.749 674.22 729.154 695.148 745.723 688.582C746.975 688.086 746.43 686.04 745.162 686.544" fill="#3A8435"/>
<path d="M746.279 685.847C744.024 678.084 743.651 669.882 748.495 663.012C747.887 663.012 747.28 663.012 746.67 663.012C750.795 669.782 750.636 680.732 745.175 686.754C744.259 687.76 745.751 689.26 746.668 688.249C752.777 681.515 753.134 669.559 748.495 661.944C748.058 661.226 747.123 661.302 746.67 661.944C741.521 669.243 741.839 678.141 744.241 686.409C744.62 687.714 746.66 687.158 746.279 685.847" fill="#3A8435"/>
<path d="M744.756 687.291C734.931 695.829 720.987 694.121 712.786 684.279C712.63 684.867 712.474 685.458 712.319 686.046C717.445 684.294 723.265 680.927 728.805 682.405C730.124 682.757 730.682 680.719 729.366 680.367C723.299 678.746 717.379 682.085 711.757 684.008C710.964 684.279 710.769 685.148 711.29 685.776C720.267 696.548 735.614 698.03 746.251 688.788C747.283 687.892 745.781 686.403 744.756 687.291" fill="#3A8435"/>
<path d="M727.847 713.582C728.644 715.15 730.012 716.202 731.372 717.256C732.438 718.078 733.947 716.593 732.869 715.759C731.655 714.82 730.381 713.912 729.671 712.515C729.053 711.299 727.23 712.369 727.847 713.582" fill="#3A8435"/>
<path d="M744.435 701.479C746.03 702.756 747.165 704.418 748.293 706.098C749.049 707.223 750.882 706.166 750.12 705.031C748.898 703.212 747.655 701.365 745.932 699.982C744.878 699.14 743.371 700.625 744.435 701.479Z" fill="#3A8435"/>
<path d="M767.061 690.505C768.448 691.224 769.41 692.368 769.997 693.812C770.503 695.059 772.549 694.516 772.035 693.25C771.245 691.302 770.026 689.663 768.128 688.679C766.919 688.053 765.848 689.878 767.061 690.505Z" fill="#3A8435"/>
<path d="M744.541 717.516C745.734 718.888 746.965 720.231 748.597 721.084C749.803 721.713 750.874 719.888 749.665 719.255C748.188 718.487 747.114 717.261 746.037 716.02C745.142 714.99 743.652 716.493 744.541 717.516Z" fill="#3A8435"/>
<path d="M761.271 707.593C762.531 708.598 763.578 709.841 764.632 711.053C765.53 712.083 767.017 710.581 766.129 709.557C765.075 708.345 764.028 707.102 762.766 706.096C761.713 705.257 760.206 706.742 761.271 707.593" fill="#3A8435"/>
<path d="M745.128 733.495C747.368 735.251 749.426 737.226 751.669 738.984C752.73 739.812 754.237 738.327 753.163 737.487C750.923 735.733 748.865 733.757 746.624 732C745.565 731.168 744.054 732.654 745.128 733.495Z" fill="#3A8435"/>
<path d="M762.072 723.736C763.259 724.626 764.6 725.287 765.789 726.178C766.882 726.997 767.934 725.16 766.857 724.352C765.668 723.462 764.328 722.801 763.139 721.909C762.046 721.091 760.994 722.927 762.072 723.736" fill="#3A8435"/>
<path d="M779.122 707.503C780.335 709.294 781.659 710.993 782.728 712.878C783.4 714.064 785.226 712.999 784.553 711.811C783.486 709.925 782.161 708.227 780.947 706.436C780.188 705.315 778.356 706.372 779.122 707.503Z" fill="#3A8435"/>
<path d="M765.486 736.727C767.01 737.927 768.342 739.342 769.865 740.543C770.924 741.377 772.431 739.892 771.361 739.048C769.837 737.849 768.504 736.431 766.98 735.23C765.923 734.398 764.416 735.883 765.486 736.727Z" fill="#3A8435"/>
<path d="M778.854 723.342C780.141 724.822 781.449 726.286 782.815 727.699C783.766 728.678 785.26 727.181 784.311 726.202C782.944 724.791 781.637 723.328 780.346 721.845C779.451 720.813 777.961 722.317 778.854 723.342Z" fill="#3A8435"/>
<path d="M781.843 742.903C782.985 744.213 784.126 745.528 785.266 746.842C786.161 747.872 787.651 746.37 786.761 745.345C785.621 744.032 784.48 742.72 783.338 741.406C782.442 740.376 780.953 741.878 781.843 742.903Z" fill="#3A8435"/>
<path d="M772.202 749.68C773.677 750.449 774.753 751.677 775.829 752.917C776.727 753.947 778.215 752.445 777.324 751.42C776.132 750.05 774.902 748.707 773.27 747.853C772.062 747.224 770.993 749.047 772.202 749.68" fill="#3A8435"/>
<path d="M789.346 729.295C790.344 730.09 790.965 731.047 791.523 732.184C792.122 733.408 793.945 732.336 793.348 731.117C792.722 729.84 791.963 728.695 790.838 727.798C789.784 726.959 788.279 728.444 789.346 729.295" fill="#3A8435"/>
<path d="M779.719 692.096C781.001 693.593 782.127 695.214 783.682 696.453C784.737 697.292 786.244 695.807 785.177 694.957C783.622 693.718 782.496 692.098 781.212 690.6C780.324 689.564 778.838 691.065 779.719 692.096Z" fill="#3A8435"/>
<path d="M731.305 729.19C732.141 730.406 733.137 731.528 734.294 732.448C735.348 733.287 736.855 731.8 735.789 730.953C734.778 730.147 733.864 729.19 733.13 728.125C732.364 727.008 730.531 728.064 731.305 729.19Z" fill="#3A8435"/>
<path d="M744.213 686.58C741.735 684.19 739.225 681.832 736.95 679.241C736.049 678.216 734.56 679.718 735.455 680.738C737.731 683.325 740.242 685.685 742.719 688.076C743.7 689.022 745.197 687.53 744.213 686.58Z" fill="#3A8435"/>
<path d="M1233.73 100.859C1218.06 96.5024 1201.38 91.3044 1190.03 78.9855C1184.09 72.5416 1180.46 64.0915 1175.49 56.9501C1170.5 49.7607 1158.13 42.7313 1148.96 43.5829C1147.89 43.6802 1147.59 42.0404 1148.67 41.941C1153.99 41.4468 1162 44.4355 1166.52 47.0023C1174.18 51.3445 1178.37 57.955 1182.77 65.3517C1188.38 74.7723 1194.29 82.049 1203.8 87.7476C1213.11 93.331 1223.91 96.4018 1234.29 99.287C1235.33 99.5763 1234.76 101.144 1233.73 100.859" fill="#3A8435"/>
<path d="M1201.73 85.4933C1211.92 83.9986 1221.67 61.8632 1212.51 54.5721C1210.78 53.1873 1205.11 53.0036 1205.61 57.0383C1205.79 58.564 1206.66 60.2662 1207.2 61.7127C1207.85 63.4166 1208.24 65.0713 1208.18 66.8955C1208.06 71.111 1203.72 73.6593 1200.06 73.8037C1196.41 73.9477 1193.82 70.0215 1193.18 66.9566C1192.15 62.005 1195.14 56.064 1196.81 51.6054C1197.97 48.5151 1199.31 45.3039 1199.03 41.9405C1198.71 38.088 1190.02 30.2657 1191.28 36.5282C1192.25 41.3494 1193.6 45.3044 1190.25 49.4029C1188.42 51.6384 1185.69 50.9285 1183.7 49.4714C1179.39 46.3144 1179.86 40.6035 1178.4 36.0793C1177.14 32.1588 1169.73 30.8762 1170.53 35.4132C1170.66 36.1572 1170.92 36.8944 1171.11 37.6232C1171.3 38.3382 1171.48 39.354 1171.08 40.0436C1169.58 42.6737 1165.32 40.7086 1163.56 39.4726C1159.5 36.6422 1159.51 27.8307 1158.06 23.6792C1156.04 17.9468 1150.57 15.9188 1145.01 16.2347C1142.98 16.3505 1141.04 16.9501 1139.18 17.7346C1130.24 21.4934 1138.81 25.7151 1140.89 26.816C1143.07 27.9736 1146.73 30.2937 1145.22 33.3979C1143.3 37.3326 1139.57 37.0119 1135.61 36.8728C1131.12 36.7165 1128.15 37.199 1125.28 41.0741C1120.7 47.2576 1124.26 55.8583 1132.51 55.1426C1137.74 54.6903 1141.51 51.3547 1146.98 52.3509C1151.92 53.249 1154.55 56.1106 1151.75 60.6957C1149.94 63.6861 1147.14 66.1372 1144.88 68.7837C1142.44 71.638 1138.89 79.6201 1146.2 78.7417C1149.89 78.2989 1153.4 73.3696 1155.75 70.8836C1158.32 68.1584 1160.99 65.5174 1164.39 63.8582C1170.76 60.7571 1178.31 67.0211 1177.55 73.8532C1177.1 77.8473 1175.36 80.6134 1171.41 81.7709C1169.07 82.4529 1166.15 81.8172 1163.77 82.0792C1156.64 82.8668 1156.71 90.5005 1162.25 92.758C1168.4 95.2638 1172.87 91.5851 1177.02 87.6574C1178.49 86.2649 1181.55 83.9824 1183.69 85.5678C1185.99 87.2702 1186.53 89.4043 1185.78 92.1608C1185.16 94.4194 1183.18 99.5973 1189.57 98.9171C1191.75 98.6853 1194.02 96.2705 1195.39 94.769C1197.22 92.7731 1198.72 90.3145 1199.82 87.8584C1200.26 86.8835 1201.83 87.4348 1201.39 88.4151C1199.49 92.6509 1190.56 106.039 1184.59 99.124C1183.8 98.2063 1183.14 97.2218 1183.26 95.9248C1183.44 94.1246 1186.42 85.2489 1180.74 87.0371C1176.19 88.4683 1174.19 93.6504 1169.13 94.8938C1163.43 96.2945 1153.42 92.4025 1156.98 85.2221C1158.88 81.4012 1162.91 80.2799 1166.81 80.2426C1171.34 80.1983 1176.37 81.0858 1175.78 72.2012C1175.56 68.8886 1172.98 66.119 1170.02 64.9781C1166.72 63.7009 1163.32 66.1633 1160.93 68.1405C1156.33 71.9495 1150.98 81.8077 1143.89 80.2445C1136.33 78.5796 1141.45 70.2404 1144.16 67.0676C1146.59 64.2232 1149.86 61.5466 1151.27 57.9975C1152.86 53.9995 1144.55 53.6506 1142.71 53.8438C1139.34 54.194 1136.13 56.0993 1132.8 56.7848C1121.41 59.1246 1119.73 45.7785 1124.84 38.8792C1127.56 35.2028 1131.54 35.089 1135.74 35.2115C1137.52 35.2638 1139.19 35.3155 1140.97 35.0867C1149.72 33.9597 1140.74 28.626 1139.93 28.1826C1138.27 27.2633 1135.76 26.3174 1134.82 24.4988C1129.97 15.125 1147.34 13.6977 1152.53 15.558C1157.35 17.2844 1159.41 22.0191 1160.7 26.5649C1162.04 31.2645 1161.63 38.494 1168.18 39.5644C1170.62 39.963 1168.77 35.2512 1168.72 34.2652C1168.59 31.6606 1171.1 31.0242 1173.19 30.8782C1177.85 30.5532 1179.9 34.5548 1180.74 38.4113C1181.5 41.8274 1181.69 44.6252 1184.02 47.4791C1186.83 50.9105 1190.47 47.772 1190.85 44.3072C1191.02 42.7529 1190.52 40.9257 1190.21 39.3985C1189.78 37.2631 1187.81 32.7831 1190.39 31.3178C1192.87 29.9048 1197.92 35.3569 1198.9 37.0982C1201.6 41.8999 1200.65 45.8364 1198.89 50.7849C1196.71 56.9591 1190.71 67.6633 1198.96 71.8728C1206.16 75.5437 1206.71 65.3985 1205.69 62.4108C1205.26 61.1596 1204.76 59.9362 1204.33 58.682C1203.78 57.0612 1203.63 55.6273 1204.32 54.0709C1205.43 51.5938 1209.55 51.8834 1211.68 52.3496C1214.87 53.0488 1216.33 56.5329 1216.97 59.3448C1219.18 69.0767 1212.99 85.5251 1202.03 87.1352C1200.96 87.2907 1200.67 85.6491 1201.73 85.4933" fill="#3A8435"/>
</g>
<defs>
<clipPath id="clip0_672_27">
<rect width="1200" height="843" fill="white"/>
</clipPath>
</defs>
</svg>
